%TF.GenerationSoftware,KiCad,Pcbnew,7.0.2*%
%TF.CreationDate,2023-08-12T21:53:34+01:00*%
%TF.ProjectId,lil-flite,6c696c2d-666c-4697-9465-2e6b69636164,rev?*%
%TF.SameCoordinates,Original*%
%TF.FileFunction,Copper,L2,Bot*%
%TF.FilePolarity,Positive*%
%FSLAX46Y46*%
G04 Gerber Fmt 4.6, Leading zero omitted, Abs format (unit mm)*
G04 Created by KiCad (PCBNEW 7.0.2) date 2023-08-12 21:53:34*
%MOMM*%
%LPD*%
G01*
G04 APERTURE LIST*
G04 Aperture macros list*
%AMRoundRect*
0 Rectangle with rounded corners*
0 $1 Rounding radius*
0 $2 $3 $4 $5 $6 $7 $8 $9 X,Y pos of 4 corners*
0 Add a 4 corners polygon primitive as box body*
4,1,4,$2,$3,$4,$5,$6,$7,$8,$9,$2,$3,0*
0 Add four circle primitives for the rounded corners*
1,1,$1+$1,$2,$3*
1,1,$1+$1,$4,$5*
1,1,$1+$1,$6,$7*
1,1,$1+$1,$8,$9*
0 Add four rect primitives between the rounded corners*
20,1,$1+$1,$2,$3,$4,$5,0*
20,1,$1+$1,$4,$5,$6,$7,0*
20,1,$1+$1,$6,$7,$8,$9,0*
20,1,$1+$1,$8,$9,$2,$3,0*%
G04 Aperture macros list end*
%TA.AperFunction,ConnectorPad*%
%ADD10C,5.600000*%
%TD*%
%TA.AperFunction,ComponentPad*%
%ADD11C,3.600000*%
%TD*%
%TA.AperFunction,ComponentPad*%
%ADD12RoundRect,0.250000X0.750000X-0.600000X0.750000X0.600000X-0.750000X0.600000X-0.750000X-0.600000X0*%
%TD*%
%TA.AperFunction,ComponentPad*%
%ADD13O,2.000000X1.700000*%
%TD*%
%TA.AperFunction,ComponentPad*%
%ADD14RoundRect,0.250000X-0.750000X0.600000X-0.750000X-0.600000X0.750000X-0.600000X0.750000X0.600000X0*%
%TD*%
%TA.AperFunction,ComponentPad*%
%ADD15O,1.050000X2.100000*%
%TD*%
%TA.AperFunction,ComponentPad*%
%ADD16O,1.000000X2.000000*%
%TD*%
%ADD17C,0.350000*%
%ADD18O,0.600000X1.700000*%
%ADD19O,0.600000X1.400000*%
G04 APERTURE END LIST*
D10*
%TO.P,H204,1*%
%TO.N,N/C*%
X103200000Y-96800000D03*
D11*
X103200000Y-96800000D03*
%TD*%
D10*
%TO.P,H203,1*%
%TO.N,N/C*%
X121800000Y-96800000D03*
D11*
X121800000Y-96800000D03*
%TD*%
D10*
%TO.P,H202,1*%
%TO.N,N/C*%
X103200000Y-53200000D03*
D11*
X103200000Y-53200000D03*
%TD*%
D10*
%TO.P,H201,1*%
%TO.N,N/C*%
X121800000Y-53200000D03*
D11*
X121800000Y-53200000D03*
%TD*%
D12*
%TO.P,J203,1,Pin_1*%
%TO.N,GND*%
X121000000Y-90540000D03*
D13*
%TO.P,J203,2,Pin_2*%
%TO.N,/Connectors + Power/RECOVERY_LED*%
X121000000Y-88040000D03*
%TD*%
%TO.P,J202,2,Pin_2*%
%TO.N,GND*%
X104000000Y-90500000D03*
D14*
%TO.P,J202,1,Pin_1*%
%TO.N,+BATT*%
X104000000Y-88000000D03*
%TD*%
D15*
%TO.P,J201,S1,SHELL_GND*%
%TO.N,GND*%
X116820000Y-56774218D03*
D16*
%TO.P,J201,S2,SHELL_GND*%
X116820000Y-52594218D03*
%TO.P,J201,S3,SHELL_GND*%
X108180000Y-52594218D03*
D15*
%TO.P,J201,S4,SHELL_GND*%
X108180000Y-56774218D03*
%TD*%
%TA.AperFunction,Conductor*%
%TO.N,GND*%
G36*
X119859444Y-50320185D02*
G01*
X119905199Y-50372989D01*
X119915143Y-50442147D01*
X119886118Y-50505703D01*
X119867447Y-50523216D01*
X119662822Y-50678767D01*
X119662814Y-50678773D01*
X119660163Y-50680789D01*
X119657739Y-50683084D01*
X119657732Y-50683091D01*
X119402769Y-50924604D01*
X119402754Y-50924619D01*
X119400332Y-50926914D01*
X119398169Y-50929459D01*
X119398158Y-50929472D01*
X119170808Y-51197130D01*
X119170802Y-51197137D01*
X119168635Y-51199689D01*
X119166755Y-51202461D01*
X119166748Y-51202471D01*
X118969679Y-51493126D01*
X118969671Y-51493138D01*
X118967789Y-51495915D01*
X118966214Y-51498885D01*
X118966212Y-51498889D01*
X118801722Y-51809148D01*
X118801717Y-51809157D01*
X118800147Y-51812120D01*
X118798906Y-51815232D01*
X118798902Y-51815243D01*
X118668924Y-52141464D01*
X118667676Y-52144597D01*
X118666775Y-52147841D01*
X118666773Y-52147848D01*
X118572828Y-52486209D01*
X118571929Y-52489448D01*
X118571388Y-52492747D01*
X118571384Y-52492766D01*
X118514573Y-52839302D01*
X118514028Y-52842629D01*
X118513846Y-52845979D01*
X118513845Y-52845992D01*
X118497808Y-53141788D01*
X118494652Y-53200000D01*
X118494834Y-53203356D01*
X118513845Y-53554007D01*
X118513846Y-53554018D01*
X118514028Y-53557371D01*
X118514572Y-53560692D01*
X118514573Y-53560697D01*
X118571384Y-53907233D01*
X118571387Y-53907248D01*
X118571929Y-53910552D01*
X118572827Y-53913789D01*
X118572828Y-53913790D01*
X118615445Y-54067285D01*
X118667676Y-54255403D01*
X118800147Y-54587880D01*
X118967789Y-54904085D01*
X118969676Y-54906868D01*
X118969679Y-54906873D01*
X119152621Y-55176692D01*
X119168635Y-55200311D01*
X119400332Y-55473086D01*
X119402763Y-55475389D01*
X119402769Y-55475395D01*
X119450835Y-55520925D01*
X119660163Y-55719211D01*
X119945081Y-55935800D01*
X120251747Y-56120315D01*
X120576565Y-56270591D01*
X120915726Y-56384868D01*
X121265254Y-56461805D01*
X121621052Y-56500500D01*
X121624410Y-56500500D01*
X121975590Y-56500500D01*
X121978948Y-56500500D01*
X122334746Y-56461805D01*
X122684274Y-56384868D01*
X123023435Y-56270591D01*
X123348253Y-56120315D01*
X123654919Y-55935800D01*
X123939837Y-55719211D01*
X124199668Y-55473086D01*
X124431365Y-55200311D01*
X124472868Y-55139098D01*
X124526781Y-55094659D01*
X124596163Y-55086421D01*
X124658985Y-55117001D01*
X124695301Y-55176692D01*
X124699500Y-55208687D01*
X124699500Y-94791312D01*
X124679815Y-94858351D01*
X124627011Y-94904106D01*
X124557853Y-94914050D01*
X124494297Y-94885025D01*
X124472867Y-94860900D01*
X124471139Y-94858351D01*
X124431365Y-94799689D01*
X124199668Y-94526914D01*
X124197235Y-94524609D01*
X124197230Y-94524604D01*
X123942267Y-94283091D01*
X123939837Y-94280789D01*
X123654919Y-94064200D01*
X123652045Y-94062471D01*
X123652041Y-94062468D01*
X123351135Y-93881419D01*
X123351134Y-93881418D01*
X123348253Y-93879685D01*
X123345197Y-93878271D01*
X123026490Y-93730822D01*
X123026483Y-93730819D01*
X123023435Y-93729409D01*
X122935005Y-93699613D01*
X122687457Y-93616204D01*
X122687448Y-93616201D01*
X122684274Y-93615132D01*
X122681006Y-93614412D01*
X122680993Y-93614409D01*
X122338033Y-93538918D01*
X122338023Y-93538916D01*
X122334746Y-93538195D01*
X121978948Y-93499500D01*
X121621052Y-93499500D01*
X121617715Y-93499862D01*
X121617713Y-93499863D01*
X121268600Y-93537831D01*
X121268598Y-93537831D01*
X121265254Y-93538195D01*
X121261979Y-93538915D01*
X121261966Y-93538918D01*
X120919006Y-93614409D01*
X120918988Y-93614413D01*
X120915726Y-93615132D01*
X120912555Y-93616200D01*
X120912542Y-93616204D01*
X120579752Y-93728335D01*
X120579749Y-93728336D01*
X120576565Y-93729409D01*
X120573522Y-93730816D01*
X120573509Y-93730822D01*
X120254802Y-93878271D01*
X120254792Y-93878275D01*
X120251747Y-93879685D01*
X120248873Y-93881414D01*
X120248864Y-93881419D01*
X119947958Y-94062468D01*
X119947945Y-94062476D01*
X119945081Y-94064200D01*
X119942423Y-94066220D01*
X119942412Y-94066228D01*
X119662822Y-94278767D01*
X119662814Y-94278773D01*
X119660163Y-94280789D01*
X119657739Y-94283084D01*
X119657732Y-94283091D01*
X119402769Y-94524604D01*
X119402754Y-94524619D01*
X119400332Y-94526914D01*
X119398169Y-94529459D01*
X119398158Y-94529472D01*
X119170808Y-94797130D01*
X119170802Y-94797137D01*
X119168635Y-94799689D01*
X119166755Y-94802461D01*
X119166748Y-94802471D01*
X118969679Y-95093126D01*
X118969671Y-95093138D01*
X118967789Y-95095915D01*
X118966214Y-95098885D01*
X118966212Y-95098889D01*
X118801722Y-95409148D01*
X118801717Y-95409157D01*
X118800147Y-95412120D01*
X118798906Y-95415232D01*
X118798902Y-95415243D01*
X118668924Y-95741464D01*
X118667676Y-95744597D01*
X118571929Y-96089448D01*
X118571388Y-96092747D01*
X118571384Y-96092766D01*
X118514573Y-96439302D01*
X118514028Y-96442629D01*
X118513846Y-96445979D01*
X118513845Y-96445992D01*
X118494834Y-96796643D01*
X118494652Y-96800000D01*
X118494834Y-96803356D01*
X118513845Y-97154007D01*
X118513846Y-97154018D01*
X118514028Y-97157371D01*
X118514572Y-97160692D01*
X118514573Y-97160697D01*
X118571384Y-97507233D01*
X118571387Y-97507248D01*
X118571929Y-97510552D01*
X118667676Y-97855403D01*
X118800147Y-98187880D01*
X118967789Y-98504085D01*
X118969676Y-98506868D01*
X118969679Y-98506873D01*
X119152621Y-98776692D01*
X119168635Y-98800311D01*
X119400332Y-99073086D01*
X119402763Y-99075389D01*
X119402769Y-99075395D01*
X119581622Y-99244813D01*
X119660163Y-99319211D01*
X119662822Y-99321232D01*
X119867447Y-99476784D01*
X119908904Y-99533026D01*
X119913373Y-99602752D01*
X119879436Y-99663826D01*
X119817868Y-99696858D01*
X119792405Y-99699500D01*
X105207595Y-99699500D01*
X105140556Y-99679815D01*
X105094801Y-99627011D01*
X105084857Y-99557853D01*
X105113882Y-99494297D01*
X105132553Y-99476784D01*
X105339837Y-99319211D01*
X105599668Y-99073086D01*
X105831365Y-98800311D01*
X106032211Y-98504085D01*
X106199853Y-98187880D01*
X106332324Y-97855403D01*
X106428071Y-97510552D01*
X106485972Y-97157371D01*
X106505348Y-96800000D01*
X106485972Y-96442629D01*
X106428071Y-96089448D01*
X106332324Y-95744597D01*
X106199853Y-95412120D01*
X106032211Y-95095915D01*
X105831365Y-94799689D01*
X105599668Y-94526914D01*
X105597235Y-94524609D01*
X105597230Y-94524604D01*
X105342267Y-94283091D01*
X105339837Y-94280789D01*
X105054919Y-94064200D01*
X105052045Y-94062471D01*
X105052041Y-94062468D01*
X104751135Y-93881419D01*
X104751134Y-93881418D01*
X104748253Y-93879685D01*
X104745197Y-93878271D01*
X104426490Y-93730822D01*
X104426483Y-93730819D01*
X104423435Y-93729409D01*
X104335005Y-93699613D01*
X104087457Y-93616204D01*
X104087448Y-93616201D01*
X104084274Y-93615132D01*
X104081006Y-93614412D01*
X104080993Y-93614409D01*
X103738033Y-93538918D01*
X103738023Y-93538916D01*
X103734746Y-93538195D01*
X103378948Y-93499500D01*
X103021052Y-93499500D01*
X103017715Y-93499862D01*
X103017713Y-93499863D01*
X102668600Y-93537831D01*
X102668598Y-93537831D01*
X102665254Y-93538195D01*
X102661979Y-93538915D01*
X102661966Y-93538918D01*
X102319006Y-93614409D01*
X102318988Y-93614413D01*
X102315726Y-93615132D01*
X102312555Y-93616200D01*
X102312542Y-93616204D01*
X101979752Y-93728335D01*
X101979749Y-93728336D01*
X101976565Y-93729409D01*
X101973522Y-93730816D01*
X101973509Y-93730822D01*
X101654802Y-93878271D01*
X101654792Y-93878275D01*
X101651747Y-93879685D01*
X101648873Y-93881414D01*
X101648864Y-93881419D01*
X101347958Y-94062468D01*
X101347945Y-94062476D01*
X101345081Y-94064200D01*
X101342423Y-94066220D01*
X101342412Y-94066228D01*
X101062822Y-94278767D01*
X101062814Y-94278773D01*
X101060163Y-94280789D01*
X101057739Y-94283084D01*
X101057732Y-94283091D01*
X100802769Y-94524604D01*
X100802754Y-94524619D01*
X100800332Y-94526914D01*
X100798169Y-94529459D01*
X100798158Y-94529472D01*
X100570808Y-94797130D01*
X100570802Y-94797137D01*
X100568635Y-94799689D01*
X100566755Y-94802460D01*
X100566754Y-94802463D01*
X100527133Y-94860900D01*
X100473218Y-94905341D01*
X100403836Y-94913578D01*
X100341014Y-94882997D01*
X100304699Y-94823306D01*
X100300500Y-94791312D01*
X100300500Y-88646878D01*
X102499500Y-88646878D01*
X102499501Y-88650008D01*
X102499820Y-88653140D01*
X102499821Y-88653141D01*
X102510000Y-88752796D01*
X102565186Y-88919334D01*
X102657288Y-89068657D01*
X102781342Y-89192711D01*
X102936558Y-89288448D01*
X102983283Y-89340396D01*
X102994506Y-89409358D01*
X102966663Y-89473440D01*
X102959144Y-89481668D01*
X102811890Y-89628922D01*
X102676399Y-89822423D01*
X102576569Y-90036507D01*
X102519364Y-90249999D01*
X102519364Y-90250000D01*
X103566314Y-90250000D01*
X103540507Y-90290156D01*
X103500000Y-90428111D01*
X103500000Y-90571889D01*
X103540507Y-90709844D01*
X103566314Y-90750000D01*
X102519364Y-90750000D01*
X102576569Y-90963492D01*
X102676400Y-91177578D01*
X102811890Y-91371078D01*
X102978921Y-91538109D01*
X103172421Y-91673599D01*
X103386507Y-91773430D01*
X103614681Y-91834569D01*
X103749999Y-91846407D01*
X103750000Y-91846407D01*
X103750000Y-90935501D01*
X103857685Y-90984680D01*
X103964237Y-91000000D01*
X104035763Y-91000000D01*
X104142315Y-90984680D01*
X104250000Y-90935501D01*
X104250000Y-91846407D01*
X104385318Y-91834569D01*
X104613492Y-91773430D01*
X104827578Y-91673599D01*
X105021078Y-91538109D01*
X105188106Y-91371081D01*
X105323600Y-91177576D01*
X105423430Y-90963492D01*
X105480636Y-90750000D01*
X104433686Y-90750000D01*
X104459493Y-90709844D01*
X104500000Y-90571889D01*
X104500000Y-90428111D01*
X104459493Y-90290156D01*
X104433686Y-90250000D01*
X105480636Y-90250000D01*
X105480635Y-90249999D01*
X105423430Y-90036507D01*
X105323599Y-89822421D01*
X105188109Y-89628921D01*
X105040856Y-89481668D01*
X105007371Y-89420345D01*
X105012355Y-89350653D01*
X105054227Y-89294720D01*
X105063441Y-89288448D01*
X105069331Y-89284814D01*
X105069334Y-89284814D01*
X105218656Y-89192712D01*
X105342712Y-89068656D01*
X105434814Y-88919334D01*
X105489999Y-88752797D01*
X105500500Y-88650009D01*
X105500500Y-88040000D01*
X119494340Y-88040000D01*
X119514936Y-88275407D01*
X119576097Y-88503663D01*
X119675965Y-88717829D01*
X119811505Y-88911401D01*
X119959068Y-89058964D01*
X119992553Y-89120287D01*
X119987569Y-89189979D01*
X119945697Y-89245912D01*
X119936484Y-89252184D01*
X119781653Y-89347684D01*
X119657683Y-89471654D01*
X119565642Y-89620877D01*
X119510493Y-89787303D01*
X119500319Y-89886890D01*
X119500000Y-89893168D01*
X119500000Y-90290000D01*
X120566314Y-90290000D01*
X120540507Y-90330156D01*
X120500000Y-90468111D01*
X120500000Y-90611889D01*
X120540507Y-90749844D01*
X120566314Y-90790000D01*
X119500001Y-90790000D01*
X119500001Y-91186829D01*
X119500321Y-91193111D01*
X119510493Y-91292695D01*
X119565642Y-91459122D01*
X119657683Y-91608345D01*
X119781654Y-91732316D01*
X119930877Y-91824357D01*
X120097303Y-91879506D01*
X120196890Y-91889680D01*
X120203168Y-91889999D01*
X120749999Y-91889999D01*
X120750000Y-91889998D01*
X120750000Y-90975501D01*
X120857685Y-91024680D01*
X120964237Y-91040000D01*
X121035763Y-91040000D01*
X121142315Y-91024680D01*
X121249999Y-90975501D01*
X121249999Y-91889999D01*
X121796829Y-91889999D01*
X121803111Y-91889678D01*
X121902695Y-91879506D01*
X122069122Y-91824357D01*
X122218345Y-91732316D01*
X122342316Y-91608345D01*
X122434357Y-91459122D01*
X122489506Y-91292696D01*
X122499680Y-91193109D01*
X122500000Y-91186831D01*
X122500000Y-90790000D01*
X121433686Y-90790000D01*
X121459493Y-90749844D01*
X121500000Y-90611889D01*
X121500000Y-90468111D01*
X121459493Y-90330156D01*
X121433686Y-90290000D01*
X122499999Y-90290000D01*
X122499999Y-89893170D01*
X122499678Y-89886888D01*
X122489506Y-89787304D01*
X122434357Y-89620877D01*
X122342316Y-89471654D01*
X122218346Y-89347684D01*
X122063515Y-89252184D01*
X122016791Y-89200236D01*
X122005568Y-89131273D01*
X122033412Y-89067191D01*
X122040909Y-89058986D01*
X122188495Y-88911401D01*
X122324035Y-88717830D01*
X122423903Y-88503663D01*
X122485063Y-88275408D01*
X122505659Y-88040000D01*
X122485063Y-87804592D01*
X122423903Y-87576337D01*
X122324035Y-87362171D01*
X122188495Y-87168599D01*
X122021401Y-87001505D01*
X121827829Y-86865965D01*
X121613663Y-86766097D01*
X121385407Y-86704936D01*
X121211667Y-86689736D01*
X121211659Y-86689735D01*
X121208966Y-86689500D01*
X120791034Y-86689500D01*
X120788341Y-86689735D01*
X120788332Y-86689736D01*
X120614592Y-86704936D01*
X120386336Y-86766097D01*
X120172170Y-86865965D01*
X119978598Y-87001505D01*
X119811508Y-87168595D01*
X119811505Y-87168598D01*
X119811505Y-87168599D01*
X119684493Y-87349992D01*
X119675964Y-87362172D01*
X119576097Y-87576337D01*
X119514936Y-87804592D01*
X119494340Y-88040000D01*
X105500500Y-88040000D01*
X105500499Y-87349992D01*
X105489999Y-87247203D01*
X105434814Y-87080666D01*
X105342712Y-86931344D01*
X105342711Y-86931342D01*
X105218657Y-86807288D01*
X105069334Y-86715186D01*
X104902797Y-86660000D01*
X104803141Y-86649819D01*
X104803122Y-86649818D01*
X104800009Y-86649500D01*
X104796860Y-86649500D01*
X103203140Y-86649500D01*
X103203120Y-86649500D01*
X103199992Y-86649501D01*
X103196860Y-86649820D01*
X103196858Y-86649821D01*
X103097203Y-86660000D01*
X102930665Y-86715186D01*
X102781342Y-86807288D01*
X102657288Y-86931342D01*
X102565186Y-87080665D01*
X102510000Y-87247202D01*
X102499819Y-87346858D01*
X102499817Y-87346878D01*
X102499500Y-87349991D01*
X102499500Y-87353138D01*
X102499500Y-87353139D01*
X102499500Y-88646859D01*
X102499500Y-88646878D01*
X100300500Y-88646878D01*
X100300500Y-57346529D01*
X107155000Y-57346529D01*
X107155298Y-57352613D01*
X107169829Y-57500150D01*
X107228442Y-57693369D01*
X107323620Y-57871433D01*
X107451707Y-58027510D01*
X107607784Y-58155597D01*
X107785850Y-58250776D01*
X107929998Y-58294503D01*
X107929999Y-58294503D01*
X107929999Y-57490328D01*
X107954457Y-57529828D01*
X108043962Y-57597419D01*
X108151840Y-57628113D01*
X108263521Y-57617764D01*
X108363922Y-57567770D01*
X108430000Y-57495287D01*
X108430000Y-58294503D01*
X108574150Y-58250776D01*
X108752215Y-58155597D01*
X108908292Y-58027510D01*
X109036379Y-57871433D01*
X109131557Y-57693369D01*
X109190170Y-57500150D01*
X109204701Y-57352613D01*
X109205000Y-57346529D01*
X109205000Y-56975030D01*
X109224685Y-56907991D01*
X109277489Y-56862236D01*
X109346647Y-56852292D01*
X109362463Y-56857583D01*
X109362736Y-56856520D01*
X109530980Y-56899718D01*
X109530981Y-56899718D01*
X109645455Y-56899718D01*
X109649350Y-56899718D01*
X109766792Y-56884882D01*
X109913732Y-56826704D01*
X110041587Y-56733812D01*
X110142324Y-56612041D01*
X110209614Y-56469044D01*
X110239227Y-56313806D01*
X110234246Y-56234632D01*
X114760772Y-56234632D01*
X114770695Y-56392353D01*
X114813540Y-56524217D01*
X114819533Y-56542659D01*
X114863565Y-56612043D01*
X114904215Y-56676096D01*
X115019418Y-56784280D01*
X115157908Y-56860415D01*
X115310980Y-56899718D01*
X115310981Y-56899718D01*
X115425455Y-56899718D01*
X115429350Y-56899718D01*
X115546792Y-56884882D01*
X115603989Y-56862236D01*
X115625352Y-56853778D01*
X115694930Y-56847401D01*
X115756911Y-56879653D01*
X115791615Y-56940295D01*
X115795000Y-56969070D01*
X115795000Y-57346529D01*
X115795298Y-57352613D01*
X115809829Y-57500150D01*
X115868442Y-57693369D01*
X115963620Y-57871433D01*
X116091707Y-58027510D01*
X116247784Y-58155597D01*
X116425850Y-58250776D01*
X116569998Y-58294503D01*
X116569999Y-58294503D01*
X116569999Y-57490328D01*
X116594457Y-57529828D01*
X116683962Y-57597419D01*
X116791840Y-57628113D01*
X116903521Y-57617764D01*
X117003922Y-57567770D01*
X117070000Y-57495287D01*
X117070000Y-58294503D01*
X117214150Y-58250776D01*
X117392215Y-58155597D01*
X117548292Y-58027510D01*
X117676379Y-57871433D01*
X117771557Y-57693369D01*
X117830170Y-57500150D01*
X117844701Y-57352613D01*
X117845000Y-57346529D01*
X117845000Y-57024218D01*
X117120000Y-57024218D01*
X117120000Y-56524218D01*
X117845000Y-56524218D01*
X117844999Y-56524217D01*
X117845000Y-56201906D01*
X117844701Y-56195822D01*
X117830170Y-56048285D01*
X117771557Y-55855066D01*
X117676379Y-55677002D01*
X117548292Y-55520925D01*
X117392215Y-55392838D01*
X117214146Y-55297658D01*
X117070000Y-55253930D01*
X117070000Y-56058107D01*
X117045543Y-56018608D01*
X116956038Y-55951017D01*
X116848160Y-55920323D01*
X116736479Y-55930672D01*
X116636078Y-55980666D01*
X116569999Y-56053149D01*
X116569999Y-55253930D01*
X116425853Y-55297657D01*
X116247784Y-55392838D01*
X116091707Y-55520925D01*
X115963618Y-55677004D01*
X115940647Y-55719980D01*
X115891684Y-55769824D01*
X115823546Y-55785283D01*
X115771553Y-55770187D01*
X115622092Y-55688020D01*
X115469020Y-55648718D01*
X115469019Y-55648718D01*
X115350650Y-55648718D01*
X115346790Y-55649205D01*
X115346783Y-55649206D01*
X115233208Y-55663553D01*
X115086267Y-55721731D01*
X114958413Y-55814623D01*
X114857677Y-55936392D01*
X114790386Y-56079392D01*
X114760772Y-56234632D01*
X110234246Y-56234632D01*
X110229304Y-56156080D01*
X110180467Y-56005777D01*
X110095786Y-55872341D01*
X109980582Y-55764156D01*
X109980581Y-55764155D01*
X109842091Y-55688020D01*
X109689020Y-55648718D01*
X109689019Y-55648718D01*
X109570650Y-55648718D01*
X109566790Y-55649205D01*
X109566783Y-55649206D01*
X109453208Y-55663553D01*
X109306270Y-55721730D01*
X109244241Y-55766797D01*
X109178434Y-55790276D01*
X109110380Y-55774450D01*
X109061998Y-55724931D01*
X109036380Y-55677003D01*
X108908292Y-55520925D01*
X108752215Y-55392838D01*
X108574146Y-55297658D01*
X108430000Y-55253930D01*
X108430000Y-56058107D01*
X108405543Y-56018608D01*
X108316038Y-55951017D01*
X108208160Y-55920323D01*
X108096479Y-55930672D01*
X107996078Y-55980666D01*
X107929998Y-56053149D01*
X107929999Y-55253930D01*
X107785853Y-55297657D01*
X107607784Y-55392838D01*
X107451707Y-55520925D01*
X107323620Y-55677002D01*
X107228442Y-55855066D01*
X107169829Y-56048285D01*
X107155298Y-56195822D01*
X107155000Y-56201906D01*
X107155000Y-56524218D01*
X107880000Y-56524218D01*
X107880000Y-57024218D01*
X107155000Y-57024218D01*
X107155000Y-57346529D01*
X100300500Y-57346529D01*
X100300500Y-55208687D01*
X100320185Y-55141648D01*
X100372989Y-55095893D01*
X100442147Y-55085949D01*
X100505703Y-55114974D01*
X100527129Y-55139095D01*
X100568635Y-55200311D01*
X100800332Y-55473086D01*
X100802763Y-55475389D01*
X100802769Y-55475395D01*
X100850835Y-55520925D01*
X101060163Y-55719211D01*
X101345081Y-55935800D01*
X101651747Y-56120315D01*
X101976565Y-56270591D01*
X102315726Y-56384868D01*
X102665254Y-56461805D01*
X103021052Y-56500500D01*
X103024410Y-56500500D01*
X103375590Y-56500500D01*
X103378948Y-56500500D01*
X103734746Y-56461805D01*
X104084274Y-56384868D01*
X104423435Y-56270591D01*
X104748253Y-56120315D01*
X105054919Y-55935800D01*
X105339837Y-55719211D01*
X105599668Y-55473086D01*
X105831365Y-55200311D01*
X106032211Y-54904085D01*
X106199853Y-54587880D01*
X106332324Y-54255403D01*
X106428071Y-53910552D01*
X106485972Y-53557371D01*
X106505348Y-53200000D01*
X106502192Y-53141788D01*
X107180000Y-53141788D01*
X107180317Y-53148053D01*
X107195419Y-53296557D01*
X107256303Y-53490607D01*
X107355003Y-53668432D01*
X107487479Y-53822749D01*
X107648307Y-53947239D01*
X107830902Y-54036805D01*
X107930000Y-54062462D01*
X107930000Y-53160328D01*
X107954457Y-53199828D01*
X108043962Y-53267419D01*
X108151840Y-53298113D01*
X108263521Y-53287764D01*
X108363922Y-53237770D01*
X108429999Y-53165288D01*
X108429999Y-54067583D01*
X108431949Y-54067285D01*
X108622663Y-53996654D01*
X108795263Y-53889072D01*
X108942669Y-53748951D01*
X109058855Y-53582023D01*
X109139059Y-53395125D01*
X109180000Y-53195906D01*
X109180000Y-53141788D01*
X115820000Y-53141788D01*
X115820317Y-53148053D01*
X115835419Y-53296557D01*
X115896303Y-53490607D01*
X115995003Y-53668432D01*
X116127479Y-53822749D01*
X116288307Y-53947239D01*
X116470902Y-54036805D01*
X116570000Y-54062462D01*
X116570000Y-53160328D01*
X116594457Y-53199828D01*
X116683962Y-53267419D01*
X116791840Y-53298113D01*
X116903521Y-53287764D01*
X117003922Y-53237770D01*
X117069999Y-53165288D01*
X117069999Y-54067583D01*
X117071949Y-54067285D01*
X117262663Y-53996654D01*
X117435263Y-53889072D01*
X117582669Y-53748951D01*
X117698855Y-53582023D01*
X117779059Y-53395125D01*
X117820000Y-53195906D01*
X117820000Y-52844218D01*
X117120000Y-52844218D01*
X117120000Y-52344218D01*
X117820000Y-52344218D01*
X117820000Y-52046647D01*
X117819682Y-52040382D01*
X117804580Y-51891878D01*
X117743696Y-51697828D01*
X117644996Y-51520003D01*
X117512520Y-51365686D01*
X117351692Y-51241196D01*
X117169094Y-51151628D01*
X117070000Y-51125971D01*
X117070000Y-52028107D01*
X117045543Y-51988608D01*
X116956038Y-51921017D01*
X116848160Y-51890323D01*
X116736479Y-51900672D01*
X116636078Y-51950666D01*
X116570000Y-52023148D01*
X116570000Y-51120851D01*
X116568051Y-51121150D01*
X116377336Y-51191782D01*
X116204736Y-51299363D01*
X116057330Y-51439484D01*
X115941144Y-51606412D01*
X115860940Y-51793310D01*
X115820000Y-51992529D01*
X115820000Y-52344218D01*
X116520000Y-52344218D01*
X116520000Y-52844218D01*
X115820000Y-52844218D01*
X115820000Y-53141788D01*
X109180000Y-53141788D01*
X109180000Y-52844218D01*
X108480000Y-52844218D01*
X108480000Y-52344218D01*
X109180000Y-52344218D01*
X109180000Y-52046647D01*
X109179682Y-52040382D01*
X109164580Y-51891878D01*
X109103696Y-51697828D01*
X109004996Y-51520003D01*
X108872520Y-51365686D01*
X108711692Y-51241196D01*
X108529094Y-51151628D01*
X108430000Y-51125971D01*
X108430000Y-52028107D01*
X108405543Y-51988608D01*
X108316038Y-51921017D01*
X108208160Y-51890323D01*
X108096479Y-51900672D01*
X107996078Y-51950666D01*
X107929999Y-52023148D01*
X107930000Y-51120851D01*
X107928051Y-51121150D01*
X107737336Y-51191782D01*
X107564736Y-51299363D01*
X107417330Y-51439484D01*
X107301144Y-51606412D01*
X107220940Y-51793310D01*
X107180000Y-51992529D01*
X107180000Y-52344218D01*
X107880000Y-52344218D01*
X107880000Y-52844218D01*
X107180000Y-52844218D01*
X107180000Y-53141788D01*
X106502192Y-53141788D01*
X106485972Y-52842629D01*
X106428071Y-52489448D01*
X106332324Y-52144597D01*
X106199853Y-51812120D01*
X106032211Y-51495915D01*
X105831365Y-51199689D01*
X105599668Y-50926914D01*
X105597235Y-50924609D01*
X105597230Y-50924604D01*
X105342267Y-50683091D01*
X105339837Y-50680789D01*
X105132552Y-50523215D01*
X105091096Y-50466974D01*
X105086627Y-50397248D01*
X105120564Y-50336174D01*
X105182132Y-50303142D01*
X105207595Y-50300500D01*
X119792405Y-50300500D01*
X119859444Y-50320185D01*
G37*
%TD.AperFunction*%
%TD*%
D17*
X103200000Y-96800000D03*
X121800000Y-96800000D03*
X103200000Y-53200000D03*
X121800000Y-53200000D03*
X121000000Y-90540000D03*
X121000000Y-88040000D03*
X104000000Y-90500000D03*
X104000000Y-88000000D03*
X115390000Y-56274218D03*
X109610000Y-56274218D03*
D18*
X116820000Y-56774218D03*
D19*
X116820000Y-52594218D03*
X108180000Y-52594218D03*
D18*
X108180000Y-56774218D03*
M02*
