%TF.GenerationSoftware,KiCad,Pcbnew,7.0.2*%
%TF.CreationDate,2023-08-12T21:53:35+01:00*%
%TF.ProjectId,lil-flite,6c696c2d-666c-4697-9465-2e6b69636164,rev?*%
%TF.SameCoordinates,Original*%
%TF.FileFunction,Soldermask,Top*%
%TF.FilePolarity,Negative*%
%FSLAX46Y46*%
G04 Gerber Fmt 4.6, Leading zero omitted, Abs format (unit mm)*
G04 Created by KiCad (PCBNEW 7.0.2) date 2023-08-12 21:53:35*
%MOMM*%
%LPD*%
G01*
G04 APERTURE LIST*
G04 Aperture macros list*
%AMRoundRect*
0 Rectangle with rounded corners*
0 $1 Rounding radius*
0 $2 $3 $4 $5 $6 $7 $8 $9 X,Y pos of 4 corners*
0 Add a 4 corners polygon primitive as box body*
4,1,4,$2,$3,$4,$5,$6,$7,$8,$9,$2,$3,0*
0 Add four circle primitives for the rounded corners*
1,1,$1+$1,$2,$3*
1,1,$1+$1,$4,$5*
1,1,$1+$1,$6,$7*
1,1,$1+$1,$8,$9*
0 Add four rect primitives between the rounded corners*
20,1,$1+$1,$2,$3,$4,$5,0*
20,1,$1+$1,$4,$5,$6,$7,0*
20,1,$1+$1,$6,$7,$8,$9,0*
20,1,$1+$1,$8,$9,$2,$3,0*%
G04 Aperture macros list end*
%ADD10C,0.010000*%
%ADD11C,3.676000*%
%ADD12C,5.676000*%
%ADD13RoundRect,0.038000X0.150000X0.737500X-0.150000X0.737500X-0.150000X-0.737500X0.150000X-0.737500X0*%
%ADD14RoundRect,0.038000X0.737500X-0.150000X0.737500X0.150000X-0.737500X0.150000X-0.737500X-0.150000X0*%
%ADD15RoundRect,0.038000X0.175000X-0.250000X0.175000X0.250000X-0.175000X0.250000X-0.175000X-0.250000X0*%
%ADD16RoundRect,0.038000X0.300000X0.450000X-0.300000X0.450000X-0.300000X-0.450000X0.300000X-0.450000X0*%
%ADD17RoundRect,0.288000X0.750000X-0.600000X0.750000X0.600000X-0.750000X0.600000X-0.750000X-0.600000X0*%
%ADD18O,2.076000X1.776000*%
%ADD19RoundRect,0.288000X-0.750000X0.600000X-0.750000X-0.600000X0.750000X-0.600000X0.750000X0.600000X0*%
%ADD20C,0.650000*%
%ADD21RoundRect,0.038000X0.300000X0.575000X-0.300000X0.575000X-0.300000X-0.575000X0.300000X-0.575000X0*%
%ADD22RoundRect,0.038000X0.150000X0.575000X-0.150000X0.575000X-0.150000X-0.575000X0.150000X-0.575000X0*%
%ADD23O,1.126000X2.176000*%
%ADD24O,1.076000X2.076000*%
%ADD25RoundRect,0.275500X-0.287500X-0.237500X0.287500X-0.237500X0.287500X0.237500X-0.287500X0.237500X0*%
%ADD26RoundRect,0.275500X0.237500X-0.300000X0.237500X0.300000X-0.237500X0.300000X-0.237500X-0.300000X0*%
%ADD27RoundRect,0.275500X-0.237500X0.300000X-0.237500X-0.300000X0.237500X-0.300000X0.237500X0.300000X0*%
%ADD28RoundRect,0.275500X-0.300000X-0.237500X0.300000X-0.237500X0.300000X0.237500X-0.300000X0.237500X0*%
%ADD29RoundRect,0.275500X0.300000X0.237500X-0.300000X0.237500X-0.300000X-0.237500X0.300000X-0.237500X0*%
G04 APERTURE END LIST*
%TO.C,U302*%
D10*
X116653000Y-61980000D02*
X116658000Y-61980000D01*
X116664000Y-61982000D01*
X116669000Y-61983000D01*
X116675000Y-61985000D01*
X116680000Y-61987000D01*
X116685000Y-61989000D01*
X116690000Y-61991000D01*
X116695000Y-61994000D01*
X116700000Y-61997000D01*
X116704000Y-62000000D01*
X116709000Y-62004000D01*
X116713000Y-62008000D01*
X116717000Y-62012000D01*
X116721000Y-62016000D01*
X116724000Y-62020000D01*
X116728000Y-62025000D01*
X116731000Y-62029000D01*
X116734000Y-62034000D01*
X116736000Y-62039000D01*
X116739000Y-62044000D01*
X116741000Y-62050000D01*
X116743000Y-62055000D01*
X116744000Y-62060000D01*
X116745000Y-62066000D01*
X116746000Y-62072000D01*
X116747000Y-62077000D01*
X116747000Y-62083000D01*
X116747000Y-62088000D01*
X116747000Y-62094000D01*
X116747000Y-62314000D01*
X116747000Y-62320000D01*
X116747000Y-62325000D01*
X116747000Y-62331000D01*
X116746000Y-62336000D01*
X116745000Y-62342000D01*
X116744000Y-62348000D01*
X116743000Y-62353000D01*
X116741000Y-62358000D01*
X116739000Y-62364000D01*
X116736000Y-62369000D01*
X116734000Y-62374000D01*
X116731000Y-62379000D01*
X116728000Y-62383000D01*
X116724000Y-62388000D01*
X116721000Y-62392000D01*
X116717000Y-62396000D01*
X116713000Y-62400000D01*
X116709000Y-62404000D01*
X116704000Y-62408000D01*
X116700000Y-62411000D01*
X116695000Y-62414000D01*
X116690000Y-62417000D01*
X116685000Y-62419000D01*
X116680000Y-62421000D01*
X116675000Y-62423000D01*
X116669000Y-62425000D01*
X116664000Y-62426000D01*
X116658000Y-62428000D01*
X116653000Y-62428000D01*
X116647000Y-62429000D01*
X116347000Y-62429000D01*
X116341000Y-62428000D01*
X116336000Y-62428000D01*
X116330000Y-62426000D01*
X116325000Y-62425000D01*
X116319000Y-62423000D01*
X116314000Y-62421000D01*
X116309000Y-62419000D01*
X116304000Y-62417000D01*
X116299000Y-62414000D01*
X116294000Y-62411000D01*
X116290000Y-62408000D01*
X116285000Y-62404000D01*
X116281000Y-62400000D01*
X116277000Y-62396000D01*
X116273000Y-62392000D01*
X116270000Y-62388000D01*
X116266000Y-62383000D01*
X116263000Y-62379000D01*
X116260000Y-62374000D01*
X116258000Y-62369000D01*
X116255000Y-62364000D01*
X116253000Y-62358000D01*
X116251000Y-62353000D01*
X116250000Y-62348000D01*
X116249000Y-62342000D01*
X116248000Y-62336000D01*
X116247000Y-62331000D01*
X116247000Y-62325000D01*
X116247000Y-62320000D01*
X116247000Y-62314000D01*
X116247000Y-62094000D01*
X116247000Y-62088000D01*
X116247000Y-62083000D01*
X116247000Y-62077000D01*
X116248000Y-62072000D01*
X116249000Y-62066000D01*
X116250000Y-62060000D01*
X116251000Y-62055000D01*
X116253000Y-62050000D01*
X116255000Y-62044000D01*
X116258000Y-62039000D01*
X116260000Y-62034000D01*
X116263000Y-62029000D01*
X116266000Y-62025000D01*
X116270000Y-62020000D01*
X116273000Y-62016000D01*
X116277000Y-62012000D01*
X116281000Y-62008000D01*
X116285000Y-62004000D01*
X116290000Y-62000000D01*
X116294000Y-61997000D01*
X116299000Y-61994000D01*
X116304000Y-61991000D01*
X116309000Y-61989000D01*
X116314000Y-61987000D01*
X116319000Y-61985000D01*
X116325000Y-61983000D01*
X116330000Y-61982000D01*
X116336000Y-61980000D01*
X116341000Y-61980000D01*
X116347000Y-61979000D01*
X116647000Y-61979000D01*
X116653000Y-61980000D01*
G36*
X116653000Y-61980000D02*
G01*
X116658000Y-61980000D01*
X116664000Y-61982000D01*
X116669000Y-61983000D01*
X116675000Y-61985000D01*
X116680000Y-61987000D01*
X116685000Y-61989000D01*
X116690000Y-61991000D01*
X116695000Y-61994000D01*
X116700000Y-61997000D01*
X116704000Y-62000000D01*
X116709000Y-62004000D01*
X116713000Y-62008000D01*
X116717000Y-62012000D01*
X116721000Y-62016000D01*
X116724000Y-62020000D01*
X116728000Y-62025000D01*
X116731000Y-62029000D01*
X116734000Y-62034000D01*
X116736000Y-62039000D01*
X116739000Y-62044000D01*
X116741000Y-62050000D01*
X116743000Y-62055000D01*
X116744000Y-62060000D01*
X116745000Y-62066000D01*
X116746000Y-62072000D01*
X116747000Y-62077000D01*
X116747000Y-62083000D01*
X116747000Y-62088000D01*
X116747000Y-62094000D01*
X116747000Y-62314000D01*
X116747000Y-62320000D01*
X116747000Y-62325000D01*
X116747000Y-62331000D01*
X116746000Y-62336000D01*
X116745000Y-62342000D01*
X116744000Y-62348000D01*
X116743000Y-62353000D01*
X116741000Y-62358000D01*
X116739000Y-62364000D01*
X116736000Y-62369000D01*
X116734000Y-62374000D01*
X116731000Y-62379000D01*
X116728000Y-62383000D01*
X116724000Y-62388000D01*
X116721000Y-62392000D01*
X116717000Y-62396000D01*
X116713000Y-62400000D01*
X116709000Y-62404000D01*
X116704000Y-62408000D01*
X116700000Y-62411000D01*
X116695000Y-62414000D01*
X116690000Y-62417000D01*
X116685000Y-62419000D01*
X116680000Y-62421000D01*
X116675000Y-62423000D01*
X116669000Y-62425000D01*
X116664000Y-62426000D01*
X116658000Y-62428000D01*
X116653000Y-62428000D01*
X116647000Y-62429000D01*
X116347000Y-62429000D01*
X116341000Y-62428000D01*
X116336000Y-62428000D01*
X116330000Y-62426000D01*
X116325000Y-62425000D01*
X116319000Y-62423000D01*
X116314000Y-62421000D01*
X116309000Y-62419000D01*
X116304000Y-62417000D01*
X116299000Y-62414000D01*
X116294000Y-62411000D01*
X116290000Y-62408000D01*
X116285000Y-62404000D01*
X116281000Y-62400000D01*
X116277000Y-62396000D01*
X116273000Y-62392000D01*
X116270000Y-62388000D01*
X116266000Y-62383000D01*
X116263000Y-62379000D01*
X116260000Y-62374000D01*
X116258000Y-62369000D01*
X116255000Y-62364000D01*
X116253000Y-62358000D01*
X116251000Y-62353000D01*
X116250000Y-62348000D01*
X116249000Y-62342000D01*
X116248000Y-62336000D01*
X116247000Y-62331000D01*
X116247000Y-62325000D01*
X116247000Y-62320000D01*
X116247000Y-62314000D01*
X116247000Y-62094000D01*
X116247000Y-62088000D01*
X116247000Y-62083000D01*
X116247000Y-62077000D01*
X116248000Y-62072000D01*
X116249000Y-62066000D01*
X116250000Y-62060000D01*
X116251000Y-62055000D01*
X116253000Y-62050000D01*
X116255000Y-62044000D01*
X116258000Y-62039000D01*
X116260000Y-62034000D01*
X116263000Y-62029000D01*
X116266000Y-62025000D01*
X116270000Y-62020000D01*
X116273000Y-62016000D01*
X116277000Y-62012000D01*
X116281000Y-62008000D01*
X116285000Y-62004000D01*
X116290000Y-62000000D01*
X116294000Y-61997000D01*
X116299000Y-61994000D01*
X116304000Y-61991000D01*
X116309000Y-61989000D01*
X116314000Y-61987000D01*
X116319000Y-61985000D01*
X116325000Y-61983000D01*
X116330000Y-61982000D01*
X116336000Y-61980000D01*
X116341000Y-61980000D01*
X116347000Y-61979000D01*
X116647000Y-61979000D01*
X116653000Y-61980000D01*
G37*
X116653000Y-63480000D02*
X116658000Y-63480000D01*
X116664000Y-63482000D01*
X116669000Y-63483000D01*
X116675000Y-63485000D01*
X116680000Y-63487000D01*
X116685000Y-63489000D01*
X116690000Y-63491000D01*
X116695000Y-63494000D01*
X116700000Y-63497000D01*
X116704000Y-63500000D01*
X116709000Y-63504000D01*
X116713000Y-63508000D01*
X116717000Y-63512000D01*
X116721000Y-63516000D01*
X116724000Y-63520000D01*
X116728000Y-63525000D01*
X116731000Y-63529000D01*
X116734000Y-63534000D01*
X116736000Y-63539000D01*
X116739000Y-63544000D01*
X116741000Y-63550000D01*
X116743000Y-63555000D01*
X116744000Y-63560000D01*
X116745000Y-63566000D01*
X116746000Y-63572000D01*
X116747000Y-63577000D01*
X116747000Y-63583000D01*
X116747000Y-63588000D01*
X116747000Y-63594000D01*
X116747000Y-63814000D01*
X116747000Y-63820000D01*
X116747000Y-63825000D01*
X116747000Y-63831000D01*
X116746000Y-63836000D01*
X116745000Y-63842000D01*
X116744000Y-63848000D01*
X116743000Y-63853000D01*
X116741000Y-63858000D01*
X116739000Y-63864000D01*
X116736000Y-63869000D01*
X116734000Y-63874000D01*
X116731000Y-63879000D01*
X116728000Y-63883000D01*
X116724000Y-63888000D01*
X116721000Y-63892000D01*
X116717000Y-63896000D01*
X116713000Y-63900000D01*
X116709000Y-63904000D01*
X116704000Y-63908000D01*
X116700000Y-63911000D01*
X116695000Y-63914000D01*
X116690000Y-63917000D01*
X116685000Y-63919000D01*
X116680000Y-63921000D01*
X116675000Y-63923000D01*
X116669000Y-63925000D01*
X116664000Y-63926000D01*
X116658000Y-63928000D01*
X116653000Y-63928000D01*
X116647000Y-63929000D01*
X116347000Y-63929000D01*
X116341000Y-63928000D01*
X116336000Y-63928000D01*
X116330000Y-63926000D01*
X116325000Y-63925000D01*
X116319000Y-63923000D01*
X116314000Y-63921000D01*
X116309000Y-63919000D01*
X116304000Y-63917000D01*
X116299000Y-63914000D01*
X116294000Y-63911000D01*
X116290000Y-63908000D01*
X116285000Y-63904000D01*
X116281000Y-63900000D01*
X116277000Y-63896000D01*
X116273000Y-63892000D01*
X116270000Y-63888000D01*
X116266000Y-63883000D01*
X116263000Y-63879000D01*
X116260000Y-63874000D01*
X116258000Y-63869000D01*
X116255000Y-63864000D01*
X116253000Y-63858000D01*
X116251000Y-63853000D01*
X116250000Y-63848000D01*
X116249000Y-63842000D01*
X116248000Y-63836000D01*
X116247000Y-63831000D01*
X116247000Y-63825000D01*
X116247000Y-63820000D01*
X116247000Y-63814000D01*
X116247000Y-63594000D01*
X116247000Y-63588000D01*
X116247000Y-63583000D01*
X116247000Y-63577000D01*
X116248000Y-63572000D01*
X116249000Y-63566000D01*
X116250000Y-63560000D01*
X116251000Y-63555000D01*
X116253000Y-63550000D01*
X116255000Y-63544000D01*
X116258000Y-63539000D01*
X116260000Y-63534000D01*
X116263000Y-63529000D01*
X116266000Y-63525000D01*
X116270000Y-63520000D01*
X116273000Y-63516000D01*
X116277000Y-63512000D01*
X116281000Y-63508000D01*
X116285000Y-63504000D01*
X116290000Y-63500000D01*
X116294000Y-63497000D01*
X116299000Y-63494000D01*
X116304000Y-63491000D01*
X116309000Y-63489000D01*
X116314000Y-63487000D01*
X116319000Y-63485000D01*
X116325000Y-63483000D01*
X116330000Y-63482000D01*
X116336000Y-63480000D01*
X116341000Y-63480000D01*
X116347000Y-63479000D01*
X116647000Y-63479000D01*
X116653000Y-63480000D01*
G36*
X116653000Y-63480000D02*
G01*
X116658000Y-63480000D01*
X116664000Y-63482000D01*
X116669000Y-63483000D01*
X116675000Y-63485000D01*
X116680000Y-63487000D01*
X116685000Y-63489000D01*
X116690000Y-63491000D01*
X116695000Y-63494000D01*
X116700000Y-63497000D01*
X116704000Y-63500000D01*
X116709000Y-63504000D01*
X116713000Y-63508000D01*
X116717000Y-63512000D01*
X116721000Y-63516000D01*
X116724000Y-63520000D01*
X116728000Y-63525000D01*
X116731000Y-63529000D01*
X116734000Y-63534000D01*
X116736000Y-63539000D01*
X116739000Y-63544000D01*
X116741000Y-63550000D01*
X116743000Y-63555000D01*
X116744000Y-63560000D01*
X116745000Y-63566000D01*
X116746000Y-63572000D01*
X116747000Y-63577000D01*
X116747000Y-63583000D01*
X116747000Y-63588000D01*
X116747000Y-63594000D01*
X116747000Y-63814000D01*
X116747000Y-63820000D01*
X116747000Y-63825000D01*
X116747000Y-63831000D01*
X116746000Y-63836000D01*
X116745000Y-63842000D01*
X116744000Y-63848000D01*
X116743000Y-63853000D01*
X116741000Y-63858000D01*
X116739000Y-63864000D01*
X116736000Y-63869000D01*
X116734000Y-63874000D01*
X116731000Y-63879000D01*
X116728000Y-63883000D01*
X116724000Y-63888000D01*
X116721000Y-63892000D01*
X116717000Y-63896000D01*
X116713000Y-63900000D01*
X116709000Y-63904000D01*
X116704000Y-63908000D01*
X116700000Y-63911000D01*
X116695000Y-63914000D01*
X116690000Y-63917000D01*
X116685000Y-63919000D01*
X116680000Y-63921000D01*
X116675000Y-63923000D01*
X116669000Y-63925000D01*
X116664000Y-63926000D01*
X116658000Y-63928000D01*
X116653000Y-63928000D01*
X116647000Y-63929000D01*
X116347000Y-63929000D01*
X116341000Y-63928000D01*
X116336000Y-63928000D01*
X116330000Y-63926000D01*
X116325000Y-63925000D01*
X116319000Y-63923000D01*
X116314000Y-63921000D01*
X116309000Y-63919000D01*
X116304000Y-63917000D01*
X116299000Y-63914000D01*
X116294000Y-63911000D01*
X116290000Y-63908000D01*
X116285000Y-63904000D01*
X116281000Y-63900000D01*
X116277000Y-63896000D01*
X116273000Y-63892000D01*
X116270000Y-63888000D01*
X116266000Y-63883000D01*
X116263000Y-63879000D01*
X116260000Y-63874000D01*
X116258000Y-63869000D01*
X116255000Y-63864000D01*
X116253000Y-63858000D01*
X116251000Y-63853000D01*
X116250000Y-63848000D01*
X116249000Y-63842000D01*
X116248000Y-63836000D01*
X116247000Y-63831000D01*
X116247000Y-63825000D01*
X116247000Y-63820000D01*
X116247000Y-63814000D01*
X116247000Y-63594000D01*
X116247000Y-63588000D01*
X116247000Y-63583000D01*
X116247000Y-63577000D01*
X116248000Y-63572000D01*
X116249000Y-63566000D01*
X116250000Y-63560000D01*
X116251000Y-63555000D01*
X116253000Y-63550000D01*
X116255000Y-63544000D01*
X116258000Y-63539000D01*
X116260000Y-63534000D01*
X116263000Y-63529000D01*
X116266000Y-63525000D01*
X116270000Y-63520000D01*
X116273000Y-63516000D01*
X116277000Y-63512000D01*
X116281000Y-63508000D01*
X116285000Y-63504000D01*
X116290000Y-63500000D01*
X116294000Y-63497000D01*
X116299000Y-63494000D01*
X116304000Y-63491000D01*
X116309000Y-63489000D01*
X116314000Y-63487000D01*
X116319000Y-63485000D01*
X116325000Y-63483000D01*
X116330000Y-63482000D01*
X116336000Y-63480000D01*
X116341000Y-63480000D01*
X116347000Y-63479000D01*
X116647000Y-63479000D01*
X116653000Y-63480000D01*
G37*
X116663000Y-62480000D02*
X116668000Y-62480000D01*
X116674000Y-62482000D01*
X116679000Y-62483000D01*
X116685000Y-62485000D01*
X116690000Y-62487000D01*
X116695000Y-62489000D01*
X116700000Y-62491000D01*
X116705000Y-62494000D01*
X116710000Y-62497000D01*
X116714000Y-62500000D01*
X116719000Y-62504000D01*
X116723000Y-62508000D01*
X116727000Y-62512000D01*
X116731000Y-62516000D01*
X116734000Y-62520000D01*
X116738000Y-62525000D01*
X116741000Y-62529000D01*
X116744000Y-62534000D01*
X116746000Y-62539000D01*
X116749000Y-62544000D01*
X116751000Y-62550000D01*
X116753000Y-62555000D01*
X116754000Y-62560000D01*
X116755000Y-62566000D01*
X116756000Y-62572000D01*
X116757000Y-62577000D01*
X116757000Y-62583000D01*
X116757000Y-62588000D01*
X116757000Y-62594000D01*
X116757000Y-62814000D01*
X116757000Y-62820000D01*
X116757000Y-62825000D01*
X116757000Y-62831000D01*
X116756000Y-62836000D01*
X116755000Y-62842000D01*
X116754000Y-62848000D01*
X116753000Y-62853000D01*
X116751000Y-62858000D01*
X116749000Y-62864000D01*
X116746000Y-62869000D01*
X116744000Y-62874000D01*
X116741000Y-62879000D01*
X116738000Y-62883000D01*
X116734000Y-62888000D01*
X116731000Y-62892000D01*
X116727000Y-62896000D01*
X116723000Y-62900000D01*
X116719000Y-62904000D01*
X116714000Y-62908000D01*
X116710000Y-62911000D01*
X116705000Y-62914000D01*
X116700000Y-62917000D01*
X116695000Y-62919000D01*
X116690000Y-62921000D01*
X116685000Y-62923000D01*
X116679000Y-62925000D01*
X116674000Y-62926000D01*
X116668000Y-62928000D01*
X116663000Y-62928000D01*
X116657000Y-62929000D01*
X116357000Y-62929000D01*
X116351000Y-62928000D01*
X116346000Y-62928000D01*
X116340000Y-62926000D01*
X116335000Y-62925000D01*
X116329000Y-62923000D01*
X116324000Y-62921000D01*
X116319000Y-62919000D01*
X116314000Y-62917000D01*
X116309000Y-62914000D01*
X116304000Y-62911000D01*
X116300000Y-62908000D01*
X116295000Y-62904000D01*
X116291000Y-62900000D01*
X116287000Y-62896000D01*
X116283000Y-62892000D01*
X116280000Y-62888000D01*
X116276000Y-62883000D01*
X116273000Y-62879000D01*
X116270000Y-62874000D01*
X116268000Y-62869000D01*
X116265000Y-62864000D01*
X116263000Y-62858000D01*
X116261000Y-62853000D01*
X116260000Y-62848000D01*
X116259000Y-62842000D01*
X116258000Y-62836000D01*
X116257000Y-62831000D01*
X116257000Y-62825000D01*
X116257000Y-62820000D01*
X116257000Y-62814000D01*
X116257000Y-62594000D01*
X116257000Y-62588000D01*
X116257000Y-62583000D01*
X116257000Y-62577000D01*
X116258000Y-62572000D01*
X116259000Y-62566000D01*
X116260000Y-62560000D01*
X116261000Y-62555000D01*
X116263000Y-62550000D01*
X116265000Y-62544000D01*
X116268000Y-62539000D01*
X116270000Y-62534000D01*
X116273000Y-62529000D01*
X116276000Y-62525000D01*
X116280000Y-62520000D01*
X116283000Y-62516000D01*
X116287000Y-62512000D01*
X116291000Y-62508000D01*
X116295000Y-62504000D01*
X116300000Y-62500000D01*
X116304000Y-62497000D01*
X116309000Y-62494000D01*
X116314000Y-62491000D01*
X116319000Y-62489000D01*
X116324000Y-62487000D01*
X116329000Y-62485000D01*
X116335000Y-62483000D01*
X116340000Y-62482000D01*
X116346000Y-62480000D01*
X116351000Y-62480000D01*
X116357000Y-62479000D01*
X116657000Y-62479000D01*
X116663000Y-62480000D01*
G36*
X116663000Y-62480000D02*
G01*
X116668000Y-62480000D01*
X116674000Y-62482000D01*
X116679000Y-62483000D01*
X116685000Y-62485000D01*
X116690000Y-62487000D01*
X116695000Y-62489000D01*
X116700000Y-62491000D01*
X116705000Y-62494000D01*
X116710000Y-62497000D01*
X116714000Y-62500000D01*
X116719000Y-62504000D01*
X116723000Y-62508000D01*
X116727000Y-62512000D01*
X116731000Y-62516000D01*
X116734000Y-62520000D01*
X116738000Y-62525000D01*
X116741000Y-62529000D01*
X116744000Y-62534000D01*
X116746000Y-62539000D01*
X116749000Y-62544000D01*
X116751000Y-62550000D01*
X116753000Y-62555000D01*
X116754000Y-62560000D01*
X116755000Y-62566000D01*
X116756000Y-62572000D01*
X116757000Y-62577000D01*
X116757000Y-62583000D01*
X116757000Y-62588000D01*
X116757000Y-62594000D01*
X116757000Y-62814000D01*
X116757000Y-62820000D01*
X116757000Y-62825000D01*
X116757000Y-62831000D01*
X116756000Y-62836000D01*
X116755000Y-62842000D01*
X116754000Y-62848000D01*
X116753000Y-62853000D01*
X116751000Y-62858000D01*
X116749000Y-62864000D01*
X116746000Y-62869000D01*
X116744000Y-62874000D01*
X116741000Y-62879000D01*
X116738000Y-62883000D01*
X116734000Y-62888000D01*
X116731000Y-62892000D01*
X116727000Y-62896000D01*
X116723000Y-62900000D01*
X116719000Y-62904000D01*
X116714000Y-62908000D01*
X116710000Y-62911000D01*
X116705000Y-62914000D01*
X116700000Y-62917000D01*
X116695000Y-62919000D01*
X116690000Y-62921000D01*
X116685000Y-62923000D01*
X116679000Y-62925000D01*
X116674000Y-62926000D01*
X116668000Y-62928000D01*
X116663000Y-62928000D01*
X116657000Y-62929000D01*
X116357000Y-62929000D01*
X116351000Y-62928000D01*
X116346000Y-62928000D01*
X116340000Y-62926000D01*
X116335000Y-62925000D01*
X116329000Y-62923000D01*
X116324000Y-62921000D01*
X116319000Y-62919000D01*
X116314000Y-62917000D01*
X116309000Y-62914000D01*
X116304000Y-62911000D01*
X116300000Y-62908000D01*
X116295000Y-62904000D01*
X116291000Y-62900000D01*
X116287000Y-62896000D01*
X116283000Y-62892000D01*
X116280000Y-62888000D01*
X116276000Y-62883000D01*
X116273000Y-62879000D01*
X116270000Y-62874000D01*
X116268000Y-62869000D01*
X116265000Y-62864000D01*
X116263000Y-62858000D01*
X116261000Y-62853000D01*
X116260000Y-62848000D01*
X116259000Y-62842000D01*
X116258000Y-62836000D01*
X116257000Y-62831000D01*
X116257000Y-62825000D01*
X116257000Y-62820000D01*
X116257000Y-62814000D01*
X116257000Y-62594000D01*
X116257000Y-62588000D01*
X116257000Y-62583000D01*
X116257000Y-62577000D01*
X116258000Y-62572000D01*
X116259000Y-62566000D01*
X116260000Y-62560000D01*
X116261000Y-62555000D01*
X116263000Y-62550000D01*
X116265000Y-62544000D01*
X116268000Y-62539000D01*
X116270000Y-62534000D01*
X116273000Y-62529000D01*
X116276000Y-62525000D01*
X116280000Y-62520000D01*
X116283000Y-62516000D01*
X116287000Y-62512000D01*
X116291000Y-62508000D01*
X116295000Y-62504000D01*
X116300000Y-62500000D01*
X116304000Y-62497000D01*
X116309000Y-62494000D01*
X116314000Y-62491000D01*
X116319000Y-62489000D01*
X116324000Y-62487000D01*
X116329000Y-62485000D01*
X116335000Y-62483000D01*
X116340000Y-62482000D01*
X116346000Y-62480000D01*
X116351000Y-62480000D01*
X116357000Y-62479000D01*
X116657000Y-62479000D01*
X116663000Y-62480000D01*
G37*
X116663000Y-62980000D02*
X116668000Y-62980000D01*
X116674000Y-62982000D01*
X116679000Y-62983000D01*
X116685000Y-62985000D01*
X116690000Y-62987000D01*
X116695000Y-62989000D01*
X116700000Y-62991000D01*
X116705000Y-62994000D01*
X116710000Y-62997000D01*
X116714000Y-63000000D01*
X116719000Y-63004000D01*
X116723000Y-63008000D01*
X116727000Y-63012000D01*
X116731000Y-63016000D01*
X116734000Y-63020000D01*
X116738000Y-63025000D01*
X116741000Y-63029000D01*
X116744000Y-63034000D01*
X116746000Y-63039000D01*
X116749000Y-63044000D01*
X116751000Y-63050000D01*
X116753000Y-63055000D01*
X116754000Y-63060000D01*
X116755000Y-63066000D01*
X116756000Y-63072000D01*
X116757000Y-63077000D01*
X116757000Y-63083000D01*
X116757000Y-63088000D01*
X116757000Y-63094000D01*
X116757000Y-63314000D01*
X116757000Y-63320000D01*
X116757000Y-63325000D01*
X116757000Y-63331000D01*
X116756000Y-63336000D01*
X116755000Y-63342000D01*
X116754000Y-63348000D01*
X116753000Y-63353000D01*
X116751000Y-63358000D01*
X116749000Y-63364000D01*
X116746000Y-63369000D01*
X116744000Y-63374000D01*
X116741000Y-63379000D01*
X116738000Y-63383000D01*
X116734000Y-63388000D01*
X116731000Y-63392000D01*
X116727000Y-63396000D01*
X116723000Y-63400000D01*
X116719000Y-63404000D01*
X116714000Y-63408000D01*
X116710000Y-63411000D01*
X116705000Y-63414000D01*
X116700000Y-63417000D01*
X116695000Y-63419000D01*
X116690000Y-63421000D01*
X116685000Y-63423000D01*
X116679000Y-63425000D01*
X116674000Y-63426000D01*
X116668000Y-63428000D01*
X116663000Y-63428000D01*
X116657000Y-63429000D01*
X116357000Y-63429000D01*
X116351000Y-63428000D01*
X116346000Y-63428000D01*
X116340000Y-63426000D01*
X116335000Y-63425000D01*
X116329000Y-63423000D01*
X116324000Y-63421000D01*
X116319000Y-63419000D01*
X116314000Y-63417000D01*
X116309000Y-63414000D01*
X116304000Y-63411000D01*
X116300000Y-63408000D01*
X116295000Y-63404000D01*
X116291000Y-63400000D01*
X116287000Y-63396000D01*
X116283000Y-63392000D01*
X116280000Y-63388000D01*
X116276000Y-63383000D01*
X116273000Y-63379000D01*
X116270000Y-63374000D01*
X116268000Y-63369000D01*
X116265000Y-63364000D01*
X116263000Y-63358000D01*
X116261000Y-63353000D01*
X116260000Y-63348000D01*
X116259000Y-63342000D01*
X116258000Y-63336000D01*
X116257000Y-63331000D01*
X116257000Y-63325000D01*
X116257000Y-63320000D01*
X116257000Y-63314000D01*
X116257000Y-63094000D01*
X116257000Y-63088000D01*
X116257000Y-63083000D01*
X116257000Y-63077000D01*
X116258000Y-63072000D01*
X116259000Y-63066000D01*
X116260000Y-63060000D01*
X116261000Y-63055000D01*
X116263000Y-63050000D01*
X116265000Y-63044000D01*
X116268000Y-63039000D01*
X116270000Y-63034000D01*
X116273000Y-63029000D01*
X116276000Y-63025000D01*
X116280000Y-63020000D01*
X116283000Y-63016000D01*
X116287000Y-63012000D01*
X116291000Y-63008000D01*
X116295000Y-63004000D01*
X116300000Y-63000000D01*
X116304000Y-62997000D01*
X116309000Y-62994000D01*
X116314000Y-62991000D01*
X116319000Y-62989000D01*
X116324000Y-62987000D01*
X116329000Y-62985000D01*
X116335000Y-62983000D01*
X116340000Y-62982000D01*
X116346000Y-62980000D01*
X116351000Y-62980000D01*
X116357000Y-62979000D01*
X116657000Y-62979000D01*
X116663000Y-62980000D01*
G36*
X116663000Y-62980000D02*
G01*
X116668000Y-62980000D01*
X116674000Y-62982000D01*
X116679000Y-62983000D01*
X116685000Y-62985000D01*
X116690000Y-62987000D01*
X116695000Y-62989000D01*
X116700000Y-62991000D01*
X116705000Y-62994000D01*
X116710000Y-62997000D01*
X116714000Y-63000000D01*
X116719000Y-63004000D01*
X116723000Y-63008000D01*
X116727000Y-63012000D01*
X116731000Y-63016000D01*
X116734000Y-63020000D01*
X116738000Y-63025000D01*
X116741000Y-63029000D01*
X116744000Y-63034000D01*
X116746000Y-63039000D01*
X116749000Y-63044000D01*
X116751000Y-63050000D01*
X116753000Y-63055000D01*
X116754000Y-63060000D01*
X116755000Y-63066000D01*
X116756000Y-63072000D01*
X116757000Y-63077000D01*
X116757000Y-63083000D01*
X116757000Y-63088000D01*
X116757000Y-63094000D01*
X116757000Y-63314000D01*
X116757000Y-63320000D01*
X116757000Y-63325000D01*
X116757000Y-63331000D01*
X116756000Y-63336000D01*
X116755000Y-63342000D01*
X116754000Y-63348000D01*
X116753000Y-63353000D01*
X116751000Y-63358000D01*
X116749000Y-63364000D01*
X116746000Y-63369000D01*
X116744000Y-63374000D01*
X116741000Y-63379000D01*
X116738000Y-63383000D01*
X116734000Y-63388000D01*
X116731000Y-63392000D01*
X116727000Y-63396000D01*
X116723000Y-63400000D01*
X116719000Y-63404000D01*
X116714000Y-63408000D01*
X116710000Y-63411000D01*
X116705000Y-63414000D01*
X116700000Y-63417000D01*
X116695000Y-63419000D01*
X116690000Y-63421000D01*
X116685000Y-63423000D01*
X116679000Y-63425000D01*
X116674000Y-63426000D01*
X116668000Y-63428000D01*
X116663000Y-63428000D01*
X116657000Y-63429000D01*
X116357000Y-63429000D01*
X116351000Y-63428000D01*
X116346000Y-63428000D01*
X116340000Y-63426000D01*
X116335000Y-63425000D01*
X116329000Y-63423000D01*
X116324000Y-63421000D01*
X116319000Y-63419000D01*
X116314000Y-63417000D01*
X116309000Y-63414000D01*
X116304000Y-63411000D01*
X116300000Y-63408000D01*
X116295000Y-63404000D01*
X116291000Y-63400000D01*
X116287000Y-63396000D01*
X116283000Y-63392000D01*
X116280000Y-63388000D01*
X116276000Y-63383000D01*
X116273000Y-63379000D01*
X116270000Y-63374000D01*
X116268000Y-63369000D01*
X116265000Y-63364000D01*
X116263000Y-63358000D01*
X116261000Y-63353000D01*
X116260000Y-63348000D01*
X116259000Y-63342000D01*
X116258000Y-63336000D01*
X116257000Y-63331000D01*
X116257000Y-63325000D01*
X116257000Y-63320000D01*
X116257000Y-63314000D01*
X116257000Y-63094000D01*
X116257000Y-63088000D01*
X116257000Y-63083000D01*
X116257000Y-63077000D01*
X116258000Y-63072000D01*
X116259000Y-63066000D01*
X116260000Y-63060000D01*
X116261000Y-63055000D01*
X116263000Y-63050000D01*
X116265000Y-63044000D01*
X116268000Y-63039000D01*
X116270000Y-63034000D01*
X116273000Y-63029000D01*
X116276000Y-63025000D01*
X116280000Y-63020000D01*
X116283000Y-63016000D01*
X116287000Y-63012000D01*
X116291000Y-63008000D01*
X116295000Y-63004000D01*
X116300000Y-63000000D01*
X116304000Y-62997000D01*
X116309000Y-62994000D01*
X116314000Y-62991000D01*
X116319000Y-62989000D01*
X116324000Y-62987000D01*
X116329000Y-62985000D01*
X116335000Y-62983000D01*
X116340000Y-62982000D01*
X116346000Y-62980000D01*
X116351000Y-62980000D01*
X116357000Y-62979000D01*
X116657000Y-62979000D01*
X116663000Y-62980000D01*
G37*
X117154000Y-61940000D02*
X117160000Y-61941000D01*
X117166000Y-61942000D01*
X117171000Y-61943000D01*
X117176000Y-61945000D01*
X117182000Y-61947000D01*
X117187000Y-61950000D01*
X117192000Y-61952000D01*
X117197000Y-61955000D01*
X117201000Y-61958000D01*
X117206000Y-61962000D01*
X117210000Y-61965000D01*
X117214000Y-61969000D01*
X117218000Y-61973000D01*
X117222000Y-61977000D01*
X117226000Y-61982000D01*
X117229000Y-61986000D01*
X117232000Y-61991000D01*
X117235000Y-61996000D01*
X117237000Y-62001000D01*
X117239000Y-62006000D01*
X117241000Y-62011000D01*
X117243000Y-62017000D01*
X117244000Y-62022000D01*
X117246000Y-62028000D01*
X117246000Y-62033000D01*
X117247000Y-62039000D01*
X117247000Y-62339000D01*
X117246000Y-62345000D01*
X117246000Y-62350000D01*
X117244000Y-62356000D01*
X117243000Y-62361000D01*
X117241000Y-62367000D01*
X117239000Y-62372000D01*
X117237000Y-62377000D01*
X117235000Y-62382000D01*
X117232000Y-62387000D01*
X117229000Y-62392000D01*
X117226000Y-62396000D01*
X117222000Y-62401000D01*
X117218000Y-62405000D01*
X117214000Y-62409000D01*
X117210000Y-62413000D01*
X117206000Y-62416000D01*
X117201000Y-62420000D01*
X117197000Y-62423000D01*
X117192000Y-62426000D01*
X117187000Y-62428000D01*
X117182000Y-62431000D01*
X117176000Y-62433000D01*
X117171000Y-62435000D01*
X117166000Y-62436000D01*
X117160000Y-62437000D01*
X117154000Y-62438000D01*
X117149000Y-62439000D01*
X117143000Y-62439000D01*
X117138000Y-62439000D01*
X117132000Y-62439000D01*
X116912000Y-62439000D01*
X116906000Y-62439000D01*
X116901000Y-62439000D01*
X116895000Y-62439000D01*
X116890000Y-62438000D01*
X116884000Y-62437000D01*
X116878000Y-62436000D01*
X116873000Y-62435000D01*
X116868000Y-62433000D01*
X116862000Y-62431000D01*
X116857000Y-62428000D01*
X116852000Y-62426000D01*
X116847000Y-62423000D01*
X116843000Y-62420000D01*
X116838000Y-62416000D01*
X116834000Y-62413000D01*
X116830000Y-62409000D01*
X116826000Y-62405000D01*
X116822000Y-62401000D01*
X116818000Y-62396000D01*
X116815000Y-62392000D01*
X116812000Y-62387000D01*
X116809000Y-62382000D01*
X116807000Y-62377000D01*
X116805000Y-62372000D01*
X116803000Y-62367000D01*
X116801000Y-62361000D01*
X116800000Y-62356000D01*
X116798000Y-62350000D01*
X116798000Y-62345000D01*
X116797000Y-62339000D01*
X116797000Y-62039000D01*
X116798000Y-62033000D01*
X116798000Y-62028000D01*
X116800000Y-62022000D01*
X116801000Y-62017000D01*
X116803000Y-62011000D01*
X116805000Y-62006000D01*
X116807000Y-62001000D01*
X116809000Y-61996000D01*
X116812000Y-61991000D01*
X116815000Y-61986000D01*
X116818000Y-61982000D01*
X116822000Y-61977000D01*
X116826000Y-61973000D01*
X116830000Y-61969000D01*
X116834000Y-61965000D01*
X116838000Y-61962000D01*
X116843000Y-61958000D01*
X116847000Y-61955000D01*
X116852000Y-61952000D01*
X116857000Y-61950000D01*
X116862000Y-61947000D01*
X116868000Y-61945000D01*
X116873000Y-61943000D01*
X116878000Y-61942000D01*
X116884000Y-61941000D01*
X116890000Y-61940000D01*
X116895000Y-61939000D01*
X116901000Y-61939000D01*
X116906000Y-61939000D01*
X116912000Y-61939000D01*
X117132000Y-61939000D01*
X117138000Y-61939000D01*
X117143000Y-61939000D01*
X117149000Y-61939000D01*
X117154000Y-61940000D01*
G36*
X117154000Y-61940000D02*
G01*
X117160000Y-61941000D01*
X117166000Y-61942000D01*
X117171000Y-61943000D01*
X117176000Y-61945000D01*
X117182000Y-61947000D01*
X117187000Y-61950000D01*
X117192000Y-61952000D01*
X117197000Y-61955000D01*
X117201000Y-61958000D01*
X117206000Y-61962000D01*
X117210000Y-61965000D01*
X117214000Y-61969000D01*
X117218000Y-61973000D01*
X117222000Y-61977000D01*
X117226000Y-61982000D01*
X117229000Y-61986000D01*
X117232000Y-61991000D01*
X117235000Y-61996000D01*
X117237000Y-62001000D01*
X117239000Y-62006000D01*
X117241000Y-62011000D01*
X117243000Y-62017000D01*
X117244000Y-62022000D01*
X117246000Y-62028000D01*
X117246000Y-62033000D01*
X117247000Y-62039000D01*
X117247000Y-62339000D01*
X117246000Y-62345000D01*
X117246000Y-62350000D01*
X117244000Y-62356000D01*
X117243000Y-62361000D01*
X117241000Y-62367000D01*
X117239000Y-62372000D01*
X117237000Y-62377000D01*
X117235000Y-62382000D01*
X117232000Y-62387000D01*
X117229000Y-62392000D01*
X117226000Y-62396000D01*
X117222000Y-62401000D01*
X117218000Y-62405000D01*
X117214000Y-62409000D01*
X117210000Y-62413000D01*
X117206000Y-62416000D01*
X117201000Y-62420000D01*
X117197000Y-62423000D01*
X117192000Y-62426000D01*
X117187000Y-62428000D01*
X117182000Y-62431000D01*
X117176000Y-62433000D01*
X117171000Y-62435000D01*
X117166000Y-62436000D01*
X117160000Y-62437000D01*
X117154000Y-62438000D01*
X117149000Y-62439000D01*
X117143000Y-62439000D01*
X117138000Y-62439000D01*
X117132000Y-62439000D01*
X116912000Y-62439000D01*
X116906000Y-62439000D01*
X116901000Y-62439000D01*
X116895000Y-62439000D01*
X116890000Y-62438000D01*
X116884000Y-62437000D01*
X116878000Y-62436000D01*
X116873000Y-62435000D01*
X116868000Y-62433000D01*
X116862000Y-62431000D01*
X116857000Y-62428000D01*
X116852000Y-62426000D01*
X116847000Y-62423000D01*
X116843000Y-62420000D01*
X116838000Y-62416000D01*
X116834000Y-62413000D01*
X116830000Y-62409000D01*
X116826000Y-62405000D01*
X116822000Y-62401000D01*
X116818000Y-62396000D01*
X116815000Y-62392000D01*
X116812000Y-62387000D01*
X116809000Y-62382000D01*
X116807000Y-62377000D01*
X116805000Y-62372000D01*
X116803000Y-62367000D01*
X116801000Y-62361000D01*
X116800000Y-62356000D01*
X116798000Y-62350000D01*
X116798000Y-62345000D01*
X116797000Y-62339000D01*
X116797000Y-62039000D01*
X116798000Y-62033000D01*
X116798000Y-62028000D01*
X116800000Y-62022000D01*
X116801000Y-62017000D01*
X116803000Y-62011000D01*
X116805000Y-62006000D01*
X116807000Y-62001000D01*
X116809000Y-61996000D01*
X116812000Y-61991000D01*
X116815000Y-61986000D01*
X116818000Y-61982000D01*
X116822000Y-61977000D01*
X116826000Y-61973000D01*
X116830000Y-61969000D01*
X116834000Y-61965000D01*
X116838000Y-61962000D01*
X116843000Y-61958000D01*
X116847000Y-61955000D01*
X116852000Y-61952000D01*
X116857000Y-61950000D01*
X116862000Y-61947000D01*
X116868000Y-61945000D01*
X116873000Y-61943000D01*
X116878000Y-61942000D01*
X116884000Y-61941000D01*
X116890000Y-61940000D01*
X116895000Y-61939000D01*
X116901000Y-61939000D01*
X116906000Y-61939000D01*
X116912000Y-61939000D01*
X117132000Y-61939000D01*
X117138000Y-61939000D01*
X117143000Y-61939000D01*
X117149000Y-61939000D01*
X117154000Y-61940000D01*
G37*
X117154000Y-63470000D02*
X117160000Y-63471000D01*
X117166000Y-63472000D01*
X117171000Y-63473000D01*
X117176000Y-63475000D01*
X117182000Y-63477000D01*
X117187000Y-63480000D01*
X117192000Y-63482000D01*
X117197000Y-63485000D01*
X117201000Y-63488000D01*
X117206000Y-63492000D01*
X117210000Y-63495000D01*
X117214000Y-63499000D01*
X117218000Y-63503000D01*
X117222000Y-63507000D01*
X117226000Y-63512000D01*
X117229000Y-63516000D01*
X117232000Y-63521000D01*
X117235000Y-63526000D01*
X117237000Y-63531000D01*
X117239000Y-63536000D01*
X117241000Y-63541000D01*
X117243000Y-63547000D01*
X117244000Y-63552000D01*
X117246000Y-63558000D01*
X117246000Y-63563000D01*
X117247000Y-63569000D01*
X117247000Y-63869000D01*
X117246000Y-63875000D01*
X117246000Y-63880000D01*
X117244000Y-63886000D01*
X117243000Y-63891000D01*
X117241000Y-63897000D01*
X117239000Y-63902000D01*
X117237000Y-63907000D01*
X117235000Y-63912000D01*
X117232000Y-63917000D01*
X117229000Y-63922000D01*
X117226000Y-63926000D01*
X117222000Y-63931000D01*
X117218000Y-63935000D01*
X117214000Y-63939000D01*
X117210000Y-63943000D01*
X117206000Y-63946000D01*
X117201000Y-63950000D01*
X117197000Y-63953000D01*
X117192000Y-63956000D01*
X117187000Y-63958000D01*
X117182000Y-63961000D01*
X117176000Y-63963000D01*
X117171000Y-63965000D01*
X117166000Y-63966000D01*
X117160000Y-63967000D01*
X117154000Y-63968000D01*
X117149000Y-63969000D01*
X117143000Y-63969000D01*
X117138000Y-63969000D01*
X117132000Y-63969000D01*
X116912000Y-63969000D01*
X116906000Y-63969000D01*
X116901000Y-63969000D01*
X116895000Y-63969000D01*
X116890000Y-63968000D01*
X116884000Y-63967000D01*
X116878000Y-63966000D01*
X116873000Y-63965000D01*
X116868000Y-63963000D01*
X116862000Y-63961000D01*
X116857000Y-63958000D01*
X116852000Y-63956000D01*
X116847000Y-63953000D01*
X116843000Y-63950000D01*
X116838000Y-63946000D01*
X116834000Y-63943000D01*
X116830000Y-63939000D01*
X116826000Y-63935000D01*
X116822000Y-63931000D01*
X116818000Y-63926000D01*
X116815000Y-63922000D01*
X116812000Y-63917000D01*
X116809000Y-63912000D01*
X116807000Y-63907000D01*
X116805000Y-63902000D01*
X116803000Y-63897000D01*
X116801000Y-63891000D01*
X116800000Y-63886000D01*
X116798000Y-63880000D01*
X116798000Y-63875000D01*
X116797000Y-63869000D01*
X116797000Y-63569000D01*
X116798000Y-63563000D01*
X116798000Y-63558000D01*
X116800000Y-63552000D01*
X116801000Y-63547000D01*
X116803000Y-63541000D01*
X116805000Y-63536000D01*
X116807000Y-63531000D01*
X116809000Y-63526000D01*
X116812000Y-63521000D01*
X116815000Y-63516000D01*
X116818000Y-63512000D01*
X116822000Y-63507000D01*
X116826000Y-63503000D01*
X116830000Y-63499000D01*
X116834000Y-63495000D01*
X116838000Y-63492000D01*
X116843000Y-63488000D01*
X116847000Y-63485000D01*
X116852000Y-63482000D01*
X116857000Y-63480000D01*
X116862000Y-63477000D01*
X116868000Y-63475000D01*
X116873000Y-63473000D01*
X116878000Y-63472000D01*
X116884000Y-63471000D01*
X116890000Y-63470000D01*
X116895000Y-63469000D01*
X116901000Y-63469000D01*
X116906000Y-63469000D01*
X116912000Y-63469000D01*
X117132000Y-63469000D01*
X117138000Y-63469000D01*
X117143000Y-63469000D01*
X117149000Y-63469000D01*
X117154000Y-63470000D01*
G36*
X117154000Y-63470000D02*
G01*
X117160000Y-63471000D01*
X117166000Y-63472000D01*
X117171000Y-63473000D01*
X117176000Y-63475000D01*
X117182000Y-63477000D01*
X117187000Y-63480000D01*
X117192000Y-63482000D01*
X117197000Y-63485000D01*
X117201000Y-63488000D01*
X117206000Y-63492000D01*
X117210000Y-63495000D01*
X117214000Y-63499000D01*
X117218000Y-63503000D01*
X117222000Y-63507000D01*
X117226000Y-63512000D01*
X117229000Y-63516000D01*
X117232000Y-63521000D01*
X117235000Y-63526000D01*
X117237000Y-63531000D01*
X117239000Y-63536000D01*
X117241000Y-63541000D01*
X117243000Y-63547000D01*
X117244000Y-63552000D01*
X117246000Y-63558000D01*
X117246000Y-63563000D01*
X117247000Y-63569000D01*
X117247000Y-63869000D01*
X117246000Y-63875000D01*
X117246000Y-63880000D01*
X117244000Y-63886000D01*
X117243000Y-63891000D01*
X117241000Y-63897000D01*
X117239000Y-63902000D01*
X117237000Y-63907000D01*
X117235000Y-63912000D01*
X117232000Y-63917000D01*
X117229000Y-63922000D01*
X117226000Y-63926000D01*
X117222000Y-63931000D01*
X117218000Y-63935000D01*
X117214000Y-63939000D01*
X117210000Y-63943000D01*
X117206000Y-63946000D01*
X117201000Y-63950000D01*
X117197000Y-63953000D01*
X117192000Y-63956000D01*
X117187000Y-63958000D01*
X117182000Y-63961000D01*
X117176000Y-63963000D01*
X117171000Y-63965000D01*
X117166000Y-63966000D01*
X117160000Y-63967000D01*
X117154000Y-63968000D01*
X117149000Y-63969000D01*
X117143000Y-63969000D01*
X117138000Y-63969000D01*
X117132000Y-63969000D01*
X116912000Y-63969000D01*
X116906000Y-63969000D01*
X116901000Y-63969000D01*
X116895000Y-63969000D01*
X116890000Y-63968000D01*
X116884000Y-63967000D01*
X116878000Y-63966000D01*
X116873000Y-63965000D01*
X116868000Y-63963000D01*
X116862000Y-63961000D01*
X116857000Y-63958000D01*
X116852000Y-63956000D01*
X116847000Y-63953000D01*
X116843000Y-63950000D01*
X116838000Y-63946000D01*
X116834000Y-63943000D01*
X116830000Y-63939000D01*
X116826000Y-63935000D01*
X116822000Y-63931000D01*
X116818000Y-63926000D01*
X116815000Y-63922000D01*
X116812000Y-63917000D01*
X116809000Y-63912000D01*
X116807000Y-63907000D01*
X116805000Y-63902000D01*
X116803000Y-63897000D01*
X116801000Y-63891000D01*
X116800000Y-63886000D01*
X116798000Y-63880000D01*
X116798000Y-63875000D01*
X116797000Y-63869000D01*
X116797000Y-63569000D01*
X116798000Y-63563000D01*
X116798000Y-63558000D01*
X116800000Y-63552000D01*
X116801000Y-63547000D01*
X116803000Y-63541000D01*
X116805000Y-63536000D01*
X116807000Y-63531000D01*
X116809000Y-63526000D01*
X116812000Y-63521000D01*
X116815000Y-63516000D01*
X116818000Y-63512000D01*
X116822000Y-63507000D01*
X116826000Y-63503000D01*
X116830000Y-63499000D01*
X116834000Y-63495000D01*
X116838000Y-63492000D01*
X116843000Y-63488000D01*
X116847000Y-63485000D01*
X116852000Y-63482000D01*
X116857000Y-63480000D01*
X116862000Y-63477000D01*
X116868000Y-63475000D01*
X116873000Y-63473000D01*
X116878000Y-63472000D01*
X116884000Y-63471000D01*
X116890000Y-63470000D01*
X116895000Y-63469000D01*
X116901000Y-63469000D01*
X116906000Y-63469000D01*
X116912000Y-63469000D01*
X117132000Y-63469000D01*
X117138000Y-63469000D01*
X117143000Y-63469000D01*
X117149000Y-63469000D01*
X117154000Y-63470000D01*
G37*
X117654000Y-61940000D02*
X117660000Y-61941000D01*
X117666000Y-61942000D01*
X117671000Y-61943000D01*
X117676000Y-61945000D01*
X117682000Y-61947000D01*
X117687000Y-61950000D01*
X117692000Y-61952000D01*
X117697000Y-61955000D01*
X117701000Y-61958000D01*
X117706000Y-61962000D01*
X117710000Y-61965000D01*
X117714000Y-61969000D01*
X117718000Y-61973000D01*
X117722000Y-61977000D01*
X117726000Y-61982000D01*
X117729000Y-61986000D01*
X117732000Y-61991000D01*
X117735000Y-61996000D01*
X117737000Y-62001000D01*
X117739000Y-62006000D01*
X117741000Y-62011000D01*
X117743000Y-62017000D01*
X117744000Y-62022000D01*
X117746000Y-62028000D01*
X117746000Y-62033000D01*
X117747000Y-62039000D01*
X117747000Y-62339000D01*
X117746000Y-62345000D01*
X117746000Y-62350000D01*
X117744000Y-62356000D01*
X117743000Y-62361000D01*
X117741000Y-62367000D01*
X117739000Y-62372000D01*
X117737000Y-62377000D01*
X117735000Y-62382000D01*
X117732000Y-62387000D01*
X117729000Y-62392000D01*
X117726000Y-62396000D01*
X117722000Y-62401000D01*
X117718000Y-62405000D01*
X117714000Y-62409000D01*
X117710000Y-62413000D01*
X117706000Y-62416000D01*
X117701000Y-62420000D01*
X117697000Y-62423000D01*
X117692000Y-62426000D01*
X117687000Y-62428000D01*
X117682000Y-62431000D01*
X117676000Y-62433000D01*
X117671000Y-62435000D01*
X117666000Y-62436000D01*
X117660000Y-62437000D01*
X117654000Y-62438000D01*
X117649000Y-62439000D01*
X117643000Y-62439000D01*
X117638000Y-62439000D01*
X117632000Y-62439000D01*
X117412000Y-62439000D01*
X117406000Y-62439000D01*
X117401000Y-62439000D01*
X117395000Y-62439000D01*
X117390000Y-62438000D01*
X117384000Y-62437000D01*
X117378000Y-62436000D01*
X117373000Y-62435000D01*
X117368000Y-62433000D01*
X117362000Y-62431000D01*
X117357000Y-62428000D01*
X117352000Y-62426000D01*
X117347000Y-62423000D01*
X117343000Y-62420000D01*
X117338000Y-62416000D01*
X117334000Y-62413000D01*
X117330000Y-62409000D01*
X117326000Y-62405000D01*
X117322000Y-62401000D01*
X117318000Y-62396000D01*
X117315000Y-62392000D01*
X117312000Y-62387000D01*
X117309000Y-62382000D01*
X117307000Y-62377000D01*
X117305000Y-62372000D01*
X117303000Y-62367000D01*
X117301000Y-62361000D01*
X117300000Y-62356000D01*
X117298000Y-62350000D01*
X117298000Y-62345000D01*
X117297000Y-62339000D01*
X117297000Y-62039000D01*
X117298000Y-62033000D01*
X117298000Y-62028000D01*
X117300000Y-62022000D01*
X117301000Y-62017000D01*
X117303000Y-62011000D01*
X117305000Y-62006000D01*
X117307000Y-62001000D01*
X117309000Y-61996000D01*
X117312000Y-61991000D01*
X117315000Y-61986000D01*
X117318000Y-61982000D01*
X117322000Y-61977000D01*
X117326000Y-61973000D01*
X117330000Y-61969000D01*
X117334000Y-61965000D01*
X117338000Y-61962000D01*
X117343000Y-61958000D01*
X117347000Y-61955000D01*
X117352000Y-61952000D01*
X117357000Y-61950000D01*
X117362000Y-61947000D01*
X117368000Y-61945000D01*
X117373000Y-61943000D01*
X117378000Y-61942000D01*
X117384000Y-61941000D01*
X117390000Y-61940000D01*
X117395000Y-61939000D01*
X117401000Y-61939000D01*
X117406000Y-61939000D01*
X117412000Y-61939000D01*
X117632000Y-61939000D01*
X117638000Y-61939000D01*
X117643000Y-61939000D01*
X117649000Y-61939000D01*
X117654000Y-61940000D01*
G36*
X117654000Y-61940000D02*
G01*
X117660000Y-61941000D01*
X117666000Y-61942000D01*
X117671000Y-61943000D01*
X117676000Y-61945000D01*
X117682000Y-61947000D01*
X117687000Y-61950000D01*
X117692000Y-61952000D01*
X117697000Y-61955000D01*
X117701000Y-61958000D01*
X117706000Y-61962000D01*
X117710000Y-61965000D01*
X117714000Y-61969000D01*
X117718000Y-61973000D01*
X117722000Y-61977000D01*
X117726000Y-61982000D01*
X117729000Y-61986000D01*
X117732000Y-61991000D01*
X117735000Y-61996000D01*
X117737000Y-62001000D01*
X117739000Y-62006000D01*
X117741000Y-62011000D01*
X117743000Y-62017000D01*
X117744000Y-62022000D01*
X117746000Y-62028000D01*
X117746000Y-62033000D01*
X117747000Y-62039000D01*
X117747000Y-62339000D01*
X117746000Y-62345000D01*
X117746000Y-62350000D01*
X117744000Y-62356000D01*
X117743000Y-62361000D01*
X117741000Y-62367000D01*
X117739000Y-62372000D01*
X117737000Y-62377000D01*
X117735000Y-62382000D01*
X117732000Y-62387000D01*
X117729000Y-62392000D01*
X117726000Y-62396000D01*
X117722000Y-62401000D01*
X117718000Y-62405000D01*
X117714000Y-62409000D01*
X117710000Y-62413000D01*
X117706000Y-62416000D01*
X117701000Y-62420000D01*
X117697000Y-62423000D01*
X117692000Y-62426000D01*
X117687000Y-62428000D01*
X117682000Y-62431000D01*
X117676000Y-62433000D01*
X117671000Y-62435000D01*
X117666000Y-62436000D01*
X117660000Y-62437000D01*
X117654000Y-62438000D01*
X117649000Y-62439000D01*
X117643000Y-62439000D01*
X117638000Y-62439000D01*
X117632000Y-62439000D01*
X117412000Y-62439000D01*
X117406000Y-62439000D01*
X117401000Y-62439000D01*
X117395000Y-62439000D01*
X117390000Y-62438000D01*
X117384000Y-62437000D01*
X117378000Y-62436000D01*
X117373000Y-62435000D01*
X117368000Y-62433000D01*
X117362000Y-62431000D01*
X117357000Y-62428000D01*
X117352000Y-62426000D01*
X117347000Y-62423000D01*
X117343000Y-62420000D01*
X117338000Y-62416000D01*
X117334000Y-62413000D01*
X117330000Y-62409000D01*
X117326000Y-62405000D01*
X117322000Y-62401000D01*
X117318000Y-62396000D01*
X117315000Y-62392000D01*
X117312000Y-62387000D01*
X117309000Y-62382000D01*
X117307000Y-62377000D01*
X117305000Y-62372000D01*
X117303000Y-62367000D01*
X117301000Y-62361000D01*
X117300000Y-62356000D01*
X117298000Y-62350000D01*
X117298000Y-62345000D01*
X117297000Y-62339000D01*
X117297000Y-62039000D01*
X117298000Y-62033000D01*
X117298000Y-62028000D01*
X117300000Y-62022000D01*
X117301000Y-62017000D01*
X117303000Y-62011000D01*
X117305000Y-62006000D01*
X117307000Y-62001000D01*
X117309000Y-61996000D01*
X117312000Y-61991000D01*
X117315000Y-61986000D01*
X117318000Y-61982000D01*
X117322000Y-61977000D01*
X117326000Y-61973000D01*
X117330000Y-61969000D01*
X117334000Y-61965000D01*
X117338000Y-61962000D01*
X117343000Y-61958000D01*
X117347000Y-61955000D01*
X117352000Y-61952000D01*
X117357000Y-61950000D01*
X117362000Y-61947000D01*
X117368000Y-61945000D01*
X117373000Y-61943000D01*
X117378000Y-61942000D01*
X117384000Y-61941000D01*
X117390000Y-61940000D01*
X117395000Y-61939000D01*
X117401000Y-61939000D01*
X117406000Y-61939000D01*
X117412000Y-61939000D01*
X117632000Y-61939000D01*
X117638000Y-61939000D01*
X117643000Y-61939000D01*
X117649000Y-61939000D01*
X117654000Y-61940000D01*
G37*
X117654000Y-63470000D02*
X117660000Y-63471000D01*
X117666000Y-63472000D01*
X117671000Y-63473000D01*
X117676000Y-63475000D01*
X117682000Y-63477000D01*
X117687000Y-63480000D01*
X117692000Y-63482000D01*
X117697000Y-63485000D01*
X117701000Y-63488000D01*
X117706000Y-63492000D01*
X117710000Y-63495000D01*
X117714000Y-63499000D01*
X117718000Y-63503000D01*
X117722000Y-63507000D01*
X117726000Y-63512000D01*
X117729000Y-63516000D01*
X117732000Y-63521000D01*
X117735000Y-63526000D01*
X117737000Y-63531000D01*
X117739000Y-63536000D01*
X117741000Y-63541000D01*
X117743000Y-63547000D01*
X117744000Y-63552000D01*
X117746000Y-63558000D01*
X117746000Y-63563000D01*
X117747000Y-63569000D01*
X117747000Y-63869000D01*
X117746000Y-63875000D01*
X117746000Y-63880000D01*
X117744000Y-63886000D01*
X117743000Y-63891000D01*
X117741000Y-63897000D01*
X117739000Y-63902000D01*
X117737000Y-63907000D01*
X117735000Y-63912000D01*
X117732000Y-63917000D01*
X117729000Y-63922000D01*
X117726000Y-63926000D01*
X117722000Y-63931000D01*
X117718000Y-63935000D01*
X117714000Y-63939000D01*
X117710000Y-63943000D01*
X117706000Y-63946000D01*
X117701000Y-63950000D01*
X117697000Y-63953000D01*
X117692000Y-63956000D01*
X117687000Y-63958000D01*
X117682000Y-63961000D01*
X117676000Y-63963000D01*
X117671000Y-63965000D01*
X117666000Y-63966000D01*
X117660000Y-63967000D01*
X117654000Y-63968000D01*
X117649000Y-63969000D01*
X117643000Y-63969000D01*
X117638000Y-63969000D01*
X117632000Y-63969000D01*
X117412000Y-63969000D01*
X117406000Y-63969000D01*
X117401000Y-63969000D01*
X117395000Y-63969000D01*
X117390000Y-63968000D01*
X117384000Y-63967000D01*
X117378000Y-63966000D01*
X117373000Y-63965000D01*
X117368000Y-63963000D01*
X117362000Y-63961000D01*
X117357000Y-63958000D01*
X117352000Y-63956000D01*
X117347000Y-63953000D01*
X117343000Y-63950000D01*
X117338000Y-63946000D01*
X117334000Y-63943000D01*
X117330000Y-63939000D01*
X117326000Y-63935000D01*
X117322000Y-63931000D01*
X117318000Y-63926000D01*
X117315000Y-63922000D01*
X117312000Y-63917000D01*
X117309000Y-63912000D01*
X117307000Y-63907000D01*
X117305000Y-63902000D01*
X117303000Y-63897000D01*
X117301000Y-63891000D01*
X117300000Y-63886000D01*
X117298000Y-63880000D01*
X117298000Y-63875000D01*
X117297000Y-63869000D01*
X117297000Y-63569000D01*
X117298000Y-63563000D01*
X117298000Y-63558000D01*
X117300000Y-63552000D01*
X117301000Y-63547000D01*
X117303000Y-63541000D01*
X117305000Y-63536000D01*
X117307000Y-63531000D01*
X117309000Y-63526000D01*
X117312000Y-63521000D01*
X117315000Y-63516000D01*
X117318000Y-63512000D01*
X117322000Y-63507000D01*
X117326000Y-63503000D01*
X117330000Y-63499000D01*
X117334000Y-63495000D01*
X117338000Y-63492000D01*
X117343000Y-63488000D01*
X117347000Y-63485000D01*
X117352000Y-63482000D01*
X117357000Y-63480000D01*
X117362000Y-63477000D01*
X117368000Y-63475000D01*
X117373000Y-63473000D01*
X117378000Y-63472000D01*
X117384000Y-63471000D01*
X117390000Y-63470000D01*
X117395000Y-63469000D01*
X117401000Y-63469000D01*
X117406000Y-63469000D01*
X117412000Y-63469000D01*
X117632000Y-63469000D01*
X117638000Y-63469000D01*
X117643000Y-63469000D01*
X117649000Y-63469000D01*
X117654000Y-63470000D01*
G36*
X117654000Y-63470000D02*
G01*
X117660000Y-63471000D01*
X117666000Y-63472000D01*
X117671000Y-63473000D01*
X117676000Y-63475000D01*
X117682000Y-63477000D01*
X117687000Y-63480000D01*
X117692000Y-63482000D01*
X117697000Y-63485000D01*
X117701000Y-63488000D01*
X117706000Y-63492000D01*
X117710000Y-63495000D01*
X117714000Y-63499000D01*
X117718000Y-63503000D01*
X117722000Y-63507000D01*
X117726000Y-63512000D01*
X117729000Y-63516000D01*
X117732000Y-63521000D01*
X117735000Y-63526000D01*
X117737000Y-63531000D01*
X117739000Y-63536000D01*
X117741000Y-63541000D01*
X117743000Y-63547000D01*
X117744000Y-63552000D01*
X117746000Y-63558000D01*
X117746000Y-63563000D01*
X117747000Y-63569000D01*
X117747000Y-63869000D01*
X117746000Y-63875000D01*
X117746000Y-63880000D01*
X117744000Y-63886000D01*
X117743000Y-63891000D01*
X117741000Y-63897000D01*
X117739000Y-63902000D01*
X117737000Y-63907000D01*
X117735000Y-63912000D01*
X117732000Y-63917000D01*
X117729000Y-63922000D01*
X117726000Y-63926000D01*
X117722000Y-63931000D01*
X117718000Y-63935000D01*
X117714000Y-63939000D01*
X117710000Y-63943000D01*
X117706000Y-63946000D01*
X117701000Y-63950000D01*
X117697000Y-63953000D01*
X117692000Y-63956000D01*
X117687000Y-63958000D01*
X117682000Y-63961000D01*
X117676000Y-63963000D01*
X117671000Y-63965000D01*
X117666000Y-63966000D01*
X117660000Y-63967000D01*
X117654000Y-63968000D01*
X117649000Y-63969000D01*
X117643000Y-63969000D01*
X117638000Y-63969000D01*
X117632000Y-63969000D01*
X117412000Y-63969000D01*
X117406000Y-63969000D01*
X117401000Y-63969000D01*
X117395000Y-63969000D01*
X117390000Y-63968000D01*
X117384000Y-63967000D01*
X117378000Y-63966000D01*
X117373000Y-63965000D01*
X117368000Y-63963000D01*
X117362000Y-63961000D01*
X117357000Y-63958000D01*
X117352000Y-63956000D01*
X117347000Y-63953000D01*
X117343000Y-63950000D01*
X117338000Y-63946000D01*
X117334000Y-63943000D01*
X117330000Y-63939000D01*
X117326000Y-63935000D01*
X117322000Y-63931000D01*
X117318000Y-63926000D01*
X117315000Y-63922000D01*
X117312000Y-63917000D01*
X117309000Y-63912000D01*
X117307000Y-63907000D01*
X117305000Y-63902000D01*
X117303000Y-63897000D01*
X117301000Y-63891000D01*
X117300000Y-63886000D01*
X117298000Y-63880000D01*
X117298000Y-63875000D01*
X117297000Y-63869000D01*
X117297000Y-63569000D01*
X117298000Y-63563000D01*
X117298000Y-63558000D01*
X117300000Y-63552000D01*
X117301000Y-63547000D01*
X117303000Y-63541000D01*
X117305000Y-63536000D01*
X117307000Y-63531000D01*
X117309000Y-63526000D01*
X117312000Y-63521000D01*
X117315000Y-63516000D01*
X117318000Y-63512000D01*
X117322000Y-63507000D01*
X117326000Y-63503000D01*
X117330000Y-63499000D01*
X117334000Y-63495000D01*
X117338000Y-63492000D01*
X117343000Y-63488000D01*
X117347000Y-63485000D01*
X117352000Y-63482000D01*
X117357000Y-63480000D01*
X117362000Y-63477000D01*
X117368000Y-63475000D01*
X117373000Y-63473000D01*
X117378000Y-63472000D01*
X117384000Y-63471000D01*
X117390000Y-63470000D01*
X117395000Y-63469000D01*
X117401000Y-63469000D01*
X117406000Y-63469000D01*
X117412000Y-63469000D01*
X117632000Y-63469000D01*
X117638000Y-63469000D01*
X117643000Y-63469000D01*
X117649000Y-63469000D01*
X117654000Y-63470000D01*
G37*
X118193000Y-62480000D02*
X118198000Y-62480000D01*
X118204000Y-62482000D01*
X118209000Y-62483000D01*
X118215000Y-62485000D01*
X118220000Y-62487000D01*
X118225000Y-62489000D01*
X118230000Y-62491000D01*
X118235000Y-62494000D01*
X118240000Y-62497000D01*
X118244000Y-62500000D01*
X118249000Y-62504000D01*
X118253000Y-62508000D01*
X118257000Y-62512000D01*
X118261000Y-62516000D01*
X118264000Y-62520000D01*
X118268000Y-62525000D01*
X118271000Y-62529000D01*
X118274000Y-62534000D01*
X118276000Y-62539000D01*
X118279000Y-62544000D01*
X118281000Y-62550000D01*
X118283000Y-62555000D01*
X118284000Y-62560000D01*
X118285000Y-62566000D01*
X118286000Y-62572000D01*
X118287000Y-62577000D01*
X118287000Y-62583000D01*
X118287000Y-62588000D01*
X118287000Y-62594000D01*
X118287000Y-62814000D01*
X118287000Y-62820000D01*
X118287000Y-62825000D01*
X118287000Y-62831000D01*
X118286000Y-62836000D01*
X118285000Y-62842000D01*
X118284000Y-62848000D01*
X118283000Y-62853000D01*
X118281000Y-62858000D01*
X118279000Y-62864000D01*
X118276000Y-62869000D01*
X118274000Y-62874000D01*
X118271000Y-62879000D01*
X118268000Y-62883000D01*
X118264000Y-62888000D01*
X118261000Y-62892000D01*
X118257000Y-62896000D01*
X118253000Y-62900000D01*
X118249000Y-62904000D01*
X118244000Y-62908000D01*
X118240000Y-62911000D01*
X118235000Y-62914000D01*
X118230000Y-62917000D01*
X118225000Y-62919000D01*
X118220000Y-62921000D01*
X118215000Y-62923000D01*
X118209000Y-62925000D01*
X118204000Y-62926000D01*
X118198000Y-62928000D01*
X118193000Y-62928000D01*
X118187000Y-62929000D01*
X117887000Y-62929000D01*
X117881000Y-62928000D01*
X117876000Y-62928000D01*
X117870000Y-62926000D01*
X117865000Y-62925000D01*
X117859000Y-62923000D01*
X117854000Y-62921000D01*
X117849000Y-62919000D01*
X117844000Y-62917000D01*
X117839000Y-62914000D01*
X117834000Y-62911000D01*
X117830000Y-62908000D01*
X117825000Y-62904000D01*
X117821000Y-62900000D01*
X117817000Y-62896000D01*
X117813000Y-62892000D01*
X117810000Y-62888000D01*
X117806000Y-62883000D01*
X117803000Y-62879000D01*
X117800000Y-62874000D01*
X117798000Y-62869000D01*
X117795000Y-62864000D01*
X117793000Y-62858000D01*
X117791000Y-62853000D01*
X117790000Y-62848000D01*
X117789000Y-62842000D01*
X117788000Y-62836000D01*
X117787000Y-62831000D01*
X117787000Y-62825000D01*
X117787000Y-62820000D01*
X117787000Y-62814000D01*
X117787000Y-62594000D01*
X117787000Y-62588000D01*
X117787000Y-62583000D01*
X117787000Y-62577000D01*
X117788000Y-62572000D01*
X117789000Y-62566000D01*
X117790000Y-62560000D01*
X117791000Y-62555000D01*
X117793000Y-62550000D01*
X117795000Y-62544000D01*
X117798000Y-62539000D01*
X117800000Y-62534000D01*
X117803000Y-62529000D01*
X117806000Y-62525000D01*
X117810000Y-62520000D01*
X117813000Y-62516000D01*
X117817000Y-62512000D01*
X117821000Y-62508000D01*
X117825000Y-62504000D01*
X117830000Y-62500000D01*
X117834000Y-62497000D01*
X117839000Y-62494000D01*
X117844000Y-62491000D01*
X117849000Y-62489000D01*
X117854000Y-62487000D01*
X117859000Y-62485000D01*
X117865000Y-62483000D01*
X117870000Y-62482000D01*
X117876000Y-62480000D01*
X117881000Y-62480000D01*
X117887000Y-62479000D01*
X118187000Y-62479000D01*
X118193000Y-62480000D01*
G36*
X118193000Y-62480000D02*
G01*
X118198000Y-62480000D01*
X118204000Y-62482000D01*
X118209000Y-62483000D01*
X118215000Y-62485000D01*
X118220000Y-62487000D01*
X118225000Y-62489000D01*
X118230000Y-62491000D01*
X118235000Y-62494000D01*
X118240000Y-62497000D01*
X118244000Y-62500000D01*
X118249000Y-62504000D01*
X118253000Y-62508000D01*
X118257000Y-62512000D01*
X118261000Y-62516000D01*
X118264000Y-62520000D01*
X118268000Y-62525000D01*
X118271000Y-62529000D01*
X118274000Y-62534000D01*
X118276000Y-62539000D01*
X118279000Y-62544000D01*
X118281000Y-62550000D01*
X118283000Y-62555000D01*
X118284000Y-62560000D01*
X118285000Y-62566000D01*
X118286000Y-62572000D01*
X118287000Y-62577000D01*
X118287000Y-62583000D01*
X118287000Y-62588000D01*
X118287000Y-62594000D01*
X118287000Y-62814000D01*
X118287000Y-62820000D01*
X118287000Y-62825000D01*
X118287000Y-62831000D01*
X118286000Y-62836000D01*
X118285000Y-62842000D01*
X118284000Y-62848000D01*
X118283000Y-62853000D01*
X118281000Y-62858000D01*
X118279000Y-62864000D01*
X118276000Y-62869000D01*
X118274000Y-62874000D01*
X118271000Y-62879000D01*
X118268000Y-62883000D01*
X118264000Y-62888000D01*
X118261000Y-62892000D01*
X118257000Y-62896000D01*
X118253000Y-62900000D01*
X118249000Y-62904000D01*
X118244000Y-62908000D01*
X118240000Y-62911000D01*
X118235000Y-62914000D01*
X118230000Y-62917000D01*
X118225000Y-62919000D01*
X118220000Y-62921000D01*
X118215000Y-62923000D01*
X118209000Y-62925000D01*
X118204000Y-62926000D01*
X118198000Y-62928000D01*
X118193000Y-62928000D01*
X118187000Y-62929000D01*
X117887000Y-62929000D01*
X117881000Y-62928000D01*
X117876000Y-62928000D01*
X117870000Y-62926000D01*
X117865000Y-62925000D01*
X117859000Y-62923000D01*
X117854000Y-62921000D01*
X117849000Y-62919000D01*
X117844000Y-62917000D01*
X117839000Y-62914000D01*
X117834000Y-62911000D01*
X117830000Y-62908000D01*
X117825000Y-62904000D01*
X117821000Y-62900000D01*
X117817000Y-62896000D01*
X117813000Y-62892000D01*
X117810000Y-62888000D01*
X117806000Y-62883000D01*
X117803000Y-62879000D01*
X117800000Y-62874000D01*
X117798000Y-62869000D01*
X117795000Y-62864000D01*
X117793000Y-62858000D01*
X117791000Y-62853000D01*
X117790000Y-62848000D01*
X117789000Y-62842000D01*
X117788000Y-62836000D01*
X117787000Y-62831000D01*
X117787000Y-62825000D01*
X117787000Y-62820000D01*
X117787000Y-62814000D01*
X117787000Y-62594000D01*
X117787000Y-62588000D01*
X117787000Y-62583000D01*
X117787000Y-62577000D01*
X117788000Y-62572000D01*
X117789000Y-62566000D01*
X117790000Y-62560000D01*
X117791000Y-62555000D01*
X117793000Y-62550000D01*
X117795000Y-62544000D01*
X117798000Y-62539000D01*
X117800000Y-62534000D01*
X117803000Y-62529000D01*
X117806000Y-62525000D01*
X117810000Y-62520000D01*
X117813000Y-62516000D01*
X117817000Y-62512000D01*
X117821000Y-62508000D01*
X117825000Y-62504000D01*
X117830000Y-62500000D01*
X117834000Y-62497000D01*
X117839000Y-62494000D01*
X117844000Y-62491000D01*
X117849000Y-62489000D01*
X117854000Y-62487000D01*
X117859000Y-62485000D01*
X117865000Y-62483000D01*
X117870000Y-62482000D01*
X117876000Y-62480000D01*
X117881000Y-62480000D01*
X117887000Y-62479000D01*
X118187000Y-62479000D01*
X118193000Y-62480000D01*
G37*
X118193000Y-62980000D02*
X118198000Y-62980000D01*
X118204000Y-62982000D01*
X118209000Y-62983000D01*
X118215000Y-62985000D01*
X118220000Y-62987000D01*
X118225000Y-62989000D01*
X118230000Y-62991000D01*
X118235000Y-62994000D01*
X118240000Y-62997000D01*
X118244000Y-63000000D01*
X118249000Y-63004000D01*
X118253000Y-63008000D01*
X118257000Y-63012000D01*
X118261000Y-63016000D01*
X118264000Y-63020000D01*
X118268000Y-63025000D01*
X118271000Y-63029000D01*
X118274000Y-63034000D01*
X118276000Y-63039000D01*
X118279000Y-63044000D01*
X118281000Y-63050000D01*
X118283000Y-63055000D01*
X118284000Y-63060000D01*
X118285000Y-63066000D01*
X118286000Y-63072000D01*
X118287000Y-63077000D01*
X118287000Y-63083000D01*
X118287000Y-63088000D01*
X118287000Y-63094000D01*
X118287000Y-63314000D01*
X118287000Y-63320000D01*
X118287000Y-63325000D01*
X118287000Y-63331000D01*
X118286000Y-63336000D01*
X118285000Y-63342000D01*
X118284000Y-63348000D01*
X118283000Y-63353000D01*
X118281000Y-63358000D01*
X118279000Y-63364000D01*
X118276000Y-63369000D01*
X118274000Y-63374000D01*
X118271000Y-63379000D01*
X118268000Y-63383000D01*
X118264000Y-63388000D01*
X118261000Y-63392000D01*
X118257000Y-63396000D01*
X118253000Y-63400000D01*
X118249000Y-63404000D01*
X118244000Y-63408000D01*
X118240000Y-63411000D01*
X118235000Y-63414000D01*
X118230000Y-63417000D01*
X118225000Y-63419000D01*
X118220000Y-63421000D01*
X118215000Y-63423000D01*
X118209000Y-63425000D01*
X118204000Y-63426000D01*
X118198000Y-63428000D01*
X118193000Y-63428000D01*
X118187000Y-63429000D01*
X117887000Y-63429000D01*
X117881000Y-63428000D01*
X117876000Y-63428000D01*
X117870000Y-63426000D01*
X117865000Y-63425000D01*
X117859000Y-63423000D01*
X117854000Y-63421000D01*
X117849000Y-63419000D01*
X117844000Y-63417000D01*
X117839000Y-63414000D01*
X117834000Y-63411000D01*
X117830000Y-63408000D01*
X117825000Y-63404000D01*
X117821000Y-63400000D01*
X117817000Y-63396000D01*
X117813000Y-63392000D01*
X117810000Y-63388000D01*
X117806000Y-63383000D01*
X117803000Y-63379000D01*
X117800000Y-63374000D01*
X117798000Y-63369000D01*
X117795000Y-63364000D01*
X117793000Y-63358000D01*
X117791000Y-63353000D01*
X117790000Y-63348000D01*
X117789000Y-63342000D01*
X117788000Y-63336000D01*
X117787000Y-63331000D01*
X117787000Y-63325000D01*
X117787000Y-63320000D01*
X117787000Y-63314000D01*
X117787000Y-63094000D01*
X117787000Y-63088000D01*
X117787000Y-63083000D01*
X117787000Y-63077000D01*
X117788000Y-63072000D01*
X117789000Y-63066000D01*
X117790000Y-63060000D01*
X117791000Y-63055000D01*
X117793000Y-63050000D01*
X117795000Y-63044000D01*
X117798000Y-63039000D01*
X117800000Y-63034000D01*
X117803000Y-63029000D01*
X117806000Y-63025000D01*
X117810000Y-63020000D01*
X117813000Y-63016000D01*
X117817000Y-63012000D01*
X117821000Y-63008000D01*
X117825000Y-63004000D01*
X117830000Y-63000000D01*
X117834000Y-62997000D01*
X117839000Y-62994000D01*
X117844000Y-62991000D01*
X117849000Y-62989000D01*
X117854000Y-62987000D01*
X117859000Y-62985000D01*
X117865000Y-62983000D01*
X117870000Y-62982000D01*
X117876000Y-62980000D01*
X117881000Y-62980000D01*
X117887000Y-62979000D01*
X118187000Y-62979000D01*
X118193000Y-62980000D01*
G36*
X118193000Y-62980000D02*
G01*
X118198000Y-62980000D01*
X118204000Y-62982000D01*
X118209000Y-62983000D01*
X118215000Y-62985000D01*
X118220000Y-62987000D01*
X118225000Y-62989000D01*
X118230000Y-62991000D01*
X118235000Y-62994000D01*
X118240000Y-62997000D01*
X118244000Y-63000000D01*
X118249000Y-63004000D01*
X118253000Y-63008000D01*
X118257000Y-63012000D01*
X118261000Y-63016000D01*
X118264000Y-63020000D01*
X118268000Y-63025000D01*
X118271000Y-63029000D01*
X118274000Y-63034000D01*
X118276000Y-63039000D01*
X118279000Y-63044000D01*
X118281000Y-63050000D01*
X118283000Y-63055000D01*
X118284000Y-63060000D01*
X118285000Y-63066000D01*
X118286000Y-63072000D01*
X118287000Y-63077000D01*
X118287000Y-63083000D01*
X118287000Y-63088000D01*
X118287000Y-63094000D01*
X118287000Y-63314000D01*
X118287000Y-63320000D01*
X118287000Y-63325000D01*
X118287000Y-63331000D01*
X118286000Y-63336000D01*
X118285000Y-63342000D01*
X118284000Y-63348000D01*
X118283000Y-63353000D01*
X118281000Y-63358000D01*
X118279000Y-63364000D01*
X118276000Y-63369000D01*
X118274000Y-63374000D01*
X118271000Y-63379000D01*
X118268000Y-63383000D01*
X118264000Y-63388000D01*
X118261000Y-63392000D01*
X118257000Y-63396000D01*
X118253000Y-63400000D01*
X118249000Y-63404000D01*
X118244000Y-63408000D01*
X118240000Y-63411000D01*
X118235000Y-63414000D01*
X118230000Y-63417000D01*
X118225000Y-63419000D01*
X118220000Y-63421000D01*
X118215000Y-63423000D01*
X118209000Y-63425000D01*
X118204000Y-63426000D01*
X118198000Y-63428000D01*
X118193000Y-63428000D01*
X118187000Y-63429000D01*
X117887000Y-63429000D01*
X117881000Y-63428000D01*
X117876000Y-63428000D01*
X117870000Y-63426000D01*
X117865000Y-63425000D01*
X117859000Y-63423000D01*
X117854000Y-63421000D01*
X117849000Y-63419000D01*
X117844000Y-63417000D01*
X117839000Y-63414000D01*
X117834000Y-63411000D01*
X117830000Y-63408000D01*
X117825000Y-63404000D01*
X117821000Y-63400000D01*
X117817000Y-63396000D01*
X117813000Y-63392000D01*
X117810000Y-63388000D01*
X117806000Y-63383000D01*
X117803000Y-63379000D01*
X117800000Y-63374000D01*
X117798000Y-63369000D01*
X117795000Y-63364000D01*
X117793000Y-63358000D01*
X117791000Y-63353000D01*
X117790000Y-63348000D01*
X117789000Y-63342000D01*
X117788000Y-63336000D01*
X117787000Y-63331000D01*
X117787000Y-63325000D01*
X117787000Y-63320000D01*
X117787000Y-63314000D01*
X117787000Y-63094000D01*
X117787000Y-63088000D01*
X117787000Y-63083000D01*
X117787000Y-63077000D01*
X117788000Y-63072000D01*
X117789000Y-63066000D01*
X117790000Y-63060000D01*
X117791000Y-63055000D01*
X117793000Y-63050000D01*
X117795000Y-63044000D01*
X117798000Y-63039000D01*
X117800000Y-63034000D01*
X117803000Y-63029000D01*
X117806000Y-63025000D01*
X117810000Y-63020000D01*
X117813000Y-63016000D01*
X117817000Y-63012000D01*
X117821000Y-63008000D01*
X117825000Y-63004000D01*
X117830000Y-63000000D01*
X117834000Y-62997000D01*
X117839000Y-62994000D01*
X117844000Y-62991000D01*
X117849000Y-62989000D01*
X117854000Y-62987000D01*
X117859000Y-62985000D01*
X117865000Y-62983000D01*
X117870000Y-62982000D01*
X117876000Y-62980000D01*
X117881000Y-62980000D01*
X117887000Y-62979000D01*
X118187000Y-62979000D01*
X118193000Y-62980000D01*
G37*
X118203000Y-61980000D02*
X118208000Y-61980000D01*
X118214000Y-61982000D01*
X118219000Y-61983000D01*
X118225000Y-61985000D01*
X118230000Y-61987000D01*
X118235000Y-61989000D01*
X118240000Y-61991000D01*
X118245000Y-61994000D01*
X118250000Y-61997000D01*
X118254000Y-62000000D01*
X118259000Y-62004000D01*
X118263000Y-62008000D01*
X118267000Y-62012000D01*
X118271000Y-62016000D01*
X118274000Y-62020000D01*
X118278000Y-62025000D01*
X118281000Y-62029000D01*
X118284000Y-62034000D01*
X118286000Y-62039000D01*
X118289000Y-62044000D01*
X118291000Y-62050000D01*
X118293000Y-62055000D01*
X118294000Y-62060000D01*
X118295000Y-62066000D01*
X118296000Y-62072000D01*
X118297000Y-62077000D01*
X118297000Y-62083000D01*
X118297000Y-62088000D01*
X118297000Y-62094000D01*
X118297000Y-62314000D01*
X118297000Y-62320000D01*
X118297000Y-62325000D01*
X118297000Y-62331000D01*
X118296000Y-62336000D01*
X118295000Y-62342000D01*
X118294000Y-62348000D01*
X118293000Y-62353000D01*
X118291000Y-62358000D01*
X118289000Y-62364000D01*
X118286000Y-62369000D01*
X118284000Y-62374000D01*
X118281000Y-62379000D01*
X118278000Y-62383000D01*
X118274000Y-62388000D01*
X118271000Y-62392000D01*
X118267000Y-62396000D01*
X118263000Y-62400000D01*
X118259000Y-62404000D01*
X118254000Y-62408000D01*
X118250000Y-62411000D01*
X118245000Y-62414000D01*
X118240000Y-62417000D01*
X118235000Y-62419000D01*
X118230000Y-62421000D01*
X118225000Y-62423000D01*
X118219000Y-62425000D01*
X118214000Y-62426000D01*
X118208000Y-62428000D01*
X118203000Y-62428000D01*
X118197000Y-62429000D01*
X117897000Y-62429000D01*
X117891000Y-62428000D01*
X117886000Y-62428000D01*
X117880000Y-62426000D01*
X117875000Y-62425000D01*
X117869000Y-62423000D01*
X117864000Y-62421000D01*
X117859000Y-62419000D01*
X117854000Y-62417000D01*
X117849000Y-62414000D01*
X117844000Y-62411000D01*
X117840000Y-62408000D01*
X117835000Y-62404000D01*
X117831000Y-62400000D01*
X117827000Y-62396000D01*
X117823000Y-62392000D01*
X117820000Y-62388000D01*
X117816000Y-62383000D01*
X117813000Y-62379000D01*
X117810000Y-62374000D01*
X117808000Y-62369000D01*
X117805000Y-62364000D01*
X117803000Y-62358000D01*
X117801000Y-62353000D01*
X117800000Y-62348000D01*
X117799000Y-62342000D01*
X117798000Y-62336000D01*
X117797000Y-62331000D01*
X117797000Y-62325000D01*
X117797000Y-62320000D01*
X117797000Y-62314000D01*
X117797000Y-62094000D01*
X117797000Y-62088000D01*
X117797000Y-62083000D01*
X117797000Y-62077000D01*
X117798000Y-62072000D01*
X117799000Y-62066000D01*
X117800000Y-62060000D01*
X117801000Y-62055000D01*
X117803000Y-62050000D01*
X117805000Y-62044000D01*
X117808000Y-62039000D01*
X117810000Y-62034000D01*
X117813000Y-62029000D01*
X117816000Y-62025000D01*
X117820000Y-62020000D01*
X117823000Y-62016000D01*
X117827000Y-62012000D01*
X117831000Y-62008000D01*
X117835000Y-62004000D01*
X117840000Y-62000000D01*
X117844000Y-61997000D01*
X117849000Y-61994000D01*
X117854000Y-61991000D01*
X117859000Y-61989000D01*
X117864000Y-61987000D01*
X117869000Y-61985000D01*
X117875000Y-61983000D01*
X117880000Y-61982000D01*
X117886000Y-61980000D01*
X117891000Y-61980000D01*
X117897000Y-61979000D01*
X118197000Y-61979000D01*
X118203000Y-61980000D01*
G36*
X118203000Y-61980000D02*
G01*
X118208000Y-61980000D01*
X118214000Y-61982000D01*
X118219000Y-61983000D01*
X118225000Y-61985000D01*
X118230000Y-61987000D01*
X118235000Y-61989000D01*
X118240000Y-61991000D01*
X118245000Y-61994000D01*
X118250000Y-61997000D01*
X118254000Y-62000000D01*
X118259000Y-62004000D01*
X118263000Y-62008000D01*
X118267000Y-62012000D01*
X118271000Y-62016000D01*
X118274000Y-62020000D01*
X118278000Y-62025000D01*
X118281000Y-62029000D01*
X118284000Y-62034000D01*
X118286000Y-62039000D01*
X118289000Y-62044000D01*
X118291000Y-62050000D01*
X118293000Y-62055000D01*
X118294000Y-62060000D01*
X118295000Y-62066000D01*
X118296000Y-62072000D01*
X118297000Y-62077000D01*
X118297000Y-62083000D01*
X118297000Y-62088000D01*
X118297000Y-62094000D01*
X118297000Y-62314000D01*
X118297000Y-62320000D01*
X118297000Y-62325000D01*
X118297000Y-62331000D01*
X118296000Y-62336000D01*
X118295000Y-62342000D01*
X118294000Y-62348000D01*
X118293000Y-62353000D01*
X118291000Y-62358000D01*
X118289000Y-62364000D01*
X118286000Y-62369000D01*
X118284000Y-62374000D01*
X118281000Y-62379000D01*
X118278000Y-62383000D01*
X118274000Y-62388000D01*
X118271000Y-62392000D01*
X118267000Y-62396000D01*
X118263000Y-62400000D01*
X118259000Y-62404000D01*
X118254000Y-62408000D01*
X118250000Y-62411000D01*
X118245000Y-62414000D01*
X118240000Y-62417000D01*
X118235000Y-62419000D01*
X118230000Y-62421000D01*
X118225000Y-62423000D01*
X118219000Y-62425000D01*
X118214000Y-62426000D01*
X118208000Y-62428000D01*
X118203000Y-62428000D01*
X118197000Y-62429000D01*
X117897000Y-62429000D01*
X117891000Y-62428000D01*
X117886000Y-62428000D01*
X117880000Y-62426000D01*
X117875000Y-62425000D01*
X117869000Y-62423000D01*
X117864000Y-62421000D01*
X117859000Y-62419000D01*
X117854000Y-62417000D01*
X117849000Y-62414000D01*
X117844000Y-62411000D01*
X117840000Y-62408000D01*
X117835000Y-62404000D01*
X117831000Y-62400000D01*
X117827000Y-62396000D01*
X117823000Y-62392000D01*
X117820000Y-62388000D01*
X117816000Y-62383000D01*
X117813000Y-62379000D01*
X117810000Y-62374000D01*
X117808000Y-62369000D01*
X117805000Y-62364000D01*
X117803000Y-62358000D01*
X117801000Y-62353000D01*
X117800000Y-62348000D01*
X117799000Y-62342000D01*
X117798000Y-62336000D01*
X117797000Y-62331000D01*
X117797000Y-62325000D01*
X117797000Y-62320000D01*
X117797000Y-62314000D01*
X117797000Y-62094000D01*
X117797000Y-62088000D01*
X117797000Y-62083000D01*
X117797000Y-62077000D01*
X117798000Y-62072000D01*
X117799000Y-62066000D01*
X117800000Y-62060000D01*
X117801000Y-62055000D01*
X117803000Y-62050000D01*
X117805000Y-62044000D01*
X117808000Y-62039000D01*
X117810000Y-62034000D01*
X117813000Y-62029000D01*
X117816000Y-62025000D01*
X117820000Y-62020000D01*
X117823000Y-62016000D01*
X117827000Y-62012000D01*
X117831000Y-62008000D01*
X117835000Y-62004000D01*
X117840000Y-62000000D01*
X117844000Y-61997000D01*
X117849000Y-61994000D01*
X117854000Y-61991000D01*
X117859000Y-61989000D01*
X117864000Y-61987000D01*
X117869000Y-61985000D01*
X117875000Y-61983000D01*
X117880000Y-61982000D01*
X117886000Y-61980000D01*
X117891000Y-61980000D01*
X117897000Y-61979000D01*
X118197000Y-61979000D01*
X118203000Y-61980000D01*
G37*
X118203000Y-63480000D02*
X118208000Y-63480000D01*
X118214000Y-63482000D01*
X118219000Y-63483000D01*
X118225000Y-63485000D01*
X118230000Y-63487000D01*
X118235000Y-63489000D01*
X118240000Y-63491000D01*
X118245000Y-63494000D01*
X118250000Y-63497000D01*
X118254000Y-63500000D01*
X118259000Y-63504000D01*
X118263000Y-63508000D01*
X118267000Y-63512000D01*
X118271000Y-63516000D01*
X118274000Y-63520000D01*
X118278000Y-63525000D01*
X118281000Y-63529000D01*
X118284000Y-63534000D01*
X118286000Y-63539000D01*
X118289000Y-63544000D01*
X118291000Y-63550000D01*
X118293000Y-63555000D01*
X118294000Y-63560000D01*
X118295000Y-63566000D01*
X118296000Y-63572000D01*
X118297000Y-63577000D01*
X118297000Y-63583000D01*
X118297000Y-63588000D01*
X118297000Y-63594000D01*
X118297000Y-63814000D01*
X118297000Y-63820000D01*
X118297000Y-63825000D01*
X118297000Y-63831000D01*
X118296000Y-63836000D01*
X118295000Y-63842000D01*
X118294000Y-63848000D01*
X118293000Y-63853000D01*
X118291000Y-63858000D01*
X118289000Y-63864000D01*
X118286000Y-63869000D01*
X118284000Y-63874000D01*
X118281000Y-63879000D01*
X118278000Y-63883000D01*
X118274000Y-63888000D01*
X118271000Y-63892000D01*
X118267000Y-63896000D01*
X118263000Y-63900000D01*
X118259000Y-63904000D01*
X118254000Y-63908000D01*
X118250000Y-63911000D01*
X118245000Y-63914000D01*
X118240000Y-63917000D01*
X118235000Y-63919000D01*
X118230000Y-63921000D01*
X118225000Y-63923000D01*
X118219000Y-63925000D01*
X118214000Y-63926000D01*
X118208000Y-63928000D01*
X118203000Y-63928000D01*
X118197000Y-63929000D01*
X117897000Y-63929000D01*
X117891000Y-63928000D01*
X117886000Y-63928000D01*
X117880000Y-63926000D01*
X117875000Y-63925000D01*
X117869000Y-63923000D01*
X117864000Y-63921000D01*
X117859000Y-63919000D01*
X117854000Y-63917000D01*
X117849000Y-63914000D01*
X117844000Y-63911000D01*
X117840000Y-63908000D01*
X117835000Y-63904000D01*
X117831000Y-63900000D01*
X117827000Y-63896000D01*
X117823000Y-63892000D01*
X117820000Y-63888000D01*
X117816000Y-63883000D01*
X117813000Y-63879000D01*
X117810000Y-63874000D01*
X117808000Y-63869000D01*
X117805000Y-63864000D01*
X117803000Y-63858000D01*
X117801000Y-63853000D01*
X117800000Y-63848000D01*
X117799000Y-63842000D01*
X117798000Y-63836000D01*
X117797000Y-63831000D01*
X117797000Y-63825000D01*
X117797000Y-63820000D01*
X117797000Y-63814000D01*
X117797000Y-63594000D01*
X117797000Y-63588000D01*
X117797000Y-63583000D01*
X117797000Y-63577000D01*
X117798000Y-63572000D01*
X117799000Y-63566000D01*
X117800000Y-63560000D01*
X117801000Y-63555000D01*
X117803000Y-63550000D01*
X117805000Y-63544000D01*
X117808000Y-63539000D01*
X117810000Y-63534000D01*
X117813000Y-63529000D01*
X117816000Y-63525000D01*
X117820000Y-63520000D01*
X117823000Y-63516000D01*
X117827000Y-63512000D01*
X117831000Y-63508000D01*
X117835000Y-63504000D01*
X117840000Y-63500000D01*
X117844000Y-63497000D01*
X117849000Y-63494000D01*
X117854000Y-63491000D01*
X117859000Y-63489000D01*
X117864000Y-63487000D01*
X117869000Y-63485000D01*
X117875000Y-63483000D01*
X117880000Y-63482000D01*
X117886000Y-63480000D01*
X117891000Y-63480000D01*
X117897000Y-63479000D01*
X118197000Y-63479000D01*
X118203000Y-63480000D01*
G36*
X118203000Y-63480000D02*
G01*
X118208000Y-63480000D01*
X118214000Y-63482000D01*
X118219000Y-63483000D01*
X118225000Y-63485000D01*
X118230000Y-63487000D01*
X118235000Y-63489000D01*
X118240000Y-63491000D01*
X118245000Y-63494000D01*
X118250000Y-63497000D01*
X118254000Y-63500000D01*
X118259000Y-63504000D01*
X118263000Y-63508000D01*
X118267000Y-63512000D01*
X118271000Y-63516000D01*
X118274000Y-63520000D01*
X118278000Y-63525000D01*
X118281000Y-63529000D01*
X118284000Y-63534000D01*
X118286000Y-63539000D01*
X118289000Y-63544000D01*
X118291000Y-63550000D01*
X118293000Y-63555000D01*
X118294000Y-63560000D01*
X118295000Y-63566000D01*
X118296000Y-63572000D01*
X118297000Y-63577000D01*
X118297000Y-63583000D01*
X118297000Y-63588000D01*
X118297000Y-63594000D01*
X118297000Y-63814000D01*
X118297000Y-63820000D01*
X118297000Y-63825000D01*
X118297000Y-63831000D01*
X118296000Y-63836000D01*
X118295000Y-63842000D01*
X118294000Y-63848000D01*
X118293000Y-63853000D01*
X118291000Y-63858000D01*
X118289000Y-63864000D01*
X118286000Y-63869000D01*
X118284000Y-63874000D01*
X118281000Y-63879000D01*
X118278000Y-63883000D01*
X118274000Y-63888000D01*
X118271000Y-63892000D01*
X118267000Y-63896000D01*
X118263000Y-63900000D01*
X118259000Y-63904000D01*
X118254000Y-63908000D01*
X118250000Y-63911000D01*
X118245000Y-63914000D01*
X118240000Y-63917000D01*
X118235000Y-63919000D01*
X118230000Y-63921000D01*
X118225000Y-63923000D01*
X118219000Y-63925000D01*
X118214000Y-63926000D01*
X118208000Y-63928000D01*
X118203000Y-63928000D01*
X118197000Y-63929000D01*
X117897000Y-63929000D01*
X117891000Y-63928000D01*
X117886000Y-63928000D01*
X117880000Y-63926000D01*
X117875000Y-63925000D01*
X117869000Y-63923000D01*
X117864000Y-63921000D01*
X117859000Y-63919000D01*
X117854000Y-63917000D01*
X117849000Y-63914000D01*
X117844000Y-63911000D01*
X117840000Y-63908000D01*
X117835000Y-63904000D01*
X117831000Y-63900000D01*
X117827000Y-63896000D01*
X117823000Y-63892000D01*
X117820000Y-63888000D01*
X117816000Y-63883000D01*
X117813000Y-63879000D01*
X117810000Y-63874000D01*
X117808000Y-63869000D01*
X117805000Y-63864000D01*
X117803000Y-63858000D01*
X117801000Y-63853000D01*
X117800000Y-63848000D01*
X117799000Y-63842000D01*
X117798000Y-63836000D01*
X117797000Y-63831000D01*
X117797000Y-63825000D01*
X117797000Y-63820000D01*
X117797000Y-63814000D01*
X117797000Y-63594000D01*
X117797000Y-63588000D01*
X117797000Y-63583000D01*
X117797000Y-63577000D01*
X117798000Y-63572000D01*
X117799000Y-63566000D01*
X117800000Y-63560000D01*
X117801000Y-63555000D01*
X117803000Y-63550000D01*
X117805000Y-63544000D01*
X117808000Y-63539000D01*
X117810000Y-63534000D01*
X117813000Y-63529000D01*
X117816000Y-63525000D01*
X117820000Y-63520000D01*
X117823000Y-63516000D01*
X117827000Y-63512000D01*
X117831000Y-63508000D01*
X117835000Y-63504000D01*
X117840000Y-63500000D01*
X117844000Y-63497000D01*
X117849000Y-63494000D01*
X117854000Y-63491000D01*
X117859000Y-63489000D01*
X117864000Y-63487000D01*
X117869000Y-63485000D01*
X117875000Y-63483000D01*
X117880000Y-63482000D01*
X117886000Y-63480000D01*
X117891000Y-63480000D01*
X117897000Y-63479000D01*
X118197000Y-63479000D01*
X118203000Y-63480000D01*
G37*
%TD*%
D11*
%TO.C,H204*%
X103200000Y-96800000D03*
D12*
X103200000Y-96800000D03*
%TD*%
D11*
%TO.C,H203*%
X121800000Y-96800000D03*
D12*
X121800000Y-96800000D03*
%TD*%
D11*
%TO.C,H202*%
X103200000Y-53200000D03*
D12*
X103200000Y-53200000D03*
%TD*%
D11*
%TO.C,H201*%
X121800000Y-53200000D03*
D12*
X121800000Y-53200000D03*
%TD*%
D13*
%TO.C,U501*%
X109750000Y-79238000D03*
X110250000Y-79238000D03*
X110750000Y-79238000D03*
X111250000Y-79238000D03*
X111750000Y-79238000D03*
X112250000Y-79238000D03*
X112750000Y-79238000D03*
X113250000Y-79238000D03*
X113750000Y-79238000D03*
X114250000Y-79238000D03*
X114750000Y-79238000D03*
X115250000Y-79238000D03*
D14*
X116738000Y-77750000D03*
X116738000Y-77250000D03*
X116738000Y-76750000D03*
X116738000Y-76250000D03*
X116738000Y-75750000D03*
X116738000Y-75250000D03*
X116738000Y-74750000D03*
X116738000Y-74250000D03*
X116738000Y-73750000D03*
X116738000Y-73250000D03*
X116738000Y-72750000D03*
X116738000Y-72250000D03*
D13*
X115250000Y-70762000D03*
X114750000Y-70762000D03*
X114250000Y-70762000D03*
X113750000Y-70762000D03*
X113250000Y-70762000D03*
X112750000Y-70762000D03*
X112250000Y-70762000D03*
X111750000Y-70762000D03*
X111250000Y-70762000D03*
X110750000Y-70762000D03*
X110250000Y-70762000D03*
X109750000Y-70762000D03*
D14*
X108262000Y-72250000D03*
X108262000Y-72750000D03*
X108262000Y-73250000D03*
X108262000Y-73750000D03*
X108262000Y-74250000D03*
X108262000Y-74750000D03*
X108262000Y-75250000D03*
X108262000Y-75750000D03*
X108262000Y-76250000D03*
X108262000Y-76750000D03*
X108262000Y-77250000D03*
X108262000Y-77750000D03*
%TD*%
D15*
%TO.C,U301*%
X110709000Y-62408000D03*
X111359000Y-62408000D03*
X112009000Y-62408000D03*
X112659000Y-62408000D03*
X112659000Y-64008000D03*
X112009000Y-64008000D03*
X111359000Y-64008000D03*
X110709000Y-64008000D03*
%TD*%
D16*
%TO.C,PS201*%
X109464000Y-88738000D03*
X111364000Y-88738000D03*
X110414000Y-85938000D03*
%TD*%
D17*
%TO.C,J203*%
X121000000Y-90540000D03*
D18*
X121000000Y-88040000D03*
%TD*%
%TO.C,J202*%
X104000000Y-90500000D03*
D19*
X104000000Y-88000000D03*
%TD*%
D20*
%TO.C,J201*%
X115390000Y-56274218D03*
X109610000Y-56274218D03*
D21*
X115700000Y-57349218D03*
X114900000Y-57349218D03*
D22*
X113750000Y-57349218D03*
X112750000Y-57349218D03*
X112250000Y-57349218D03*
X111250000Y-57349218D03*
D21*
X109300000Y-57349218D03*
X110100000Y-57349218D03*
D22*
X110750000Y-57349218D03*
X111750000Y-57349218D03*
X113250000Y-57349218D03*
X114250000Y-57349218D03*
D23*
X116820000Y-56774218D03*
D24*
X116820000Y-52594218D03*
X108180000Y-52594218D03*
D23*
X108180000Y-56774218D03*
%TD*%
D25*
%TO.C,D501*%
X113375000Y-96736000D03*
X111625000Y-96736000D03*
%TD*%
%TO.C,D201*%
X111625000Y-95000000D03*
X113375000Y-95000000D03*
%TD*%
D26*
%TO.C,C408*%
X107620000Y-81395500D03*
X107620000Y-83120500D03*
%TD*%
%TO.C,C407*%
X116510000Y-81395500D03*
X116510000Y-83120500D03*
%TD*%
%TO.C,C405*%
X109398000Y-83120500D03*
X109398000Y-81395500D03*
%TD*%
D27*
%TO.C,C404*%
X109652000Y-66917500D03*
X109652000Y-68642500D03*
%TD*%
D28*
%TO.C,C403*%
X104217500Y-78194000D03*
X105942500Y-78194000D03*
%TD*%
D26*
%TO.C,C402*%
X113716000Y-83120500D03*
X113716000Y-81395500D03*
%TD*%
D29*
%TO.C,C401*%
X118949500Y-72098000D03*
X120674500Y-72098000D03*
%TD*%
M02*
