%TF.GenerationSoftware,KiCad,Pcbnew,7.0.2*%
%TF.CreationDate,2023-08-12T21:53:35+01:00*%
%TF.ProjectId,lil-flite,6c696c2d-666c-4697-9465-2e6b69636164,rev?*%
%TF.SameCoordinates,Original*%
%TF.FileFunction,Copper,L1,Top*%
%TF.FilePolarity,Positive*%
%FSLAX46Y46*%
G04 Gerber Fmt 4.6, Leading zero omitted, Abs format (unit mm)*
G04 Created by KiCad (PCBNEW 7.0.2) date 2023-08-12 21:53:35*
%MOMM*%
%LPD*%
G01*
G04 APERTURE LIST*
G04 Aperture macros list*
%AMRoundRect*
0 Rectangle with rounded corners*
0 $1 Rounding radius*
0 $2 $3 $4 $5 $6 $7 $8 $9 X,Y pos of 4 corners*
0 Add a 4 corners polygon primitive as box body*
4,1,4,$2,$3,$4,$5,$6,$7,$8,$9,$2,$3,0*
0 Add four circle primitives for the rounded corners*
1,1,$1+$1,$2,$3*
1,1,$1+$1,$4,$5*
1,1,$1+$1,$6,$7*
1,1,$1+$1,$8,$9*
0 Add four rect primitives between the rounded corners*
20,1,$1+$1,$2,$3,$4,$5,0*
20,1,$1+$1,$4,$5,$6,$7,0*
20,1,$1+$1,$6,$7,$8,$9,0*
20,1,$1+$1,$8,$9,$2,$3,0*%
G04 Aperture macros list end*
%TA.AperFunction,ComponentPad*%
%ADD10C,3.600000*%
%TD*%
%TA.AperFunction,ConnectorPad*%
%ADD11C,5.600000*%
%TD*%
%TA.AperFunction,SMDPad,CuDef*%
%ADD12R,0.300000X1.475000*%
%TD*%
%TA.AperFunction,SMDPad,CuDef*%
%ADD13R,1.475000X0.300000*%
%TD*%
%TA.AperFunction,SMDPad,CuDef*%
%ADD14RoundRect,0.031500X-0.168500X-0.143500X0.168500X-0.143500X0.168500X0.143500X-0.168500X0.143500X0*%
%TD*%
%TA.AperFunction,SMDPad,CuDef*%
%ADD15RoundRect,0.035000X-0.140000X-0.165000X0.140000X-0.165000X0.140000X0.165000X-0.140000X0.165000X0*%
%TD*%
%TA.AperFunction,SMDPad,CuDef*%
%ADD16R,0.350000X0.500000*%
%TD*%
%TA.AperFunction,SMDPad,CuDef*%
%ADD17R,0.600000X0.900000*%
%TD*%
%TA.AperFunction,ComponentPad*%
%ADD18RoundRect,0.250000X0.750000X-0.600000X0.750000X0.600000X-0.750000X0.600000X-0.750000X-0.600000X0*%
%TD*%
%TA.AperFunction,ComponentPad*%
%ADD19O,2.000000X1.700000*%
%TD*%
%TA.AperFunction,ComponentPad*%
%ADD20RoundRect,0.250000X-0.750000X0.600000X-0.750000X-0.600000X0.750000X-0.600000X0.750000X0.600000X0*%
%TD*%
%TA.AperFunction,SMDPad,CuDef*%
%ADD21R,0.600000X1.150000*%
%TD*%
%TA.AperFunction,SMDPad,CuDef*%
%ADD22R,0.300000X1.150000*%
%TD*%
%TA.AperFunction,ComponentPad*%
%ADD23O,1.050000X2.100000*%
%TD*%
%TA.AperFunction,ComponentPad*%
%ADD24O,1.000000X2.000000*%
%TD*%
%TA.AperFunction,SMDPad,CuDef*%
%ADD25RoundRect,0.237500X-0.287500X-0.237500X0.287500X-0.237500X0.287500X0.237500X-0.287500X0.237500X0*%
%TD*%
%TA.AperFunction,SMDPad,CuDef*%
%ADD26RoundRect,0.237500X0.237500X-0.300000X0.237500X0.300000X-0.237500X0.300000X-0.237500X-0.300000X0*%
%TD*%
%TA.AperFunction,SMDPad,CuDef*%
%ADD27RoundRect,0.237500X-0.237500X0.300000X-0.237500X-0.300000X0.237500X-0.300000X0.237500X0.300000X0*%
%TD*%
%TA.AperFunction,SMDPad,CuDef*%
%ADD28RoundRect,0.237500X-0.300000X-0.237500X0.300000X-0.237500X0.300000X0.237500X-0.300000X0.237500X0*%
%TD*%
%TA.AperFunction,SMDPad,CuDef*%
%ADD29RoundRect,0.237500X0.300000X0.237500X-0.300000X0.237500X-0.300000X-0.237500X0.300000X-0.237500X0*%
%TD*%
%ADD30C,0.350000*%
%ADD31O,0.600000X1.700000*%
%ADD32O,0.600000X1.400000*%
G04 APERTURE END LIST*
D10*
%TO.P,H204,1*%
%TO.N,N/C*%
X103200000Y-96800000D03*
D11*
X103200000Y-96800000D03*
%TD*%
D10*
%TO.P,H203,1*%
%TO.N,N/C*%
X121800000Y-96800000D03*
D11*
X121800000Y-96800000D03*
%TD*%
D10*
%TO.P,H202,1*%
%TO.N,N/C*%
X103200000Y-53200000D03*
D11*
X103200000Y-53200000D03*
%TD*%
D10*
%TO.P,H201,1*%
%TO.N,N/C*%
X121800000Y-53200000D03*
D11*
X121800000Y-53200000D03*
%TD*%
D12*
%TO.P,U501,1,VBAT*%
%TO.N,VCC*%
X109750000Y-79238000D03*
%TO.P,U501,2,PC13-TAMPER-RTC*%
%TO.N,unconnected-(U501-PC13-TAMPER-RTC-Pad2)*%
X110250000Y-79238000D03*
%TO.P,U501,3,PC14-OSC32_IN*%
%TO.N,unconnected-(U501-PC14-OSC32_IN-Pad3)*%
X110750000Y-79238000D03*
%TO.P,U501,4,PC15-OSC32_OUT*%
%TO.N,unconnected-(U501-PC15-OSC32_OUT-Pad4)*%
X111250000Y-79238000D03*
%TO.P,U501,5,PD0_OSC_IN*%
%TO.N,unconnected-(U501-PD0_OSC_IN-Pad5)*%
X111750000Y-79238000D03*
%TO.P,U501,6,PD1_OSC_OUT*%
%TO.N,unconnected-(U501-PD1_OSC_OUT-Pad6)*%
X112250000Y-79238000D03*
%TO.P,U501,7,NRST*%
%TO.N,unconnected-(U501-NRST-Pad7)*%
X112750000Y-79238000D03*
%TO.P,U501,8,VSSA*%
%TO.N,GND*%
X113250000Y-79238000D03*
%TO.P,U501,9,VDDA*%
%TO.N,VCC*%
X113750000Y-79238000D03*
%TO.P,U501,10,PA0_WKUP*%
%TO.N,unconnected-(U501-PA0_WKUP-Pad10)*%
X114250000Y-79238000D03*
%TO.P,U501,11,PA1*%
%TO.N,unconnected-(U501-PA1-Pad11)*%
X114750000Y-79238000D03*
%TO.P,U501,12,PA2*%
%TO.N,unconnected-(U501-PA2-Pad12)*%
X115250000Y-79238000D03*
D13*
%TO.P,U501,13,PA3*%
%TO.N,unconnected-(U501-PA3-Pad13)*%
X116738000Y-77750000D03*
%TO.P,U501,14,PA4*%
%TO.N,unconnected-(U501-PA4-Pad14)*%
X116738000Y-77250000D03*
%TO.P,U501,15,PA5*%
%TO.N,unconnected-(U501-PA5-Pad15)*%
X116738000Y-76750000D03*
%TO.P,U501,16,PA6*%
%TO.N,unconnected-(U501-PA6-Pad16)*%
X116738000Y-76250000D03*
%TO.P,U501,17,PA7*%
%TO.N,unconnected-(U501-PA7-Pad17)*%
X116738000Y-75750000D03*
%TO.P,U501,18,PB0*%
%TO.N,unconnected-(U501-PB0-Pad18)*%
X116738000Y-75250000D03*
%TO.P,U501,19,PB1*%
%TO.N,unconnected-(U501-PB1-Pad19)*%
X116738000Y-74750000D03*
%TO.P,U501,20,PB2*%
%TO.N,unconnected-(U501-PB2-Pad20)*%
X116738000Y-74250000D03*
%TO.P,U501,21,PB10*%
%TO.N,unconnected-(U501-PB10-Pad21)*%
X116738000Y-73750000D03*
%TO.P,U501,22,PB11*%
%TO.N,unconnected-(U501-PB11-Pad22)*%
X116738000Y-73250000D03*
%TO.P,U501,23,VSS*%
%TO.N,GND*%
X116738000Y-72750000D03*
%TO.P,U501,24,VDD*%
%TO.N,VCC*%
X116738000Y-72250000D03*
D12*
%TO.P,U501,25,PB12*%
%TO.N,unconnected-(U501-PB12-Pad25)*%
X115250000Y-70762000D03*
%TO.P,U501,26,PB13*%
%TO.N,unconnected-(U501-PB13-Pad26)*%
X114750000Y-70762000D03*
%TO.P,U501,27,PB14*%
%TO.N,unconnected-(U501-PB14-Pad27)*%
X114250000Y-70762000D03*
%TO.P,U501,28,PB15*%
%TO.N,unconnected-(U501-PB15-Pad28)*%
X113750000Y-70762000D03*
%TO.P,U501,29,PA8*%
%TO.N,unconnected-(U501-PA8-Pad29)*%
X113250000Y-70762000D03*
%TO.P,U501,30,PA9*%
%TO.N,unconnected-(U501-PA9-Pad30)*%
X112750000Y-70762000D03*
%TO.P,U501,31,PA10*%
%TO.N,unconnected-(U501-PA10-Pad31)*%
X112250000Y-70762000D03*
%TO.P,U501,32,PA11*%
%TO.N,/MCU/USB.Data_-*%
X111750000Y-70762000D03*
%TO.P,U501,33,PA12*%
%TO.N,/MCU/USB.Data_+*%
X111250000Y-70762000D03*
%TO.P,U501,34,PA13*%
%TO.N,/MCU/JTAG.MS&SWDIO*%
X110750000Y-70762000D03*
%TO.P,U501,35,VSS*%
%TO.N,GND*%
X110250000Y-70762000D03*
%TO.P,U501,36,VDD*%
%TO.N,VCC*%
X109750000Y-70762000D03*
D13*
%TO.P,U501,37,PA14*%
%TO.N,/MCU/JTAG.CLK*%
X108262000Y-72250000D03*
%TO.P,U501,38,PA15*%
%TO.N,/MCU/JTAG.DI*%
X108262000Y-72750000D03*
%TO.P,U501,39,PB3*%
%TO.N,/MCU/JTAG.DO&SWO*%
X108262000Y-73250000D03*
%TO.P,U501,40,PB4*%
%TO.N,/MCU/JTAG.NJTRST*%
X108262000Y-73750000D03*
%TO.P,U501,41,PB5*%
%TO.N,unconnected-(U501-PB5-Pad41)*%
X108262000Y-74250000D03*
%TO.P,U501,42,PB6*%
%TO.N,unconnected-(U501-PB6-Pad42)*%
X108262000Y-74750000D03*
%TO.P,U501,43,PB7*%
%TO.N,unconnected-(U501-PB7-Pad43)*%
X108262000Y-75250000D03*
%TO.P,U501,44,BOOT0*%
%TO.N,unconnected-(U501-BOOT0-Pad44)*%
X108262000Y-75750000D03*
%TO.P,U501,45,PB8*%
%TO.N,unconnected-(U501-PB8-Pad45)*%
X108262000Y-76250000D03*
%TO.P,U501,46,PB9*%
%TO.N,unconnected-(U501-PB9-Pad46)*%
X108262000Y-76750000D03*
%TO.P,U501,47,VSS*%
%TO.N,GND*%
X108262000Y-77250000D03*
%TO.P,U501,48,VDD*%
%TO.N,VCC*%
X108262000Y-77750000D03*
%TD*%
D14*
%TO.P,U302,1,A5*%
%TO.N,unconnected-(U302-A5-Pad1)*%
X116497000Y-62204000D03*
%TO.P,U302,2,SDA*%
%TO.N,unconnected-(U302-SDA-Pad2)*%
X116507000Y-62704000D03*
%TO.P,U302,3,VDDIO*%
%TO.N,unconnected-(U302-VDDIO-Pad3)*%
X116507000Y-63204000D03*
%TO.P,U302,4,NC*%
%TO.N,unconnected-(U302-NC-Pad4)*%
X116497000Y-63704000D03*
D15*
%TO.P,U302,5,INTA*%
%TO.N,unconnected-(U302-INTA-Pad5)*%
X117022000Y-63719000D03*
%TO.P,U302,6,INTM*%
%TO.N,unconnected-(U302-INTM-Pad6)*%
X117522000Y-63719000D03*
D14*
%TO.P,U302,7,VDDM*%
%TO.N,unconnected-(U302-VDDM-Pad7)*%
X118047000Y-63704000D03*
%TO.P,U302,8,TM*%
%TO.N,unconnected-(U302-TM-Pad8)*%
X118037000Y-63204000D03*
%TO.P,U302,9,GND*%
%TO.N,unconnected-(U302-GND-Pad9)*%
X118037000Y-62704000D03*
%TO.P,U302,10,PM*%
%TO.N,unconnected-(U302-PM-Pad10)*%
X118047000Y-62204000D03*
D15*
%TO.P,U302,11,NC*%
%TO.N,unconnected-(U302-NC-Pad11)*%
X117522000Y-62189000D03*
%TO.P,U302,12,SCL*%
%TO.N,unconnected-(U302-SCL-Pad12)*%
X117022000Y-62189000D03*
%TD*%
D16*
%TO.P,U301,1,GND*%
%TO.N,unconnected-(U301-GND-Pad1)*%
X110709000Y-62408000D03*
%TO.P,U301,2,CSB*%
%TO.N,unconnected-(U301-CSB-Pad2)*%
X111359000Y-62408000D03*
%TO.P,U301,3,SDI*%
%TO.N,unconnected-(U301-SDI-Pad3)*%
X112009000Y-62408000D03*
%TO.P,U301,4,SCK*%
%TO.N,unconnected-(U301-SCK-Pad4)*%
X112659000Y-62408000D03*
%TO.P,U301,5,SDO*%
%TO.N,unconnected-(U301-SDO-Pad5)*%
X112659000Y-64008000D03*
%TO.P,U301,6,VDDIO*%
%TO.N,unconnected-(U301-VDDIO-Pad6)*%
X112009000Y-64008000D03*
%TO.P,U301,7,GND*%
%TO.N,unconnected-(U301-GND-Pad7)*%
X111359000Y-64008000D03*
%TO.P,U301,8,VDD*%
%TO.N,unconnected-(U301-VDD-Pad8)*%
X110709000Y-64008000D03*
%TD*%
D17*
%TO.P,PS201,1,VSS*%
%TO.N,unconnected-(PS201-VSS-Pad1)*%
X109464000Y-88738000D03*
%TO.P,PS201,2,VOUT*%
%TO.N,unconnected-(PS201-VOUT-Pad2)*%
X111364000Y-88738000D03*
%TO.P,PS201,3,VIN*%
%TO.N,unconnected-(PS201-VIN-Pad3)*%
X110414000Y-85938000D03*
%TD*%
D18*
%TO.P,J203,1,Pin_1*%
%TO.N,GND*%
X121000000Y-90540000D03*
D19*
%TO.P,J203,2,Pin_2*%
%TO.N,/Connectors + Power/RECOVERY_LED*%
X121000000Y-88040000D03*
%TD*%
%TO.P,J202,2,Pin_2*%
%TO.N,GND*%
X104000000Y-90500000D03*
D20*
%TO.P,J202,1,Pin_1*%
%TO.N,+BATT*%
X104000000Y-88000000D03*
%TD*%
D21*
%TO.P,J201,A1_B12,GND*%
%TO.N,GND*%
X115700000Y-57349218D03*
%TO.P,J201,A4_B9,VBUS*%
%TO.N,+5V*%
X114900000Y-57349218D03*
D22*
%TO.P,J201,A5,CC1*%
%TO.N,/Connectors + Power/USB.CC1*%
X113750000Y-57349218D03*
%TO.P,J201,A6,DP1*%
%TO.N,/Connectors + Power/USB.Data_+*%
X112750000Y-57349218D03*
%TO.P,J201,A7,DN1*%
%TO.N,/Connectors + Power/USB.Data_-*%
X112250000Y-57349218D03*
%TO.P,J201,A8,SBU1*%
%TO.N,unconnected-(J201-SBU1-PadA8)*%
X111250000Y-57349218D03*
D21*
%TO.P,J201,B1_A12,GND*%
%TO.N,GND*%
X109300000Y-57349218D03*
%TO.P,J201,B4_A9,VBUS*%
%TO.N,+5V*%
X110100000Y-57349218D03*
D22*
%TO.P,J201,B5,CC2*%
%TO.N,/Connectors + Power/USB.CC2*%
X110750000Y-57349218D03*
%TO.P,J201,B6,DP2*%
%TO.N,/Connectors + Power/USB.Data_+*%
X111750000Y-57349218D03*
%TO.P,J201,B7,DN2*%
%TO.N,/Connectors + Power/USB.Data_-*%
X113250000Y-57349218D03*
%TO.P,J201,B8,SBU2*%
%TO.N,unconnected-(J201-SBU2-PadB8)*%
X114250000Y-57349218D03*
D23*
%TO.P,J201,S1,SHELL_GND*%
%TO.N,GND*%
X116820000Y-56774218D03*
D24*
%TO.P,J201,S2,SHELL_GND*%
X116820000Y-52594218D03*
%TO.P,J201,S3,SHELL_GND*%
X108180000Y-52594218D03*
D23*
%TO.P,J201,S4,SHELL_GND*%
X108180000Y-56774218D03*
%TD*%
D25*
%TO.P,D501,2,A*%
%TO.N,unconnected-(D501-A-Pad2)*%
X113375000Y-96736000D03*
%TO.P,D501,1,K*%
%TO.N,unconnected-(D501-K-Pad1)*%
X111625000Y-96736000D03*
%TD*%
%TO.P,D201,1,K*%
%TO.N,unconnected-(D201-K-Pad1)*%
X111625000Y-95000000D03*
%TO.P,D201,2,A*%
%TO.N,unconnected-(D201-A-Pad2)*%
X113375000Y-95000000D03*
%TD*%
D26*
%TO.P,C408,2,-*%
%TO.N,VCC*%
X107620000Y-81395500D03*
%TO.P,C408,1,+*%
%TO.N,GND*%
X107620000Y-83120500D03*
%TD*%
%TO.P,C407,2,-*%
%TO.N,VCC*%
X116510000Y-81395500D03*
%TO.P,C407,1,+*%
%TO.N,GND*%
X116510000Y-83120500D03*
%TD*%
%TO.P,C405,1,+*%
%TO.N,GND*%
X109398000Y-83120500D03*
%TO.P,C405,2,-*%
%TO.N,VCC*%
X109398000Y-81395500D03*
%TD*%
D27*
%TO.P,C404,1,+*%
%TO.N,GND*%
X109652000Y-66917500D03*
%TO.P,C404,2,-*%
%TO.N,VCC*%
X109652000Y-68642500D03*
%TD*%
D28*
%TO.P,C403,1,+*%
%TO.N,GND*%
X104217500Y-78194000D03*
%TO.P,C403,2,-*%
%TO.N,VCC*%
X105942500Y-78194000D03*
%TD*%
D26*
%TO.P,C402,1,+*%
%TO.N,GND*%
X113716000Y-83120500D03*
%TO.P,C402,2,-*%
%TO.N,VCC*%
X113716000Y-81395500D03*
%TD*%
D29*
%TO.P,C401,2,-*%
%TO.N,VCC*%
X118949500Y-72098000D03*
%TO.P,C401,1,+*%
%TO.N,GND*%
X120674500Y-72098000D03*
%TD*%
%TA.AperFunction,Conductor*%
%TO.N,GND*%
G36*
X119859444Y-50320185D02*
G01*
X119905199Y-50372989D01*
X119915143Y-50442147D01*
X119886118Y-50505703D01*
X119867447Y-50523216D01*
X119662822Y-50678767D01*
X119662814Y-50678773D01*
X119660163Y-50680789D01*
X119657739Y-50683084D01*
X119657732Y-50683091D01*
X119402769Y-50924604D01*
X119402754Y-50924619D01*
X119400332Y-50926914D01*
X119398169Y-50929459D01*
X119398158Y-50929472D01*
X119170808Y-51197130D01*
X119170802Y-51197137D01*
X119168635Y-51199689D01*
X119166755Y-51202461D01*
X119166748Y-51202471D01*
X118969679Y-51493126D01*
X118969671Y-51493138D01*
X118967789Y-51495915D01*
X118966214Y-51498885D01*
X118966212Y-51498889D01*
X118801722Y-51809148D01*
X118801717Y-51809157D01*
X118800147Y-51812120D01*
X118798906Y-51815232D01*
X118798902Y-51815243D01*
X118668924Y-52141464D01*
X118667676Y-52144597D01*
X118666775Y-52147841D01*
X118666773Y-52147848D01*
X118572828Y-52486209D01*
X118571929Y-52489448D01*
X118571388Y-52492747D01*
X118571384Y-52492766D01*
X118514573Y-52839302D01*
X118514028Y-52842629D01*
X118513846Y-52845979D01*
X118513845Y-52845992D01*
X118497808Y-53141788D01*
X118494652Y-53200000D01*
X118494834Y-53203356D01*
X118513845Y-53554007D01*
X118513846Y-53554018D01*
X118514028Y-53557371D01*
X118514572Y-53560692D01*
X118514573Y-53560697D01*
X118571384Y-53907233D01*
X118571387Y-53907248D01*
X118571929Y-53910552D01*
X118572827Y-53913789D01*
X118572828Y-53913790D01*
X118615445Y-54067285D01*
X118667676Y-54255403D01*
X118800147Y-54587880D01*
X118967789Y-54904085D01*
X118969676Y-54906868D01*
X118969679Y-54906873D01*
X119152621Y-55176692D01*
X119168635Y-55200311D01*
X119400332Y-55473086D01*
X119402763Y-55475389D01*
X119402769Y-55475395D01*
X119450835Y-55520925D01*
X119660163Y-55719211D01*
X119945081Y-55935800D01*
X120251747Y-56120315D01*
X120576565Y-56270591D01*
X120915726Y-56384868D01*
X121265254Y-56461805D01*
X121621052Y-56500500D01*
X121624410Y-56500500D01*
X121975590Y-56500500D01*
X121978948Y-56500500D01*
X122334746Y-56461805D01*
X122684274Y-56384868D01*
X123023435Y-56270591D01*
X123348253Y-56120315D01*
X123654919Y-55935800D01*
X123939837Y-55719211D01*
X124199668Y-55473086D01*
X124431365Y-55200311D01*
X124472868Y-55139098D01*
X124526781Y-55094659D01*
X124596163Y-55086421D01*
X124658985Y-55117001D01*
X124695301Y-55176692D01*
X124699500Y-55208687D01*
X124699500Y-94791312D01*
X124679815Y-94858351D01*
X124627011Y-94904106D01*
X124557853Y-94914050D01*
X124494297Y-94885025D01*
X124472867Y-94860900D01*
X124471139Y-94858351D01*
X124431365Y-94799689D01*
X124199668Y-94526914D01*
X124197235Y-94524609D01*
X124197230Y-94524604D01*
X123961860Y-94301650D01*
X123939837Y-94280789D01*
X123654919Y-94064200D01*
X123652045Y-94062471D01*
X123652041Y-94062468D01*
X123351135Y-93881419D01*
X123351134Y-93881418D01*
X123348253Y-93879685D01*
X123345197Y-93878271D01*
X123026490Y-93730822D01*
X123026483Y-93730819D01*
X123023435Y-93729409D01*
X122935005Y-93699613D01*
X122687457Y-93616204D01*
X122687448Y-93616201D01*
X122684274Y-93615132D01*
X122681006Y-93614412D01*
X122680993Y-93614409D01*
X122338033Y-93538918D01*
X122338023Y-93538916D01*
X122334746Y-93538195D01*
X121978948Y-93499500D01*
X121621052Y-93499500D01*
X121617715Y-93499862D01*
X121617713Y-93499863D01*
X121268600Y-93537831D01*
X121268598Y-93537831D01*
X121265254Y-93538195D01*
X121261979Y-93538915D01*
X121261966Y-93538918D01*
X120919006Y-93614409D01*
X120918988Y-93614413D01*
X120915726Y-93615132D01*
X120912555Y-93616200D01*
X120912542Y-93616204D01*
X120579752Y-93728335D01*
X120579749Y-93728336D01*
X120576565Y-93729409D01*
X120573522Y-93730816D01*
X120573509Y-93730822D01*
X120254802Y-93878271D01*
X120254792Y-93878275D01*
X120251747Y-93879685D01*
X120248873Y-93881414D01*
X120248864Y-93881419D01*
X119947958Y-94062468D01*
X119947945Y-94062476D01*
X119945081Y-94064200D01*
X119942423Y-94066220D01*
X119942412Y-94066228D01*
X119662822Y-94278767D01*
X119662814Y-94278773D01*
X119660163Y-94280789D01*
X119657739Y-94283084D01*
X119657732Y-94283091D01*
X119402769Y-94524604D01*
X119402754Y-94524619D01*
X119400332Y-94526914D01*
X119398169Y-94529459D01*
X119398158Y-94529472D01*
X119170808Y-94797130D01*
X119170802Y-94797137D01*
X119168635Y-94799689D01*
X119166755Y-94802461D01*
X119166748Y-94802471D01*
X118969679Y-95093126D01*
X118969671Y-95093138D01*
X118967789Y-95095915D01*
X118966214Y-95098885D01*
X118966212Y-95098889D01*
X118801722Y-95409148D01*
X118801717Y-95409157D01*
X118800147Y-95412120D01*
X118798906Y-95415232D01*
X118798902Y-95415243D01*
X118668924Y-95741464D01*
X118667676Y-95744597D01*
X118666775Y-95747841D01*
X118666773Y-95747848D01*
X118584213Y-96045205D01*
X118571929Y-96089448D01*
X118571388Y-96092747D01*
X118571384Y-96092766D01*
X118529501Y-96348246D01*
X118514028Y-96442629D01*
X118513846Y-96445979D01*
X118513845Y-96445992D01*
X118513494Y-96452471D01*
X118494652Y-96800000D01*
X118494834Y-96803356D01*
X118513845Y-97154007D01*
X118513846Y-97154018D01*
X118514028Y-97157371D01*
X118514572Y-97160692D01*
X118514573Y-97160697D01*
X118571384Y-97507233D01*
X118571387Y-97507248D01*
X118571929Y-97510552D01*
X118667676Y-97855403D01*
X118800147Y-98187880D01*
X118967789Y-98504085D01*
X118969676Y-98506868D01*
X118969679Y-98506873D01*
X119152621Y-98776692D01*
X119168635Y-98800311D01*
X119400332Y-99073086D01*
X119402763Y-99075389D01*
X119402769Y-99075395D01*
X119581622Y-99244813D01*
X119660163Y-99319211D01*
X119662822Y-99321232D01*
X119867447Y-99476784D01*
X119908904Y-99533026D01*
X119913373Y-99602752D01*
X119879436Y-99663826D01*
X119817868Y-99696858D01*
X119792405Y-99699500D01*
X105207595Y-99699500D01*
X105140556Y-99679815D01*
X105094801Y-99627011D01*
X105084857Y-99557853D01*
X105113882Y-99494297D01*
X105132553Y-99476784D01*
X105339837Y-99319211D01*
X105599668Y-99073086D01*
X105831365Y-98800311D01*
X106032211Y-98504085D01*
X106199853Y-98187880D01*
X106332324Y-97855403D01*
X106428071Y-97510552D01*
X106485972Y-97157371D01*
X106493445Y-97019545D01*
X110599500Y-97019545D01*
X110599501Y-97022676D01*
X110599820Y-97025808D01*
X110599821Y-97025809D01*
X110609825Y-97123752D01*
X110664091Y-97287515D01*
X110754661Y-97434352D01*
X110876647Y-97556338D01*
X111023484Y-97646908D01*
X111187246Y-97701174D01*
X111285190Y-97711180D01*
X111285191Y-97711180D01*
X111288323Y-97711500D01*
X111961676Y-97711499D01*
X112062753Y-97701174D01*
X112226516Y-97646908D01*
X112373350Y-97556340D01*
X112412318Y-97517371D01*
X112473641Y-97483886D01*
X112543332Y-97488870D01*
X112587682Y-97517372D01*
X112626647Y-97556338D01*
X112773484Y-97646908D01*
X112937246Y-97701174D01*
X113035190Y-97711180D01*
X113035191Y-97711180D01*
X113038323Y-97711500D01*
X113711676Y-97711499D01*
X113812753Y-97701174D01*
X113976516Y-97646908D01*
X114123350Y-97556340D01*
X114245340Y-97434350D01*
X114335908Y-97287516D01*
X114390174Y-97123753D01*
X114400500Y-97022677D01*
X114400499Y-96449324D01*
X114390174Y-96348247D01*
X114335908Y-96184484D01*
X114245340Y-96037650D01*
X114163369Y-95955679D01*
X114129886Y-95894359D01*
X114134870Y-95824667D01*
X114163369Y-95780320D01*
X114245340Y-95698350D01*
X114335908Y-95551516D01*
X114390174Y-95387753D01*
X114400500Y-95286677D01*
X114400499Y-94713324D01*
X114390174Y-94612247D01*
X114335908Y-94448484D01*
X114245340Y-94301650D01*
X114245339Y-94301649D01*
X114245338Y-94301647D01*
X114123352Y-94179661D01*
X113976515Y-94089091D01*
X113812753Y-94034825D01*
X113714809Y-94024819D01*
X113714790Y-94024818D01*
X113711677Y-94024500D01*
X113708528Y-94024500D01*
X113041473Y-94024500D01*
X113041453Y-94024500D01*
X113038324Y-94024501D01*
X113035192Y-94024820D01*
X113035190Y-94024821D01*
X112937247Y-94034825D01*
X112773484Y-94089091D01*
X112626647Y-94179661D01*
X112587681Y-94218628D01*
X112526358Y-94252113D01*
X112456666Y-94247129D01*
X112412319Y-94218628D01*
X112373352Y-94179661D01*
X112226515Y-94089091D01*
X112062753Y-94034825D01*
X111964809Y-94024819D01*
X111964790Y-94024818D01*
X111961677Y-94024500D01*
X111958528Y-94024500D01*
X111291473Y-94024500D01*
X111291453Y-94024500D01*
X111288324Y-94024501D01*
X111285192Y-94024820D01*
X111285190Y-94024821D01*
X111187247Y-94034825D01*
X111023484Y-94089091D01*
X110876647Y-94179661D01*
X110754661Y-94301647D01*
X110664091Y-94448484D01*
X110609825Y-94612246D01*
X110599819Y-94710190D01*
X110599817Y-94710210D01*
X110599500Y-94713323D01*
X110599500Y-94716470D01*
X110599500Y-94716471D01*
X110599500Y-95283526D01*
X110599500Y-95283545D01*
X110599501Y-95286676D01*
X110599820Y-95289808D01*
X110599821Y-95289809D01*
X110609825Y-95387752D01*
X110664091Y-95551515D01*
X110754661Y-95698352D01*
X110836628Y-95780319D01*
X110870113Y-95841642D01*
X110865129Y-95911334D01*
X110836628Y-95955681D01*
X110754661Y-96037647D01*
X110664091Y-96184484D01*
X110609825Y-96348246D01*
X110599819Y-96446190D01*
X110599817Y-96446210D01*
X110599500Y-96449323D01*
X110599500Y-96452470D01*
X110599500Y-96452471D01*
X110599500Y-97019526D01*
X110599500Y-97019545D01*
X106493445Y-97019545D01*
X106505348Y-96800000D01*
X106485972Y-96442629D01*
X106428071Y-96089448D01*
X106332324Y-95744597D01*
X106199853Y-95412120D01*
X106032211Y-95095915D01*
X105831365Y-94799689D01*
X105599668Y-94526914D01*
X105597235Y-94524609D01*
X105597230Y-94524604D01*
X105361860Y-94301650D01*
X105339837Y-94280789D01*
X105054919Y-94064200D01*
X105052045Y-94062471D01*
X105052041Y-94062468D01*
X104751135Y-93881419D01*
X104751134Y-93881418D01*
X104748253Y-93879685D01*
X104745197Y-93878271D01*
X104426490Y-93730822D01*
X104426483Y-93730819D01*
X104423435Y-93729409D01*
X104335005Y-93699613D01*
X104087457Y-93616204D01*
X104087448Y-93616201D01*
X104084274Y-93615132D01*
X104081006Y-93614412D01*
X104080993Y-93614409D01*
X103738033Y-93538918D01*
X103738023Y-93538916D01*
X103734746Y-93538195D01*
X103378948Y-93499500D01*
X103021052Y-93499500D01*
X103017715Y-93499862D01*
X103017713Y-93499863D01*
X102668600Y-93537831D01*
X102668598Y-93537831D01*
X102665254Y-93538195D01*
X102661979Y-93538915D01*
X102661966Y-93538918D01*
X102319006Y-93614409D01*
X102318988Y-93614413D01*
X102315726Y-93615132D01*
X102312555Y-93616200D01*
X102312542Y-93616204D01*
X101979752Y-93728335D01*
X101979749Y-93728336D01*
X101976565Y-93729409D01*
X101973522Y-93730816D01*
X101973509Y-93730822D01*
X101654802Y-93878271D01*
X101654792Y-93878275D01*
X101651747Y-93879685D01*
X101648873Y-93881414D01*
X101648864Y-93881419D01*
X101347958Y-94062468D01*
X101347945Y-94062476D01*
X101345081Y-94064200D01*
X101342423Y-94066220D01*
X101342412Y-94066228D01*
X101062822Y-94278767D01*
X101062814Y-94278773D01*
X101060163Y-94280789D01*
X101057739Y-94283084D01*
X101057732Y-94283091D01*
X100802769Y-94524604D01*
X100802754Y-94524619D01*
X100800332Y-94526914D01*
X100798169Y-94529459D01*
X100798158Y-94529472D01*
X100570808Y-94797130D01*
X100570802Y-94797137D01*
X100568635Y-94799689D01*
X100566755Y-94802460D01*
X100566754Y-94802463D01*
X100527133Y-94860900D01*
X100473218Y-94905341D01*
X100403836Y-94913578D01*
X100341014Y-94882997D01*
X100304699Y-94823306D01*
X100300500Y-94791312D01*
X100300500Y-88646878D01*
X102499500Y-88646878D01*
X102499501Y-88650008D01*
X102499820Y-88653140D01*
X102499821Y-88653141D01*
X102510000Y-88752796D01*
X102565186Y-88919334D01*
X102657288Y-89068657D01*
X102781342Y-89192711D01*
X102936558Y-89288448D01*
X102983283Y-89340396D01*
X102994506Y-89409358D01*
X102966663Y-89473440D01*
X102959144Y-89481668D01*
X102811890Y-89628922D01*
X102676399Y-89822423D01*
X102576569Y-90036507D01*
X102519364Y-90249999D01*
X102519364Y-90250000D01*
X103566314Y-90250000D01*
X103540507Y-90290156D01*
X103500000Y-90428111D01*
X103500000Y-90571889D01*
X103540507Y-90709844D01*
X103566314Y-90750000D01*
X102519364Y-90750000D01*
X102576569Y-90963492D01*
X102676400Y-91177578D01*
X102811890Y-91371078D01*
X102978921Y-91538109D01*
X103172421Y-91673599D01*
X103386507Y-91773430D01*
X103614681Y-91834569D01*
X103749999Y-91846407D01*
X103750000Y-91846407D01*
X103750000Y-90935501D01*
X103857685Y-90984680D01*
X103964237Y-91000000D01*
X104035763Y-91000000D01*
X104142315Y-90984680D01*
X104250000Y-90935501D01*
X104250000Y-91846407D01*
X104385318Y-91834569D01*
X104613492Y-91773430D01*
X104827578Y-91673599D01*
X105021078Y-91538109D01*
X105188106Y-91371081D01*
X105323600Y-91177576D01*
X105423430Y-90963492D01*
X105480636Y-90750000D01*
X104433686Y-90750000D01*
X104459493Y-90709844D01*
X104500000Y-90571889D01*
X104500000Y-90428111D01*
X104459493Y-90290156D01*
X104433686Y-90250000D01*
X105480636Y-90250000D01*
X105480635Y-90249999D01*
X105423430Y-90036507D01*
X105323599Y-89822421D01*
X105188109Y-89628921D01*
X105040856Y-89481668D01*
X105007371Y-89420345D01*
X105012355Y-89350653D01*
X105054227Y-89294720D01*
X105063441Y-89288448D01*
X105069331Y-89284814D01*
X105069334Y-89284814D01*
X105154023Y-89232578D01*
X108663500Y-89232578D01*
X108663501Y-89235872D01*
X108669909Y-89295483D01*
X108720204Y-89430331D01*
X108806454Y-89545546D01*
X108921669Y-89631796D01*
X109056517Y-89682091D01*
X109116127Y-89688500D01*
X109811872Y-89688499D01*
X109871483Y-89682091D01*
X110006331Y-89631796D01*
X110121546Y-89545546D01*
X110207796Y-89430331D01*
X110258091Y-89295483D01*
X110264500Y-89235873D01*
X110264500Y-89232578D01*
X110563500Y-89232578D01*
X110563501Y-89235872D01*
X110569909Y-89295483D01*
X110620204Y-89430331D01*
X110706454Y-89545546D01*
X110821669Y-89631796D01*
X110956517Y-89682091D01*
X111016127Y-89688500D01*
X111711872Y-89688499D01*
X111771483Y-89682091D01*
X111906331Y-89631796D01*
X112021546Y-89545546D01*
X112107796Y-89430331D01*
X112158091Y-89295483D01*
X112164500Y-89235873D01*
X112164499Y-88240128D01*
X112158091Y-88180517D01*
X112107796Y-88045669D01*
X112103552Y-88040000D01*
X119494340Y-88040000D01*
X119514936Y-88275407D01*
X119576097Y-88503663D01*
X119675965Y-88717829D01*
X119811505Y-88911401D01*
X119959068Y-89058964D01*
X119992553Y-89120287D01*
X119987569Y-89189979D01*
X119945697Y-89245912D01*
X119936484Y-89252184D01*
X119781653Y-89347684D01*
X119657683Y-89471654D01*
X119565642Y-89620877D01*
X119510493Y-89787303D01*
X119500319Y-89886890D01*
X119500000Y-89893168D01*
X119500000Y-90290000D01*
X120566314Y-90290000D01*
X120540507Y-90330156D01*
X120500000Y-90468111D01*
X120500000Y-90611889D01*
X120540507Y-90749844D01*
X120566314Y-90790000D01*
X119500001Y-90790000D01*
X119500001Y-91186829D01*
X119500321Y-91193111D01*
X119510493Y-91292695D01*
X119565642Y-91459122D01*
X119657683Y-91608345D01*
X119781654Y-91732316D01*
X119930877Y-91824357D01*
X120097303Y-91879506D01*
X120196890Y-91889680D01*
X120203168Y-91889999D01*
X120749999Y-91889999D01*
X120750000Y-91889998D01*
X120750000Y-90975501D01*
X120857685Y-91024680D01*
X120964237Y-91040000D01*
X121035763Y-91040000D01*
X121142315Y-91024680D01*
X121249999Y-90975501D01*
X121249999Y-91889999D01*
X121796829Y-91889999D01*
X121803111Y-91889678D01*
X121902695Y-91879506D01*
X122069122Y-91824357D01*
X122218345Y-91732316D01*
X122342316Y-91608345D01*
X122434357Y-91459122D01*
X122489506Y-91292696D01*
X122499680Y-91193109D01*
X122500000Y-91186831D01*
X122500000Y-90790000D01*
X121433686Y-90790000D01*
X121459493Y-90749844D01*
X121500000Y-90611889D01*
X121500000Y-90468111D01*
X121459493Y-90330156D01*
X121433686Y-90290000D01*
X122499999Y-90290000D01*
X122499999Y-89893170D01*
X122499678Y-89886888D01*
X122489506Y-89787304D01*
X122434357Y-89620877D01*
X122342316Y-89471654D01*
X122218346Y-89347684D01*
X122063515Y-89252184D01*
X122016791Y-89200236D01*
X122005568Y-89131273D01*
X122033412Y-89067191D01*
X122040909Y-89058986D01*
X122188495Y-88911401D01*
X122324035Y-88717830D01*
X122423903Y-88503663D01*
X122485063Y-88275408D01*
X122505659Y-88040000D01*
X122485063Y-87804592D01*
X122423903Y-87576337D01*
X122324035Y-87362171D01*
X122188495Y-87168599D01*
X122021401Y-87001505D01*
X121827829Y-86865965D01*
X121613663Y-86766097D01*
X121385407Y-86704936D01*
X121211667Y-86689736D01*
X121211659Y-86689735D01*
X121208966Y-86689500D01*
X120791034Y-86689500D01*
X120788341Y-86689735D01*
X120788332Y-86689736D01*
X120614592Y-86704936D01*
X120386336Y-86766097D01*
X120172170Y-86865965D01*
X119978598Y-87001505D01*
X119811508Y-87168595D01*
X119811505Y-87168598D01*
X119811505Y-87168599D01*
X119684493Y-87349992D01*
X119675964Y-87362172D01*
X119576097Y-87576337D01*
X119514936Y-87804592D01*
X119494340Y-88040000D01*
X112103552Y-88040000D01*
X112021546Y-87930454D01*
X111906331Y-87844204D01*
X111771483Y-87793909D01*
X111711873Y-87787500D01*
X111708550Y-87787500D01*
X111019439Y-87787500D01*
X111019420Y-87787500D01*
X111016128Y-87787501D01*
X111012848Y-87787853D01*
X111012840Y-87787854D01*
X110956515Y-87793909D01*
X110821669Y-87844204D01*
X110706454Y-87930454D01*
X110620204Y-88045668D01*
X110569910Y-88180515D01*
X110569909Y-88180517D01*
X110563500Y-88240127D01*
X110563500Y-88243448D01*
X110563500Y-88243449D01*
X110563500Y-89232560D01*
X110563500Y-89232578D01*
X110264500Y-89232578D01*
X110264499Y-88240128D01*
X110258091Y-88180517D01*
X110207796Y-88045669D01*
X110121546Y-87930454D01*
X110006331Y-87844204D01*
X109871483Y-87793909D01*
X109811873Y-87787500D01*
X109808550Y-87787500D01*
X109119439Y-87787500D01*
X109119420Y-87787500D01*
X109116128Y-87787501D01*
X109112848Y-87787853D01*
X109112840Y-87787854D01*
X109056515Y-87793909D01*
X108921669Y-87844204D01*
X108806454Y-87930454D01*
X108720204Y-88045668D01*
X108669910Y-88180515D01*
X108669909Y-88180517D01*
X108663500Y-88240127D01*
X108663500Y-88243448D01*
X108663500Y-88243449D01*
X108663500Y-89232560D01*
X108663500Y-89232578D01*
X105154023Y-89232578D01*
X105218656Y-89192712D01*
X105342712Y-89068656D01*
X105434814Y-88919334D01*
X105489999Y-88752797D01*
X105500500Y-88650009D01*
X105500499Y-87349992D01*
X105489999Y-87247203D01*
X105434814Y-87080666D01*
X105342712Y-86931344D01*
X105342711Y-86931342D01*
X105218657Y-86807288D01*
X105069334Y-86715186D01*
X104902797Y-86660000D01*
X104803141Y-86649819D01*
X104803122Y-86649818D01*
X104800009Y-86649500D01*
X104796860Y-86649500D01*
X103203140Y-86649500D01*
X103203120Y-86649500D01*
X103199992Y-86649501D01*
X103196860Y-86649820D01*
X103196858Y-86649821D01*
X103097203Y-86660000D01*
X102930665Y-86715186D01*
X102781342Y-86807288D01*
X102657288Y-86931342D01*
X102565186Y-87080665D01*
X102510000Y-87247202D01*
X102499819Y-87346858D01*
X102499817Y-87346878D01*
X102499500Y-87349991D01*
X102499500Y-87353138D01*
X102499500Y-87353139D01*
X102499500Y-88646859D01*
X102499500Y-88646878D01*
X100300500Y-88646878D01*
X100300500Y-86432578D01*
X109613500Y-86432578D01*
X109613501Y-86435872D01*
X109619909Y-86495483D01*
X109670204Y-86630331D01*
X109756454Y-86745546D01*
X109871669Y-86831796D01*
X110006517Y-86882091D01*
X110066127Y-86888500D01*
X110761872Y-86888499D01*
X110821483Y-86882091D01*
X110956331Y-86831796D01*
X111071546Y-86745546D01*
X111157796Y-86630331D01*
X111208091Y-86495483D01*
X111214500Y-86435873D01*
X111214499Y-85440128D01*
X111208091Y-85380517D01*
X111157796Y-85245669D01*
X111071546Y-85130454D01*
X110956331Y-85044204D01*
X110821483Y-84993909D01*
X110761873Y-84987500D01*
X110758550Y-84987500D01*
X110069439Y-84987500D01*
X110069420Y-84987500D01*
X110066128Y-84987501D01*
X110062848Y-84987853D01*
X110062840Y-84987854D01*
X110006515Y-84993909D01*
X109871669Y-85044204D01*
X109756454Y-85130454D01*
X109670204Y-85245668D01*
X109619910Y-85380515D01*
X109619909Y-85380517D01*
X109613500Y-85440127D01*
X109613500Y-85443448D01*
X109613500Y-85443449D01*
X109613500Y-86432560D01*
X109613500Y-86432578D01*
X100300500Y-86432578D01*
X100300500Y-83370500D01*
X106645001Y-83370500D01*
X106645001Y-83466497D01*
X106645321Y-83472779D01*
X106655318Y-83570650D01*
X106709546Y-83734301D01*
X106800056Y-83881040D01*
X106921959Y-84002943D01*
X107068698Y-84093453D01*
X107232348Y-84147681D01*
X107330203Y-84157678D01*
X107336519Y-84157999D01*
X107370000Y-84157999D01*
X107370000Y-83370500D01*
X107870000Y-83370500D01*
X107870000Y-84157999D01*
X107903497Y-84157999D01*
X107909779Y-84157678D01*
X108007650Y-84147681D01*
X108171301Y-84093453D01*
X108318037Y-84002944D01*
X108421318Y-83899664D01*
X108482641Y-83866179D01*
X108552333Y-83871163D01*
X108596682Y-83899664D01*
X108699962Y-84002944D01*
X108846698Y-84093453D01*
X109010348Y-84147681D01*
X109108203Y-84157678D01*
X109114519Y-84157999D01*
X109148000Y-84157999D01*
X109148000Y-83370500D01*
X109648000Y-83370500D01*
X109648000Y-84157999D01*
X109681497Y-84157999D01*
X109687779Y-84157678D01*
X109785650Y-84147681D01*
X109949301Y-84093453D01*
X110096040Y-84002943D01*
X110217943Y-83881040D01*
X110308453Y-83734301D01*
X110362681Y-83570651D01*
X110372680Y-83472777D01*
X110373000Y-83466499D01*
X110373000Y-83370500D01*
X112741001Y-83370500D01*
X112741001Y-83466497D01*
X112741321Y-83472779D01*
X112751318Y-83570650D01*
X112805546Y-83734301D01*
X112896056Y-83881040D01*
X113017959Y-84002943D01*
X113164698Y-84093453D01*
X113328348Y-84147681D01*
X113426203Y-84157678D01*
X113432519Y-84157999D01*
X113466000Y-84157999D01*
X113466000Y-83370500D01*
X113965999Y-83370500D01*
X113965999Y-84157998D01*
X113966000Y-84157999D01*
X113999497Y-84157999D01*
X114005779Y-84157678D01*
X114103650Y-84147681D01*
X114267301Y-84093453D01*
X114414040Y-84002943D01*
X114535943Y-83881040D01*
X114626453Y-83734301D01*
X114680681Y-83570651D01*
X114690680Y-83472777D01*
X114691000Y-83466499D01*
X114691000Y-83370500D01*
X115535001Y-83370500D01*
X115535001Y-83466497D01*
X115535321Y-83472779D01*
X115545318Y-83570650D01*
X115599546Y-83734301D01*
X115690056Y-83881040D01*
X115811959Y-84002943D01*
X115958698Y-84093453D01*
X116122348Y-84147681D01*
X116220203Y-84157678D01*
X116226519Y-84157999D01*
X116260000Y-84157999D01*
X116260000Y-83370500D01*
X116760000Y-83370500D01*
X116760000Y-84157999D01*
X116793497Y-84157999D01*
X116799779Y-84157678D01*
X116897650Y-84147681D01*
X117061301Y-84093453D01*
X117208040Y-84002943D01*
X117329943Y-83881040D01*
X117420453Y-83734301D01*
X117474681Y-83570651D01*
X117484680Y-83472777D01*
X117485000Y-83466499D01*
X117485000Y-83370500D01*
X116760000Y-83370500D01*
X116260000Y-83370500D01*
X115535001Y-83370500D01*
X114691000Y-83370500D01*
X113965999Y-83370500D01*
X113466000Y-83370500D01*
X112741001Y-83370500D01*
X110373000Y-83370500D01*
X109648000Y-83370500D01*
X109148000Y-83370500D01*
X107870000Y-83370500D01*
X107370000Y-83370500D01*
X106645001Y-83370500D01*
X100300500Y-83370500D01*
X100300500Y-78444000D01*
X103180001Y-78444000D01*
X103180001Y-78477497D01*
X103180321Y-78483779D01*
X103190318Y-78581650D01*
X103244546Y-78745301D01*
X103335056Y-78892040D01*
X103456959Y-79013943D01*
X103603698Y-79104453D01*
X103767348Y-79158681D01*
X103865222Y-79168680D01*
X103871500Y-79168999D01*
X104467500Y-79168999D01*
X104563497Y-79168999D01*
X104569779Y-79168678D01*
X104667650Y-79158681D01*
X104831304Y-79104452D01*
X104978036Y-79013945D01*
X104991963Y-79000019D01*
X105053285Y-78966532D01*
X105122977Y-78971515D01*
X105167329Y-79000018D01*
X105181650Y-79014340D01*
X105327745Y-79104452D01*
X105328484Y-79104908D01*
X105492246Y-79159174D01*
X105590190Y-79169180D01*
X105590191Y-79169180D01*
X105593323Y-79169500D01*
X106291676Y-79169499D01*
X106392753Y-79159174D01*
X106556516Y-79104908D01*
X106703350Y-79014340D01*
X106825340Y-78892350D01*
X106915908Y-78745516D01*
X106970174Y-78581753D01*
X106980500Y-78480677D01*
X106980499Y-78365686D01*
X107000183Y-78298649D01*
X107052987Y-78252894D01*
X107122145Y-78242950D01*
X107178808Y-78266420D01*
X107282169Y-78343796D01*
X107417017Y-78394091D01*
X107476627Y-78400500D01*
X108975500Y-78400499D01*
X109042539Y-78420184D01*
X109088294Y-78472987D01*
X109099500Y-78524499D01*
X109099500Y-80020060D01*
X109099500Y-80020078D01*
X109099501Y-80023372D01*
X109099853Y-80026652D01*
X109099854Y-80026659D01*
X109105909Y-80082984D01*
X109148650Y-80197577D01*
X109153634Y-80267268D01*
X109120149Y-80328591D01*
X109058826Y-80362076D01*
X109045071Y-80364268D01*
X109010247Y-80367825D01*
X108846484Y-80422091D01*
X108699647Y-80512661D01*
X108596681Y-80615628D01*
X108535358Y-80649113D01*
X108465666Y-80644129D01*
X108421319Y-80615628D01*
X108318352Y-80512661D01*
X108171515Y-80422091D01*
X108007753Y-80367825D01*
X107909809Y-80357819D01*
X107909790Y-80357818D01*
X107906677Y-80357500D01*
X107903528Y-80357500D01*
X107336473Y-80357500D01*
X107336453Y-80357500D01*
X107333324Y-80357501D01*
X107330192Y-80357820D01*
X107330190Y-80357821D01*
X107232247Y-80367825D01*
X107068484Y-80422091D01*
X106921647Y-80512661D01*
X106799661Y-80634647D01*
X106709091Y-80781484D01*
X106654825Y-80945246D01*
X106644819Y-81043190D01*
X106644817Y-81043210D01*
X106644500Y-81046323D01*
X106644500Y-81049470D01*
X106644500Y-81049471D01*
X106644500Y-81741526D01*
X106644500Y-81741545D01*
X106644501Y-81744676D01*
X106644820Y-81747808D01*
X106644821Y-81747809D01*
X106654825Y-81845752D01*
X106709091Y-82009515D01*
X106799661Y-82156352D01*
X106813981Y-82170672D01*
X106847466Y-82231995D01*
X106842482Y-82301687D01*
X106813983Y-82346032D01*
X106800057Y-82359958D01*
X106709546Y-82506698D01*
X106655318Y-82670348D01*
X106645319Y-82768222D01*
X106645000Y-82774500D01*
X106645000Y-82870500D01*
X110372999Y-82870500D01*
X110372999Y-82774502D01*
X110372678Y-82768220D01*
X110362681Y-82670349D01*
X110308453Y-82506698D01*
X110217943Y-82359959D01*
X110204018Y-82346034D01*
X110170533Y-82284711D01*
X110175517Y-82215019D01*
X110204020Y-82170670D01*
X110204020Y-82170669D01*
X110218340Y-82156350D01*
X110308908Y-82009516D01*
X110363174Y-81845753D01*
X110373500Y-81744677D01*
X110373499Y-81046324D01*
X110363174Y-80945247D01*
X110308908Y-80781484D01*
X110237118Y-80665095D01*
X110218679Y-80597703D01*
X110239602Y-80531040D01*
X110293244Y-80486270D01*
X110342656Y-80475999D01*
X110447872Y-80475999D01*
X110486744Y-80471820D01*
X110513252Y-80471820D01*
X110552127Y-80476000D01*
X110947872Y-80475999D01*
X110986744Y-80471820D01*
X111013252Y-80471820D01*
X111052127Y-80476000D01*
X111447872Y-80475999D01*
X111486744Y-80471820D01*
X111513252Y-80471820D01*
X111552127Y-80476000D01*
X111947872Y-80475999D01*
X111986744Y-80471820D01*
X112013252Y-80471820D01*
X112052127Y-80476000D01*
X112447872Y-80475999D01*
X112486744Y-80471820D01*
X112513252Y-80471820D01*
X112552127Y-80476000D01*
X112771341Y-80475999D01*
X112838380Y-80495683D01*
X112884135Y-80548487D01*
X112894079Y-80617645D01*
X112876880Y-80665095D01*
X112805092Y-80781482D01*
X112750825Y-80945246D01*
X112740819Y-81043190D01*
X112740817Y-81043210D01*
X112740500Y-81046323D01*
X112740500Y-81049470D01*
X112740500Y-81049471D01*
X112740500Y-81741526D01*
X112740500Y-81741545D01*
X112740501Y-81744676D01*
X112740820Y-81747808D01*
X112740821Y-81747809D01*
X112750825Y-81845752D01*
X112805091Y-82009515D01*
X112895661Y-82156352D01*
X112909981Y-82170672D01*
X112943466Y-82231995D01*
X112938482Y-82301687D01*
X112909983Y-82346032D01*
X112896057Y-82359958D01*
X112805546Y-82506698D01*
X112751318Y-82670348D01*
X112741319Y-82768222D01*
X112741000Y-82774500D01*
X112741000Y-82870500D01*
X114690999Y-82870500D01*
X114690999Y-82774502D01*
X114690678Y-82768220D01*
X114680681Y-82670349D01*
X114626453Y-82506698D01*
X114535943Y-82359959D01*
X114522018Y-82346034D01*
X114488533Y-82284711D01*
X114493517Y-82215019D01*
X114522020Y-82170670D01*
X114522019Y-82170669D01*
X114536340Y-82156350D01*
X114626908Y-82009516D01*
X114681174Y-81845753D01*
X114691500Y-81744677D01*
X114691499Y-81046324D01*
X114681174Y-80945247D01*
X114626908Y-80781484D01*
X114555118Y-80665095D01*
X114536679Y-80597703D01*
X114557602Y-80531040D01*
X114611244Y-80486270D01*
X114660654Y-80475999D01*
X114947872Y-80475999D01*
X114986744Y-80471820D01*
X115013252Y-80471820D01*
X115052127Y-80476000D01*
X115447872Y-80475999D01*
X115507483Y-80469591D01*
X115537745Y-80458303D01*
X115607434Y-80453318D01*
X115668758Y-80486802D01*
X115702244Y-80548125D01*
X115697261Y-80617816D01*
X115686617Y-80639581D01*
X115599092Y-80781482D01*
X115544825Y-80945246D01*
X115534819Y-81043190D01*
X115534817Y-81043210D01*
X115534500Y-81046323D01*
X115534500Y-81049470D01*
X115534500Y-81049471D01*
X115534500Y-81741526D01*
X115534500Y-81741545D01*
X115534501Y-81744676D01*
X115534820Y-81747808D01*
X115534821Y-81747809D01*
X115544825Y-81845752D01*
X115599091Y-82009515D01*
X115689661Y-82156352D01*
X115703981Y-82170672D01*
X115737466Y-82231995D01*
X115732482Y-82301687D01*
X115703983Y-82346032D01*
X115690057Y-82359958D01*
X115599546Y-82506698D01*
X115545318Y-82670348D01*
X115535319Y-82768222D01*
X115535000Y-82774500D01*
X115535000Y-82870500D01*
X117484999Y-82870500D01*
X117484999Y-82774502D01*
X117484678Y-82768220D01*
X117474681Y-82670349D01*
X117420453Y-82506698D01*
X117329943Y-82359959D01*
X117316018Y-82346034D01*
X117282533Y-82284711D01*
X117287517Y-82215019D01*
X117316020Y-82170670D01*
X117316020Y-82170669D01*
X117330340Y-82156350D01*
X117420908Y-82009516D01*
X117475174Y-81845753D01*
X117485500Y-81744677D01*
X117485499Y-81046324D01*
X117475174Y-80945247D01*
X117420908Y-80781484D01*
X117330340Y-80634650D01*
X117330339Y-80634649D01*
X117330338Y-80634647D01*
X117208352Y-80512661D01*
X117061515Y-80422091D01*
X116897753Y-80367825D01*
X116799809Y-80357819D01*
X116799790Y-80357818D01*
X116796677Y-80357500D01*
X116793528Y-80357500D01*
X116226473Y-80357500D01*
X116226453Y-80357500D01*
X116223324Y-80357501D01*
X116220192Y-80357820D01*
X116220190Y-80357821D01*
X116122245Y-80367825D01*
X115977655Y-80415738D01*
X115907827Y-80418140D01*
X115847785Y-80382408D01*
X115816593Y-80319887D01*
X115824154Y-80250428D01*
X115839384Y-80223723D01*
X115843796Y-80217831D01*
X115894091Y-80082983D01*
X115900500Y-80023373D01*
X115900499Y-78524498D01*
X115920184Y-78457460D01*
X115972987Y-78411705D01*
X116024494Y-78400499D01*
X117523372Y-78400499D01*
X117582983Y-78394091D01*
X117717831Y-78343796D01*
X117833046Y-78257546D01*
X117919296Y-78142331D01*
X117969591Y-78007483D01*
X117976000Y-77947873D01*
X117975999Y-77552128D01*
X117971820Y-77513254D01*
X117971820Y-77486745D01*
X117976000Y-77447873D01*
X117975999Y-77052128D01*
X117971820Y-77013254D01*
X117971820Y-76986745D01*
X117976000Y-76947873D01*
X117975999Y-76552128D01*
X117971820Y-76513254D01*
X117971820Y-76486745D01*
X117976000Y-76447873D01*
X117975999Y-76052128D01*
X117971820Y-76013254D01*
X117971820Y-75986745D01*
X117976000Y-75947873D01*
X117975999Y-75552128D01*
X117971820Y-75513254D01*
X117971820Y-75486745D01*
X117976000Y-75447873D01*
X117975999Y-75052128D01*
X117971820Y-75013254D01*
X117971820Y-74986745D01*
X117976000Y-74947873D01*
X117975999Y-74552128D01*
X117971820Y-74513254D01*
X117971820Y-74486745D01*
X117976000Y-74447873D01*
X117975999Y-74052128D01*
X117971820Y-74013254D01*
X117971820Y-73986745D01*
X117976000Y-73947873D01*
X117975999Y-73552128D01*
X117971820Y-73513254D01*
X117971820Y-73486745D01*
X117976000Y-73447873D01*
X117975999Y-73052128D01*
X117971839Y-73013437D01*
X117984245Y-72944678D01*
X118031855Y-72893540D01*
X118099555Y-72876261D01*
X118165849Y-72898326D01*
X118182810Y-72912501D01*
X118188647Y-72918338D01*
X118188649Y-72918339D01*
X118188650Y-72918340D01*
X118231351Y-72944678D01*
X118335484Y-73008908D01*
X118499246Y-73063174D01*
X118597190Y-73073180D01*
X118597191Y-73073180D01*
X118600323Y-73073500D01*
X119298676Y-73073499D01*
X119399753Y-73063174D01*
X119563516Y-73008908D01*
X119710350Y-72918340D01*
X119724669Y-72904019D01*
X119785992Y-72870533D01*
X119855684Y-72875516D01*
X119900034Y-72904018D01*
X119913959Y-72917943D01*
X120060698Y-73008453D01*
X120224348Y-73062681D01*
X120322222Y-73072680D01*
X120328500Y-73072999D01*
X120424500Y-73072998D01*
X120424500Y-72348000D01*
X120924499Y-72348000D01*
X120924499Y-73072998D01*
X120924500Y-73072999D01*
X121020497Y-73072999D01*
X121026779Y-73072678D01*
X121124650Y-73062681D01*
X121288301Y-73008453D01*
X121435040Y-72917943D01*
X121556943Y-72796040D01*
X121647453Y-72649301D01*
X121701681Y-72485651D01*
X121711680Y-72387777D01*
X121712000Y-72381499D01*
X121712000Y-72348000D01*
X120924499Y-72348000D01*
X120424500Y-72348000D01*
X120424500Y-71123000D01*
X120924499Y-71123000D01*
X120924499Y-71847999D01*
X120924501Y-71848000D01*
X121711999Y-71848000D01*
X121711999Y-71814502D01*
X121711678Y-71808220D01*
X121701681Y-71710349D01*
X121647453Y-71546698D01*
X121556943Y-71399959D01*
X121435040Y-71278056D01*
X121288301Y-71187546D01*
X121124651Y-71133318D01*
X121026777Y-71123319D01*
X121020500Y-71123000D01*
X120924499Y-71123000D01*
X120424500Y-71123000D01*
X120424500Y-71122999D01*
X120328504Y-71123000D01*
X120322219Y-71123321D01*
X120224349Y-71133318D01*
X120060698Y-71187546D01*
X119913958Y-71278057D01*
X119900032Y-71291983D01*
X119838709Y-71325467D01*
X119769017Y-71320481D01*
X119724672Y-71291981D01*
X119710352Y-71277661D01*
X119563515Y-71187091D01*
X119399753Y-71132825D01*
X119301809Y-71122819D01*
X119301790Y-71122818D01*
X119298677Y-71122500D01*
X119295528Y-71122500D01*
X118603473Y-71122500D01*
X118603453Y-71122500D01*
X118600324Y-71122501D01*
X118597192Y-71122820D01*
X118597190Y-71122821D01*
X118499247Y-71132825D01*
X118335484Y-71187091D01*
X118188647Y-71277661D01*
X118066661Y-71399647D01*
X117976091Y-71546485D01*
X117949794Y-71625845D01*
X117910021Y-71683290D01*
X117845505Y-71710113D01*
X117776729Y-71697798D01*
X117757780Y-71686109D01*
X117717831Y-71656204D01*
X117582983Y-71605909D01*
X117523373Y-71599500D01*
X117520051Y-71599500D01*
X116024499Y-71599500D01*
X115957460Y-71579815D01*
X115911705Y-71527011D01*
X115900499Y-71475504D01*
X115900499Y-69976628D01*
X115894091Y-69917017D01*
X115843796Y-69782169D01*
X115757546Y-69666954D01*
X115642331Y-69580704D01*
X115507483Y-69530409D01*
X115486742Y-69528179D01*
X115451166Y-69524354D01*
X115451165Y-69524353D01*
X115447873Y-69524000D01*
X115444550Y-69524000D01*
X115055439Y-69524000D01*
X115055420Y-69524000D01*
X115052128Y-69524001D01*
X115048853Y-69524352D01*
X115048834Y-69524354D01*
X115013253Y-69528179D01*
X114986749Y-69528179D01*
X114951163Y-69524353D01*
X114951150Y-69524352D01*
X114947873Y-69524000D01*
X114944562Y-69524000D01*
X114555439Y-69524000D01*
X114555420Y-69524000D01*
X114552128Y-69524001D01*
X114548853Y-69524352D01*
X114548834Y-69524354D01*
X114513253Y-69528179D01*
X114486749Y-69528179D01*
X114451163Y-69524353D01*
X114451150Y-69524352D01*
X114447873Y-69524000D01*
X114444562Y-69524000D01*
X114055439Y-69524000D01*
X114055420Y-69524000D01*
X114052128Y-69524001D01*
X114048853Y-69524352D01*
X114048834Y-69524354D01*
X114013253Y-69528179D01*
X113986749Y-69528179D01*
X113951163Y-69524353D01*
X113951150Y-69524352D01*
X113947873Y-69524000D01*
X113944562Y-69524000D01*
X113555439Y-69524000D01*
X113555420Y-69524000D01*
X113552128Y-69524001D01*
X113548853Y-69524352D01*
X113548834Y-69524354D01*
X113513253Y-69528179D01*
X113486749Y-69528179D01*
X113451163Y-69524353D01*
X113451150Y-69524352D01*
X113447873Y-69524000D01*
X113444562Y-69524000D01*
X113055439Y-69524000D01*
X113055420Y-69524000D01*
X113052128Y-69524001D01*
X113048853Y-69524352D01*
X113048834Y-69524354D01*
X113013253Y-69528179D01*
X112986749Y-69528179D01*
X112951163Y-69524353D01*
X112951150Y-69524352D01*
X112947873Y-69524000D01*
X112944562Y-69524000D01*
X112555439Y-69524000D01*
X112555420Y-69524000D01*
X112552128Y-69524001D01*
X112548853Y-69524352D01*
X112548834Y-69524354D01*
X112513253Y-69528179D01*
X112486749Y-69528179D01*
X112451163Y-69524353D01*
X112451150Y-69524352D01*
X112447873Y-69524000D01*
X112444562Y-69524000D01*
X112055439Y-69524000D01*
X112055420Y-69524000D01*
X112052128Y-69524001D01*
X112048853Y-69524352D01*
X112048834Y-69524354D01*
X112013253Y-69528179D01*
X111986749Y-69528179D01*
X111951163Y-69524353D01*
X111951150Y-69524352D01*
X111947873Y-69524000D01*
X111944562Y-69524000D01*
X111555439Y-69524000D01*
X111555420Y-69524000D01*
X111552128Y-69524001D01*
X111548853Y-69524352D01*
X111548834Y-69524354D01*
X111513253Y-69528179D01*
X111486749Y-69528179D01*
X111451163Y-69524353D01*
X111451150Y-69524352D01*
X111447873Y-69524000D01*
X111444562Y-69524000D01*
X111055439Y-69524000D01*
X111055420Y-69524000D01*
X111052128Y-69524001D01*
X111048853Y-69524352D01*
X111048834Y-69524354D01*
X111013253Y-69528179D01*
X110986749Y-69528179D01*
X110951163Y-69524353D01*
X110951150Y-69524352D01*
X110947873Y-69524000D01*
X110944563Y-69524000D01*
X110620096Y-69524000D01*
X110553057Y-69504315D01*
X110507302Y-69451511D01*
X110497358Y-69382353D01*
X110514556Y-69334906D01*
X110562908Y-69256516D01*
X110617174Y-69092753D01*
X110627500Y-68991677D01*
X110627499Y-68293324D01*
X110617174Y-68192247D01*
X110562908Y-68028484D01*
X110472340Y-67881650D01*
X110458018Y-67867328D01*
X110424532Y-67806007D01*
X110429515Y-67736315D01*
X110458019Y-67691963D01*
X110471945Y-67678036D01*
X110562452Y-67531304D01*
X110616681Y-67367651D01*
X110626680Y-67269777D01*
X110627000Y-67263499D01*
X110627000Y-67167500D01*
X108677001Y-67167500D01*
X108677001Y-67263497D01*
X108677321Y-67269779D01*
X108687318Y-67367650D01*
X108741546Y-67531301D01*
X108832056Y-67678040D01*
X108845981Y-67691965D01*
X108879466Y-67753288D01*
X108874482Y-67822980D01*
X108845985Y-67867324D01*
X108831661Y-67881648D01*
X108741091Y-68028485D01*
X108686825Y-68192246D01*
X108676819Y-68290190D01*
X108676817Y-68290210D01*
X108676500Y-68293323D01*
X108676500Y-68296470D01*
X108676500Y-68296471D01*
X108676500Y-68988526D01*
X108676500Y-68988545D01*
X108676501Y-68991676D01*
X108676820Y-68994808D01*
X108676821Y-68994809D01*
X108686825Y-69092752D01*
X108741091Y-69256515D01*
X108831661Y-69403352D01*
X108953648Y-69525339D01*
X108960563Y-69529604D01*
X109100484Y-69615908D01*
X109100486Y-69615908D01*
X109109524Y-69621483D01*
X109156249Y-69673431D01*
X109167472Y-69742393D01*
X109160610Y-69770355D01*
X109105909Y-69917014D01*
X109105909Y-69917017D01*
X109099500Y-69976627D01*
X109099500Y-69979948D01*
X109099500Y-69979949D01*
X109099500Y-71475500D01*
X109079815Y-71542539D01*
X109027011Y-71588294D01*
X108975500Y-71599500D01*
X107479939Y-71599500D01*
X107479920Y-71599500D01*
X107476628Y-71599501D01*
X107473348Y-71599853D01*
X107473340Y-71599854D01*
X107417015Y-71605909D01*
X107282169Y-71656204D01*
X107166954Y-71742454D01*
X107080704Y-71857668D01*
X107030409Y-71992516D01*
X107029605Y-71999999D01*
X107024000Y-72052127D01*
X107024000Y-72055448D01*
X107024000Y-72055449D01*
X107024000Y-72444560D01*
X107024000Y-72444578D01*
X107024001Y-72447872D01*
X107024353Y-72451147D01*
X107024354Y-72451165D01*
X107028179Y-72486745D01*
X107028179Y-72513249D01*
X107024353Y-72548836D01*
X107024352Y-72548850D01*
X107024000Y-72552127D01*
X107024000Y-72555436D01*
X107024000Y-72555437D01*
X107024000Y-72944560D01*
X107024000Y-72944578D01*
X107024001Y-72947872D01*
X107024353Y-72951147D01*
X107024354Y-72951165D01*
X107028179Y-72986745D01*
X107028179Y-73013249D01*
X107024353Y-73048836D01*
X107024352Y-73048850D01*
X107024000Y-73052127D01*
X107024000Y-73055436D01*
X107024000Y-73055437D01*
X107024000Y-73444560D01*
X107024000Y-73444578D01*
X107024001Y-73447872D01*
X107024353Y-73451147D01*
X107024354Y-73451165D01*
X107028179Y-73486745D01*
X107028179Y-73513249D01*
X107024353Y-73548836D01*
X107024352Y-73548850D01*
X107024000Y-73552127D01*
X107024000Y-73555436D01*
X107024000Y-73555437D01*
X107024000Y-73944560D01*
X107024000Y-73944578D01*
X107024001Y-73947872D01*
X107024353Y-73951147D01*
X107024354Y-73951165D01*
X107028179Y-73986745D01*
X107028179Y-74013249D01*
X107024353Y-74048836D01*
X107024352Y-74048850D01*
X107024000Y-74052127D01*
X107024000Y-74055436D01*
X107024000Y-74055437D01*
X107024000Y-74444560D01*
X107024000Y-74444578D01*
X107024001Y-74447872D01*
X107024353Y-74451147D01*
X107024354Y-74451165D01*
X107028179Y-74486745D01*
X107028179Y-74513249D01*
X107024353Y-74548836D01*
X107024352Y-74548850D01*
X107024000Y-74552127D01*
X107024000Y-74555436D01*
X107024000Y-74555437D01*
X107024000Y-74944560D01*
X107024000Y-74944578D01*
X107024001Y-74947872D01*
X107024353Y-74951147D01*
X107024354Y-74951165D01*
X107028179Y-74986745D01*
X107028179Y-75013249D01*
X107024353Y-75048836D01*
X107024352Y-75048850D01*
X107024000Y-75052127D01*
X107024000Y-75055436D01*
X107024000Y-75055437D01*
X107024000Y-75444560D01*
X107024000Y-75444578D01*
X107024001Y-75447872D01*
X107024353Y-75451147D01*
X107024354Y-75451165D01*
X107028179Y-75486745D01*
X107028179Y-75513249D01*
X107024353Y-75548836D01*
X107024352Y-75548850D01*
X107024000Y-75552127D01*
X107024000Y-75555436D01*
X107024000Y-75555437D01*
X107024000Y-75944560D01*
X107024000Y-75944578D01*
X107024001Y-75947872D01*
X107024353Y-75951147D01*
X107024354Y-75951165D01*
X107028179Y-75986745D01*
X107028179Y-76013249D01*
X107024353Y-76048836D01*
X107024352Y-76048850D01*
X107024000Y-76052127D01*
X107024000Y-76055436D01*
X107024000Y-76055437D01*
X107024000Y-76444560D01*
X107024000Y-76444578D01*
X107024001Y-76447872D01*
X107024353Y-76451147D01*
X107024354Y-76451165D01*
X107028179Y-76486745D01*
X107028179Y-76513249D01*
X107024353Y-76548836D01*
X107024352Y-76548850D01*
X107024000Y-76552127D01*
X107024000Y-76555436D01*
X107024000Y-76555437D01*
X107024000Y-76944560D01*
X107024000Y-76944578D01*
X107024001Y-76947872D01*
X107024354Y-76951162D01*
X107024355Y-76951168D01*
X107028431Y-76989094D01*
X107028431Y-77015595D01*
X107024853Y-77048877D01*
X107024500Y-77055483D01*
X107024500Y-77100000D01*
X107040111Y-77115611D01*
X107053984Y-77119685D01*
X107086213Y-77149690D01*
X107105676Y-77175690D01*
X107130092Y-77241155D01*
X107115240Y-77309428D01*
X107105676Y-77324310D01*
X107086213Y-77350310D01*
X107038390Y-77386109D01*
X107022607Y-77401892D01*
X107004815Y-77462486D01*
X106952011Y-77508241D01*
X106882853Y-77518185D01*
X106819297Y-77489160D01*
X106812819Y-77483128D01*
X106703352Y-77373661D01*
X106556515Y-77283091D01*
X106392753Y-77228825D01*
X106294809Y-77218819D01*
X106294790Y-77218818D01*
X106291677Y-77218500D01*
X106288528Y-77218500D01*
X105596473Y-77218500D01*
X105596453Y-77218500D01*
X105593324Y-77218501D01*
X105590192Y-77218820D01*
X105590190Y-77218821D01*
X105492247Y-77228825D01*
X105328485Y-77283091D01*
X105181648Y-77373661D01*
X105167324Y-77387985D01*
X105105999Y-77421467D01*
X105036308Y-77416480D01*
X104991965Y-77387981D01*
X104978040Y-77374056D01*
X104831301Y-77283546D01*
X104667651Y-77229318D01*
X104569777Y-77219319D01*
X104563500Y-77219000D01*
X104467500Y-77219000D01*
X104467500Y-79168999D01*
X103871500Y-79168999D01*
X103967500Y-79168998D01*
X103967500Y-78444000D01*
X103180001Y-78444000D01*
X100300500Y-78444000D01*
X100300500Y-77943999D01*
X103179999Y-77943999D01*
X103180000Y-77944000D01*
X103967500Y-77944000D01*
X103967500Y-77218999D01*
X103871504Y-77219000D01*
X103865219Y-77219321D01*
X103767349Y-77229318D01*
X103603698Y-77283546D01*
X103456959Y-77374056D01*
X103335056Y-77495959D01*
X103244546Y-77642698D01*
X103190318Y-77806348D01*
X103180319Y-77904222D01*
X103180000Y-77910500D01*
X103179999Y-77943999D01*
X100300500Y-77943999D01*
X100300500Y-66667500D01*
X108677000Y-66667500D01*
X109401999Y-66667500D01*
X109401999Y-65880000D01*
X109902000Y-65880000D01*
X109902000Y-66667500D01*
X110626999Y-66667500D01*
X110626999Y-66571502D01*
X110626678Y-66565220D01*
X110616681Y-66467349D01*
X110562453Y-66303698D01*
X110471943Y-66156959D01*
X110350040Y-66035056D01*
X110203301Y-65944546D01*
X110039651Y-65890318D01*
X109941777Y-65880319D01*
X109935500Y-65880000D01*
X109902000Y-65880000D01*
X109401999Y-65880000D01*
X109368504Y-65880000D01*
X109362219Y-65880321D01*
X109264349Y-65890318D01*
X109100698Y-65944546D01*
X108953959Y-66035056D01*
X108832056Y-66156959D01*
X108741546Y-66303698D01*
X108687318Y-66467348D01*
X108677319Y-66565222D01*
X108677000Y-66571500D01*
X108677000Y-66667500D01*
X100300500Y-66667500D01*
X100300500Y-64302578D01*
X110033500Y-64302578D01*
X110033501Y-64305872D01*
X110033853Y-64309152D01*
X110033854Y-64309159D01*
X110039909Y-64365484D01*
X110060056Y-64419499D01*
X110090204Y-64500331D01*
X110176454Y-64615546D01*
X110291669Y-64701796D01*
X110426517Y-64752091D01*
X110486127Y-64758500D01*
X110931872Y-64758499D01*
X110991483Y-64752091D01*
X110991484Y-64752090D01*
X111006969Y-64750426D01*
X111007054Y-64751223D01*
X111060351Y-64747409D01*
X111076169Y-64752053D01*
X111076514Y-64752090D01*
X111076517Y-64752091D01*
X111136127Y-64758500D01*
X111581872Y-64758499D01*
X111641483Y-64752091D01*
X111641484Y-64752090D01*
X111656969Y-64750426D01*
X111657054Y-64751223D01*
X111710351Y-64747409D01*
X111726169Y-64752053D01*
X111726514Y-64752090D01*
X111726517Y-64752091D01*
X111786127Y-64758500D01*
X112231872Y-64758499D01*
X112291483Y-64752091D01*
X112291484Y-64752090D01*
X112306969Y-64750426D01*
X112307054Y-64751223D01*
X112360351Y-64747409D01*
X112376169Y-64752053D01*
X112376514Y-64752090D01*
X112376517Y-64752091D01*
X112436127Y-64758500D01*
X112881872Y-64758499D01*
X112941483Y-64752091D01*
X113076331Y-64701796D01*
X113191546Y-64615546D01*
X113277796Y-64500331D01*
X113328091Y-64365483D01*
X113334500Y-64305873D01*
X113334499Y-63885460D01*
X115796500Y-63885460D01*
X115796501Y-63889150D01*
X115796941Y-63892820D01*
X115796943Y-63892841D01*
X115806765Y-63974638D01*
X115860418Y-64110692D01*
X115948781Y-64227218D01*
X116048123Y-64302550D01*
X116065310Y-64315583D01*
X116201357Y-64369233D01*
X116286849Y-64379500D01*
X116655222Y-64379499D01*
X116700711Y-64388144D01*
X116754018Y-64409165D01*
X116754021Y-64409166D01*
X116840073Y-64419500D01*
X117203926Y-64419499D01*
X117257219Y-64413099D01*
X117286778Y-64413099D01*
X117340073Y-64419500D01*
X117703926Y-64419499D01*
X117789979Y-64409166D01*
X117843282Y-64388145D01*
X117888774Y-64379499D01*
X118253445Y-64379499D01*
X118257150Y-64379499D01*
X118260837Y-64379056D01*
X118260841Y-64379056D01*
X118342638Y-64369234D01*
X118342639Y-64369233D01*
X118342643Y-64369233D01*
X118478690Y-64315583D01*
X118595218Y-64227218D01*
X118683583Y-64110690D01*
X118737233Y-63974643D01*
X118747500Y-63889151D01*
X118747499Y-63518850D01*
X118737233Y-63433357D01*
X118737232Y-63433355D01*
X118736487Y-63427148D01*
X118736488Y-63397569D01*
X118737500Y-63389151D01*
X118737499Y-63018850D01*
X118736548Y-63010936D01*
X118731487Y-62968785D01*
X118731487Y-62939214D01*
X118736157Y-62900330D01*
X118737500Y-62889151D01*
X118737499Y-62518850D01*
X118736487Y-62510423D01*
X118736487Y-62480855D01*
X118747058Y-62392828D01*
X118747500Y-62389151D01*
X118747499Y-62018850D01*
X118747056Y-62015158D01*
X118737234Y-61933361D01*
X118737233Y-61933359D01*
X118737233Y-61933357D01*
X118683583Y-61797310D01*
X118683581Y-61797307D01*
X118595218Y-61680781D01*
X118478689Y-61592416D01*
X118342642Y-61538766D01*
X118260830Y-61528941D01*
X118260816Y-61528940D01*
X118257151Y-61528500D01*
X118253451Y-61528500D01*
X117888775Y-61528500D01*
X117843286Y-61519855D01*
X117789976Y-61498833D01*
X117707606Y-61488941D01*
X117707592Y-61488940D01*
X117703927Y-61488500D01*
X117700226Y-61488500D01*
X117343780Y-61488500D01*
X117343763Y-61488500D01*
X117340074Y-61488501D01*
X117336408Y-61488941D01*
X117336394Y-61488942D01*
X117286779Y-61494900D01*
X117257212Y-61494899D01*
X117207604Y-61488941D01*
X117207594Y-61488940D01*
X117203927Y-61488500D01*
X117200226Y-61488500D01*
X116843780Y-61488500D01*
X116843763Y-61488500D01*
X116840074Y-61488501D01*
X116836403Y-61488941D01*
X116836399Y-61488942D01*
X116754019Y-61498834D01*
X116700714Y-61519855D01*
X116655225Y-61528500D01*
X116290555Y-61528500D01*
X116290538Y-61528500D01*
X116286850Y-61528501D01*
X116283180Y-61528941D01*
X116283158Y-61528943D01*
X116201361Y-61538765D01*
X116065307Y-61592418D01*
X115948781Y-61680781D01*
X115860416Y-61797310D01*
X115806766Y-61933357D01*
X115796941Y-62015169D01*
X115796940Y-62015184D01*
X115796500Y-62018849D01*
X115796500Y-62022548D01*
X115796500Y-62022549D01*
X115796500Y-62385444D01*
X115796500Y-62385460D01*
X115796501Y-62389150D01*
X115796941Y-62392821D01*
X115796942Y-62392824D01*
X115807512Y-62480847D01*
X115807513Y-62510400D01*
X115806942Y-62515155D01*
X115806940Y-62515180D01*
X115806500Y-62518849D01*
X115806500Y-62522550D01*
X115806500Y-62522555D01*
X115806500Y-62885444D01*
X115806500Y-62885460D01*
X115806501Y-62889150D01*
X115806941Y-62892820D01*
X115806943Y-62892841D01*
X115812512Y-62939214D01*
X115812512Y-62968778D01*
X115806500Y-63018849D01*
X115806500Y-63022548D01*
X115806500Y-63022549D01*
X115806500Y-63385443D01*
X115806500Y-63385459D01*
X115806501Y-63389150D01*
X115806940Y-63392812D01*
X115806942Y-63392833D01*
X115807513Y-63397582D01*
X115807512Y-63427146D01*
X115796941Y-63515169D01*
X115796940Y-63515184D01*
X115796500Y-63518849D01*
X115796500Y-63522548D01*
X115796500Y-63522549D01*
X115796500Y-63885444D01*
X115796500Y-63885460D01*
X113334499Y-63885460D01*
X113334499Y-63710128D01*
X113328091Y-63650517D01*
X113277796Y-63515669D01*
X113191546Y-63400454D01*
X113076331Y-63314204D01*
X113076328Y-63314203D01*
X113067063Y-63307267D01*
X113025192Y-63251333D01*
X113020208Y-63181642D01*
X113053693Y-63120319D01*
X113067063Y-63108733D01*
X113076328Y-63101797D01*
X113076331Y-63101796D01*
X113191546Y-63015546D01*
X113277796Y-62900331D01*
X113328091Y-62765483D01*
X113334500Y-62705873D01*
X113334499Y-62110128D01*
X113328091Y-62050517D01*
X113277796Y-61915669D01*
X113191546Y-61800454D01*
X113076331Y-61714204D01*
X112941483Y-61663909D01*
X112881873Y-61657500D01*
X112878550Y-61657500D01*
X112439439Y-61657500D01*
X112439420Y-61657500D01*
X112436128Y-61657501D01*
X112432848Y-61657853D01*
X112432840Y-61657854D01*
X112395264Y-61661893D01*
X112376517Y-61663909D01*
X112376516Y-61663909D01*
X112361032Y-61665574D01*
X112360946Y-61664776D01*
X112307635Y-61668587D01*
X112291835Y-61663947D01*
X112291483Y-61663909D01*
X112231873Y-61657500D01*
X112228550Y-61657500D01*
X111789439Y-61657500D01*
X111789420Y-61657500D01*
X111786128Y-61657501D01*
X111782848Y-61657853D01*
X111782840Y-61657854D01*
X111745264Y-61661893D01*
X111726517Y-61663909D01*
X111726516Y-61663909D01*
X111711032Y-61665574D01*
X111710946Y-61664776D01*
X111657635Y-61668587D01*
X111641835Y-61663947D01*
X111641483Y-61663909D01*
X111581873Y-61657500D01*
X111578550Y-61657500D01*
X111139439Y-61657500D01*
X111139420Y-61657500D01*
X111136128Y-61657501D01*
X111132848Y-61657853D01*
X111132840Y-61657854D01*
X111095264Y-61661893D01*
X111076517Y-61663909D01*
X111076516Y-61663909D01*
X111061032Y-61665574D01*
X111060946Y-61664776D01*
X111007635Y-61668587D01*
X110991835Y-61663947D01*
X110991483Y-61663909D01*
X110931873Y-61657500D01*
X110928550Y-61657500D01*
X110489439Y-61657500D01*
X110489420Y-61657500D01*
X110486128Y-61657501D01*
X110482848Y-61657853D01*
X110482840Y-61657854D01*
X110426515Y-61663909D01*
X110291669Y-61714204D01*
X110176454Y-61800454D01*
X110090204Y-61915668D01*
X110039910Y-62050515D01*
X110039909Y-62050517D01*
X110033500Y-62110127D01*
X110033500Y-62113448D01*
X110033500Y-62113449D01*
X110033500Y-62702560D01*
X110033500Y-62702578D01*
X110033501Y-62705872D01*
X110039909Y-62765483D01*
X110090204Y-62900331D01*
X110141449Y-62968785D01*
X110176454Y-63015546D01*
X110300936Y-63108733D01*
X110342807Y-63164667D01*
X110347791Y-63234359D01*
X110314306Y-63295682D01*
X110300936Y-63307267D01*
X110176454Y-63400453D01*
X110090204Y-63515668D01*
X110039910Y-63650515D01*
X110039909Y-63650517D01*
X110033500Y-63710127D01*
X110033500Y-63713448D01*
X110033500Y-63713449D01*
X110033500Y-64302560D01*
X110033500Y-64302578D01*
X100300500Y-64302578D01*
X100300500Y-57346529D01*
X107155000Y-57346529D01*
X107155298Y-57352613D01*
X107169829Y-57500150D01*
X107228442Y-57693369D01*
X107323620Y-57871433D01*
X107451707Y-58027510D01*
X107607784Y-58155597D01*
X107785850Y-58250776D01*
X107929998Y-58294503D01*
X107929999Y-58294503D01*
X107929999Y-57490328D01*
X107954457Y-57529828D01*
X108043962Y-57597419D01*
X108151840Y-57628113D01*
X108263521Y-57617764D01*
X108363922Y-57567770D01*
X108430000Y-57495287D01*
X108430000Y-58294502D01*
X108533831Y-58263006D01*
X108603698Y-58262383D01*
X108644138Y-58282400D01*
X108757911Y-58367570D01*
X108892628Y-58417817D01*
X108948867Y-58423863D01*
X108955482Y-58424218D01*
X109050000Y-58424218D01*
X109050000Y-57223218D01*
X109069685Y-57156179D01*
X109122489Y-57110424D01*
X109174000Y-57099218D01*
X109175500Y-57099218D01*
X109242539Y-57118903D01*
X109288294Y-57171707D01*
X109299500Y-57223218D01*
X109299500Y-57968778D01*
X109299500Y-57968796D01*
X109299501Y-57972090D01*
X109305909Y-58031701D01*
X109356204Y-58166549D01*
X109442454Y-58281764D01*
X109500311Y-58325075D01*
X109542181Y-58381006D01*
X109549972Y-58424190D01*
X109550000Y-58424218D01*
X109644506Y-58424218D01*
X109651132Y-58423862D01*
X109684395Y-58420286D01*
X109710905Y-58420286D01*
X109752127Y-58424718D01*
X110447872Y-58424717D01*
X110486744Y-58420538D01*
X110513252Y-58420538D01*
X110552127Y-58424718D01*
X110947872Y-58424717D01*
X110986744Y-58420538D01*
X111013252Y-58420538D01*
X111052127Y-58424718D01*
X111447872Y-58424717D01*
X111486744Y-58420538D01*
X111513252Y-58420538D01*
X111552127Y-58424718D01*
X111947872Y-58424717D01*
X111986744Y-58420538D01*
X112013252Y-58420538D01*
X112052127Y-58424718D01*
X112447872Y-58424717D01*
X112486744Y-58420538D01*
X112513252Y-58420538D01*
X112552127Y-58424718D01*
X112947872Y-58424717D01*
X112986744Y-58420538D01*
X113013252Y-58420538D01*
X113052127Y-58424718D01*
X113447872Y-58424717D01*
X113486744Y-58420538D01*
X113513252Y-58420538D01*
X113552127Y-58424718D01*
X113947872Y-58424717D01*
X113986744Y-58420538D01*
X114013252Y-58420538D01*
X114052127Y-58424718D01*
X114447872Y-58424717D01*
X114486744Y-58420538D01*
X114513252Y-58420538D01*
X114552127Y-58424718D01*
X115247872Y-58424717D01*
X115251173Y-58424362D01*
X115251175Y-58424362D01*
X115289094Y-58420286D01*
X115315606Y-58420286D01*
X115348867Y-58423862D01*
X115355496Y-58424218D01*
X115450000Y-58424218D01*
X115450051Y-58424166D01*
X115469685Y-58357302D01*
X115499687Y-58325077D01*
X115557546Y-58281764D01*
X115643796Y-58166549D01*
X115694091Y-58031701D01*
X115700500Y-57972091D01*
X115700499Y-57223216D01*
X115720183Y-57156179D01*
X115772987Y-57110424D01*
X115824499Y-57099218D01*
X115826000Y-57099218D01*
X115893039Y-57118903D01*
X115938794Y-57171707D01*
X115950000Y-57223218D01*
X115950000Y-58424218D01*
X116044518Y-58424218D01*
X116051132Y-58423863D01*
X116107371Y-58417817D01*
X116242091Y-58367569D01*
X116355861Y-58282401D01*
X116421325Y-58257983D01*
X116466168Y-58263007D01*
X116569997Y-58294503D01*
X116569999Y-58294503D01*
X116569999Y-57490328D01*
X116594457Y-57529828D01*
X116683962Y-57597419D01*
X116791840Y-57628113D01*
X116903521Y-57617764D01*
X117003922Y-57567770D01*
X117070000Y-57495287D01*
X117070000Y-58294503D01*
X117214150Y-58250776D01*
X117392215Y-58155597D01*
X117548292Y-58027510D01*
X117676379Y-57871433D01*
X117771557Y-57693369D01*
X117830170Y-57500150D01*
X117844701Y-57352613D01*
X117845000Y-57346529D01*
X117845000Y-57024218D01*
X117120000Y-57024218D01*
X117120000Y-56524218D01*
X117845000Y-56524218D01*
X117844999Y-56524217D01*
X117845000Y-56201906D01*
X117844701Y-56195822D01*
X117830170Y-56048285D01*
X117771557Y-55855066D01*
X117676379Y-55677002D01*
X117548292Y-55520925D01*
X117392215Y-55392838D01*
X117214146Y-55297658D01*
X117070000Y-55253930D01*
X117070000Y-56058107D01*
X117045543Y-56018608D01*
X116956038Y-55951017D01*
X116848160Y-55920323D01*
X116736479Y-55930672D01*
X116636078Y-55980666D01*
X116569999Y-56053149D01*
X116569999Y-55253930D01*
X116425853Y-55297657D01*
X116247784Y-55392838D01*
X116091707Y-55520925D01*
X115963618Y-55677004D01*
X115940647Y-55719980D01*
X115891684Y-55769824D01*
X115823546Y-55785283D01*
X115771553Y-55770187D01*
X115622092Y-55688020D01*
X115469020Y-55648718D01*
X115469019Y-55648718D01*
X115350650Y-55648718D01*
X115346790Y-55649205D01*
X115346783Y-55649206D01*
X115233208Y-55663553D01*
X115086267Y-55721731D01*
X114958413Y-55814623D01*
X114857677Y-55936392D01*
X114790384Y-56079396D01*
X114772537Y-56172954D01*
X114740639Y-56235117D01*
X114680197Y-56270167D01*
X114650735Y-56273718D01*
X114555440Y-56273718D01*
X114555421Y-56273718D01*
X114552128Y-56273719D01*
X114548854Y-56274070D01*
X114548833Y-56274072D01*
X114513253Y-56277897D01*
X114486749Y-56277897D01*
X114451163Y-56274071D01*
X114451150Y-56274070D01*
X114447873Y-56273718D01*
X114444562Y-56273718D01*
X114055439Y-56273718D01*
X114055420Y-56273718D01*
X114052128Y-56273719D01*
X114048853Y-56274070D01*
X114048834Y-56274072D01*
X114013253Y-56277897D01*
X113986749Y-56277897D01*
X113951163Y-56274071D01*
X113951150Y-56274070D01*
X113947873Y-56273718D01*
X113944562Y-56273718D01*
X113555439Y-56273718D01*
X113555420Y-56273718D01*
X113552128Y-56273719D01*
X113548853Y-56274070D01*
X113548834Y-56274072D01*
X113513253Y-56277897D01*
X113486749Y-56277897D01*
X113451163Y-56274071D01*
X113451150Y-56274070D01*
X113447873Y-56273718D01*
X113444562Y-56273718D01*
X113055439Y-56273718D01*
X113055420Y-56273718D01*
X113052128Y-56273719D01*
X113048853Y-56274070D01*
X113048834Y-56274072D01*
X113013253Y-56277897D01*
X112986749Y-56277897D01*
X112951163Y-56274071D01*
X112951150Y-56274070D01*
X112947873Y-56273718D01*
X112944562Y-56273718D01*
X112555439Y-56273718D01*
X112555420Y-56273718D01*
X112552128Y-56273719D01*
X112548853Y-56274070D01*
X112548834Y-56274072D01*
X112513253Y-56277897D01*
X112486749Y-56277897D01*
X112451163Y-56274071D01*
X112451150Y-56274070D01*
X112447873Y-56273718D01*
X112444562Y-56273718D01*
X112055439Y-56273718D01*
X112055420Y-56273718D01*
X112052128Y-56273719D01*
X112048853Y-56274070D01*
X112048834Y-56274072D01*
X112013253Y-56277897D01*
X111986749Y-56277897D01*
X111951163Y-56274071D01*
X111951150Y-56274070D01*
X111947873Y-56273718D01*
X111944562Y-56273718D01*
X111555439Y-56273718D01*
X111555420Y-56273718D01*
X111552128Y-56273719D01*
X111548853Y-56274070D01*
X111548834Y-56274072D01*
X111513253Y-56277897D01*
X111486749Y-56277897D01*
X111451163Y-56274071D01*
X111451150Y-56274070D01*
X111447873Y-56273718D01*
X111444562Y-56273718D01*
X111055439Y-56273718D01*
X111055420Y-56273718D01*
X111052128Y-56273719D01*
X111048853Y-56274070D01*
X111048834Y-56274072D01*
X111013253Y-56277897D01*
X110986749Y-56277897D01*
X110951163Y-56274071D01*
X110951150Y-56274070D01*
X110947873Y-56273718D01*
X110944562Y-56273718D01*
X110555439Y-56273718D01*
X110555420Y-56273718D01*
X110552128Y-56273719D01*
X110548853Y-56274070D01*
X110548834Y-56274072D01*
X110513253Y-56277897D01*
X110486749Y-56277897D01*
X110451163Y-56274071D01*
X110451150Y-56274070D01*
X110447873Y-56273718D01*
X110444563Y-56273718D01*
X110353149Y-56273718D01*
X110286110Y-56254033D01*
X110240355Y-56201229D01*
X110229394Y-56157503D01*
X110229304Y-56156082D01*
X110229304Y-56156080D01*
X110180467Y-56005777D01*
X110095786Y-55872341D01*
X109980582Y-55764156D01*
X109980581Y-55764155D01*
X109842091Y-55688020D01*
X109689020Y-55648718D01*
X109689019Y-55648718D01*
X109570650Y-55648718D01*
X109566790Y-55649205D01*
X109566783Y-55649206D01*
X109453208Y-55663553D01*
X109306270Y-55721730D01*
X109244241Y-55766797D01*
X109178434Y-55790276D01*
X109110380Y-55774450D01*
X109061998Y-55724931D01*
X109036380Y-55677003D01*
X108908292Y-55520925D01*
X108752215Y-55392838D01*
X108574146Y-55297658D01*
X108430000Y-55253930D01*
X108430000Y-56058107D01*
X108405543Y-56018608D01*
X108316038Y-55951017D01*
X108208160Y-55920323D01*
X108096479Y-55930672D01*
X107996078Y-55980666D01*
X107929998Y-56053149D01*
X107929999Y-55253930D01*
X107785853Y-55297657D01*
X107607784Y-55392838D01*
X107451707Y-55520925D01*
X107323620Y-55677002D01*
X107228442Y-55855066D01*
X107169829Y-56048285D01*
X107155298Y-56195822D01*
X107155000Y-56201906D01*
X107155000Y-56524218D01*
X107880000Y-56524218D01*
X107880000Y-57024218D01*
X107155000Y-57024218D01*
X107155000Y-57346529D01*
X100300500Y-57346529D01*
X100300500Y-55208687D01*
X100320185Y-55141648D01*
X100372989Y-55095893D01*
X100442147Y-55085949D01*
X100505703Y-55114974D01*
X100527129Y-55139095D01*
X100568635Y-55200311D01*
X100800332Y-55473086D01*
X100802763Y-55475389D01*
X100802769Y-55475395D01*
X100850835Y-55520925D01*
X101060163Y-55719211D01*
X101345081Y-55935800D01*
X101651747Y-56120315D01*
X101976565Y-56270591D01*
X102315726Y-56384868D01*
X102665254Y-56461805D01*
X103021052Y-56500500D01*
X103024410Y-56500500D01*
X103375590Y-56500500D01*
X103378948Y-56500500D01*
X103734746Y-56461805D01*
X104084274Y-56384868D01*
X104423435Y-56270591D01*
X104748253Y-56120315D01*
X105054919Y-55935800D01*
X105339837Y-55719211D01*
X105599668Y-55473086D01*
X105831365Y-55200311D01*
X106032211Y-54904085D01*
X106199853Y-54587880D01*
X106332324Y-54255403D01*
X106428071Y-53910552D01*
X106485972Y-53557371D01*
X106505348Y-53200000D01*
X106502192Y-53141788D01*
X107180000Y-53141788D01*
X107180317Y-53148053D01*
X107195419Y-53296557D01*
X107256303Y-53490607D01*
X107355003Y-53668432D01*
X107487479Y-53822749D01*
X107648307Y-53947239D01*
X107830902Y-54036805D01*
X107930000Y-54062462D01*
X107930000Y-53160328D01*
X107954457Y-53199828D01*
X108043962Y-53267419D01*
X108151840Y-53298113D01*
X108263521Y-53287764D01*
X108363922Y-53237770D01*
X108429999Y-53165288D01*
X108429999Y-54067583D01*
X108431949Y-54067285D01*
X108622663Y-53996654D01*
X108795263Y-53889072D01*
X108942669Y-53748951D01*
X109058855Y-53582023D01*
X109139059Y-53395125D01*
X109180000Y-53195906D01*
X109180000Y-53141788D01*
X115820000Y-53141788D01*
X115820317Y-53148053D01*
X115835419Y-53296557D01*
X115896303Y-53490607D01*
X115995003Y-53668432D01*
X116127479Y-53822749D01*
X116288307Y-53947239D01*
X116470902Y-54036805D01*
X116570000Y-54062462D01*
X116570000Y-53160328D01*
X116594457Y-53199828D01*
X116683962Y-53267419D01*
X116791840Y-53298113D01*
X116903521Y-53287764D01*
X117003922Y-53237770D01*
X117069999Y-53165288D01*
X117069999Y-54067583D01*
X117071949Y-54067285D01*
X117262663Y-53996654D01*
X117435263Y-53889072D01*
X117582669Y-53748951D01*
X117698855Y-53582023D01*
X117779059Y-53395125D01*
X117820000Y-53195906D01*
X117820000Y-52844218D01*
X117120000Y-52844218D01*
X117120000Y-52344218D01*
X117820000Y-52344218D01*
X117820000Y-52046647D01*
X117819682Y-52040382D01*
X117804580Y-51891878D01*
X117743696Y-51697828D01*
X117644996Y-51520003D01*
X117512520Y-51365686D01*
X117351692Y-51241196D01*
X117169094Y-51151628D01*
X117070000Y-51125971D01*
X117070000Y-52028107D01*
X117045543Y-51988608D01*
X116956038Y-51921017D01*
X116848160Y-51890323D01*
X116736479Y-51900672D01*
X116636078Y-51950666D01*
X116570000Y-52023148D01*
X116570000Y-51120851D01*
X116568051Y-51121150D01*
X116377336Y-51191782D01*
X116204736Y-51299363D01*
X116057330Y-51439484D01*
X115941144Y-51606412D01*
X115860940Y-51793310D01*
X115820000Y-51992529D01*
X115820000Y-52344218D01*
X116520000Y-52344218D01*
X116520000Y-52844218D01*
X115820000Y-52844218D01*
X115820000Y-53141788D01*
X109180000Y-53141788D01*
X109180000Y-52844218D01*
X108480000Y-52844218D01*
X108480000Y-52344218D01*
X109180000Y-52344218D01*
X109180000Y-52046647D01*
X109179682Y-52040382D01*
X109164580Y-51891878D01*
X109103696Y-51697828D01*
X109004996Y-51520003D01*
X108872520Y-51365686D01*
X108711692Y-51241196D01*
X108529094Y-51151628D01*
X108430000Y-51125971D01*
X108430000Y-52028107D01*
X108405543Y-51988608D01*
X108316038Y-51921017D01*
X108208160Y-51890323D01*
X108096479Y-51900672D01*
X107996078Y-51950666D01*
X107929999Y-52023148D01*
X107930000Y-51120851D01*
X107928051Y-51121150D01*
X107737336Y-51191782D01*
X107564736Y-51299363D01*
X107417330Y-51439484D01*
X107301144Y-51606412D01*
X107220940Y-51793310D01*
X107180000Y-51992529D01*
X107180000Y-52344218D01*
X107880000Y-52344218D01*
X107880000Y-52844218D01*
X107180000Y-52844218D01*
X107180000Y-53141788D01*
X106502192Y-53141788D01*
X106485972Y-52842629D01*
X106428071Y-52489448D01*
X106332324Y-52144597D01*
X106199853Y-51812120D01*
X106032211Y-51495915D01*
X105831365Y-51199689D01*
X105599668Y-50926914D01*
X105597235Y-50924609D01*
X105597230Y-50924604D01*
X105342267Y-50683091D01*
X105339837Y-50680789D01*
X105132552Y-50523215D01*
X105091096Y-50466974D01*
X105086627Y-50397248D01*
X105120564Y-50336174D01*
X105182132Y-50303142D01*
X105207595Y-50300500D01*
X119792405Y-50300500D01*
X119859444Y-50320185D01*
G37*
%TD.AperFunction*%
%TD*%
D30*
X103200000Y-96800000D03*
X121800000Y-96800000D03*
X103200000Y-53200000D03*
X121800000Y-53200000D03*
X121000000Y-90540000D03*
X121000000Y-88040000D03*
X104000000Y-90500000D03*
X104000000Y-88000000D03*
X115390000Y-56274218D03*
X109610000Y-56274218D03*
D31*
X116820000Y-56774218D03*
D32*
X116820000Y-52594218D03*
X108180000Y-52594218D03*
D31*
X108180000Y-56774218D03*
M02*
