%TF.GenerationSoftware,KiCad,Pcbnew,7.0.2*%
%TF.CreationDate,2023-08-12T21:53:34+01:00*%
%TF.ProjectId,lil-flite,6c696c2d-666c-4697-9465-2e6b69636164,rev?*%
%TF.SameCoordinates,Original*%
%TF.FileFunction,Legend,Top*%
%TF.FilePolarity,Positive*%
%FSLAX46Y46*%
G04 Gerber Fmt 4.6, Leading zero omitted, Abs format (unit mm)*
G04 Created by KiCad (PCBNEW 7.0.2) date 2023-08-12 21:53:34*
%MOMM*%
%LPD*%
G01*
G04 APERTURE LIST*
%ADD10C,0.150000*%
%ADD11C,0.254000*%
%ADD12C,0.200000*%
%ADD13C,0.250000*%
%ADD14C,0.100000*%
%ADD15C,0.120000*%
%ADD16C,0.350000*%
%ADD17O,0.600000X1.700000*%
%ADD18O,0.600000X1.400000*%
G04 APERTURE END LIST*
D10*
%TO.C,H204*%
X101485714Y-93462619D02*
X101485714Y-92462619D01*
X101485714Y-92938809D02*
X102057142Y-92938809D01*
X102057142Y-93462619D02*
X102057142Y-92462619D01*
X102485714Y-92557857D02*
X102533333Y-92510238D01*
X102533333Y-92510238D02*
X102628571Y-92462619D01*
X102628571Y-92462619D02*
X102866666Y-92462619D01*
X102866666Y-92462619D02*
X102961904Y-92510238D01*
X102961904Y-92510238D02*
X103009523Y-92557857D01*
X103009523Y-92557857D02*
X103057142Y-92653095D01*
X103057142Y-92653095D02*
X103057142Y-92748333D01*
X103057142Y-92748333D02*
X103009523Y-92891190D01*
X103009523Y-92891190D02*
X102438095Y-93462619D01*
X102438095Y-93462619D02*
X103057142Y-93462619D01*
X103676190Y-92462619D02*
X103771428Y-92462619D01*
X103771428Y-92462619D02*
X103866666Y-92510238D01*
X103866666Y-92510238D02*
X103914285Y-92557857D01*
X103914285Y-92557857D02*
X103961904Y-92653095D01*
X103961904Y-92653095D02*
X104009523Y-92843571D01*
X104009523Y-92843571D02*
X104009523Y-93081666D01*
X104009523Y-93081666D02*
X103961904Y-93272142D01*
X103961904Y-93272142D02*
X103914285Y-93367380D01*
X103914285Y-93367380D02*
X103866666Y-93415000D01*
X103866666Y-93415000D02*
X103771428Y-93462619D01*
X103771428Y-93462619D02*
X103676190Y-93462619D01*
X103676190Y-93462619D02*
X103580952Y-93415000D01*
X103580952Y-93415000D02*
X103533333Y-93367380D01*
X103533333Y-93367380D02*
X103485714Y-93272142D01*
X103485714Y-93272142D02*
X103438095Y-93081666D01*
X103438095Y-93081666D02*
X103438095Y-92843571D01*
X103438095Y-92843571D02*
X103485714Y-92653095D01*
X103485714Y-92653095D02*
X103533333Y-92557857D01*
X103533333Y-92557857D02*
X103580952Y-92510238D01*
X103580952Y-92510238D02*
X103676190Y-92462619D01*
X104866666Y-92795952D02*
X104866666Y-93462619D01*
X104628571Y-92415000D02*
X104390476Y-93129285D01*
X104390476Y-93129285D02*
X105009523Y-93129285D01*
%TO.C,H203*%
X120085714Y-93462619D02*
X120085714Y-92462619D01*
X120085714Y-92938809D02*
X120657142Y-92938809D01*
X120657142Y-93462619D02*
X120657142Y-92462619D01*
X121085714Y-92557857D02*
X121133333Y-92510238D01*
X121133333Y-92510238D02*
X121228571Y-92462619D01*
X121228571Y-92462619D02*
X121466666Y-92462619D01*
X121466666Y-92462619D02*
X121561904Y-92510238D01*
X121561904Y-92510238D02*
X121609523Y-92557857D01*
X121609523Y-92557857D02*
X121657142Y-92653095D01*
X121657142Y-92653095D02*
X121657142Y-92748333D01*
X121657142Y-92748333D02*
X121609523Y-92891190D01*
X121609523Y-92891190D02*
X121038095Y-93462619D01*
X121038095Y-93462619D02*
X121657142Y-93462619D01*
X122276190Y-92462619D02*
X122371428Y-92462619D01*
X122371428Y-92462619D02*
X122466666Y-92510238D01*
X122466666Y-92510238D02*
X122514285Y-92557857D01*
X122514285Y-92557857D02*
X122561904Y-92653095D01*
X122561904Y-92653095D02*
X122609523Y-92843571D01*
X122609523Y-92843571D02*
X122609523Y-93081666D01*
X122609523Y-93081666D02*
X122561904Y-93272142D01*
X122561904Y-93272142D02*
X122514285Y-93367380D01*
X122514285Y-93367380D02*
X122466666Y-93415000D01*
X122466666Y-93415000D02*
X122371428Y-93462619D01*
X122371428Y-93462619D02*
X122276190Y-93462619D01*
X122276190Y-93462619D02*
X122180952Y-93415000D01*
X122180952Y-93415000D02*
X122133333Y-93367380D01*
X122133333Y-93367380D02*
X122085714Y-93272142D01*
X122085714Y-93272142D02*
X122038095Y-93081666D01*
X122038095Y-93081666D02*
X122038095Y-92843571D01*
X122038095Y-92843571D02*
X122085714Y-92653095D01*
X122085714Y-92653095D02*
X122133333Y-92557857D01*
X122133333Y-92557857D02*
X122180952Y-92510238D01*
X122180952Y-92510238D02*
X122276190Y-92462619D01*
X122942857Y-92462619D02*
X123561904Y-92462619D01*
X123561904Y-92462619D02*
X123228571Y-92843571D01*
X123228571Y-92843571D02*
X123371428Y-92843571D01*
X123371428Y-92843571D02*
X123466666Y-92891190D01*
X123466666Y-92891190D02*
X123514285Y-92938809D01*
X123514285Y-92938809D02*
X123561904Y-93034047D01*
X123561904Y-93034047D02*
X123561904Y-93272142D01*
X123561904Y-93272142D02*
X123514285Y-93367380D01*
X123514285Y-93367380D02*
X123466666Y-93415000D01*
X123466666Y-93415000D02*
X123371428Y-93462619D01*
X123371428Y-93462619D02*
X123085714Y-93462619D01*
X123085714Y-93462619D02*
X122990476Y-93415000D01*
X122990476Y-93415000D02*
X122942857Y-93367380D01*
%TO.C,H202*%
X101485714Y-49862619D02*
X101485714Y-48862619D01*
X101485714Y-49338809D02*
X102057142Y-49338809D01*
X102057142Y-49862619D02*
X102057142Y-48862619D01*
X102485714Y-48957857D02*
X102533333Y-48910238D01*
X102533333Y-48910238D02*
X102628571Y-48862619D01*
X102628571Y-48862619D02*
X102866666Y-48862619D01*
X102866666Y-48862619D02*
X102961904Y-48910238D01*
X102961904Y-48910238D02*
X103009523Y-48957857D01*
X103009523Y-48957857D02*
X103057142Y-49053095D01*
X103057142Y-49053095D02*
X103057142Y-49148333D01*
X103057142Y-49148333D02*
X103009523Y-49291190D01*
X103009523Y-49291190D02*
X102438095Y-49862619D01*
X102438095Y-49862619D02*
X103057142Y-49862619D01*
X103676190Y-48862619D02*
X103771428Y-48862619D01*
X103771428Y-48862619D02*
X103866666Y-48910238D01*
X103866666Y-48910238D02*
X103914285Y-48957857D01*
X103914285Y-48957857D02*
X103961904Y-49053095D01*
X103961904Y-49053095D02*
X104009523Y-49243571D01*
X104009523Y-49243571D02*
X104009523Y-49481666D01*
X104009523Y-49481666D02*
X103961904Y-49672142D01*
X103961904Y-49672142D02*
X103914285Y-49767380D01*
X103914285Y-49767380D02*
X103866666Y-49815000D01*
X103866666Y-49815000D02*
X103771428Y-49862619D01*
X103771428Y-49862619D02*
X103676190Y-49862619D01*
X103676190Y-49862619D02*
X103580952Y-49815000D01*
X103580952Y-49815000D02*
X103533333Y-49767380D01*
X103533333Y-49767380D02*
X103485714Y-49672142D01*
X103485714Y-49672142D02*
X103438095Y-49481666D01*
X103438095Y-49481666D02*
X103438095Y-49243571D01*
X103438095Y-49243571D02*
X103485714Y-49053095D01*
X103485714Y-49053095D02*
X103533333Y-48957857D01*
X103533333Y-48957857D02*
X103580952Y-48910238D01*
X103580952Y-48910238D02*
X103676190Y-48862619D01*
X104390476Y-48957857D02*
X104438095Y-48910238D01*
X104438095Y-48910238D02*
X104533333Y-48862619D01*
X104533333Y-48862619D02*
X104771428Y-48862619D01*
X104771428Y-48862619D02*
X104866666Y-48910238D01*
X104866666Y-48910238D02*
X104914285Y-48957857D01*
X104914285Y-48957857D02*
X104961904Y-49053095D01*
X104961904Y-49053095D02*
X104961904Y-49148333D01*
X104961904Y-49148333D02*
X104914285Y-49291190D01*
X104914285Y-49291190D02*
X104342857Y-49862619D01*
X104342857Y-49862619D02*
X104961904Y-49862619D01*
%TO.C,H201*%
X120085714Y-49862619D02*
X120085714Y-48862619D01*
X120085714Y-49338809D02*
X120657142Y-49338809D01*
X120657142Y-49862619D02*
X120657142Y-48862619D01*
X121085714Y-48957857D02*
X121133333Y-48910238D01*
X121133333Y-48910238D02*
X121228571Y-48862619D01*
X121228571Y-48862619D02*
X121466666Y-48862619D01*
X121466666Y-48862619D02*
X121561904Y-48910238D01*
X121561904Y-48910238D02*
X121609523Y-48957857D01*
X121609523Y-48957857D02*
X121657142Y-49053095D01*
X121657142Y-49053095D02*
X121657142Y-49148333D01*
X121657142Y-49148333D02*
X121609523Y-49291190D01*
X121609523Y-49291190D02*
X121038095Y-49862619D01*
X121038095Y-49862619D02*
X121657142Y-49862619D01*
X122276190Y-48862619D02*
X122371428Y-48862619D01*
X122371428Y-48862619D02*
X122466666Y-48910238D01*
X122466666Y-48910238D02*
X122514285Y-48957857D01*
X122514285Y-48957857D02*
X122561904Y-49053095D01*
X122561904Y-49053095D02*
X122609523Y-49243571D01*
X122609523Y-49243571D02*
X122609523Y-49481666D01*
X122609523Y-49481666D02*
X122561904Y-49672142D01*
X122561904Y-49672142D02*
X122514285Y-49767380D01*
X122514285Y-49767380D02*
X122466666Y-49815000D01*
X122466666Y-49815000D02*
X122371428Y-49862619D01*
X122371428Y-49862619D02*
X122276190Y-49862619D01*
X122276190Y-49862619D02*
X122180952Y-49815000D01*
X122180952Y-49815000D02*
X122133333Y-49767380D01*
X122133333Y-49767380D02*
X122085714Y-49672142D01*
X122085714Y-49672142D02*
X122038095Y-49481666D01*
X122038095Y-49481666D02*
X122038095Y-49243571D01*
X122038095Y-49243571D02*
X122085714Y-49053095D01*
X122085714Y-49053095D02*
X122133333Y-48957857D01*
X122133333Y-48957857D02*
X122180952Y-48910238D01*
X122180952Y-48910238D02*
X122276190Y-48862619D01*
X123561904Y-49862619D02*
X122990476Y-49862619D01*
X123276190Y-49862619D02*
X123276190Y-48862619D01*
X123276190Y-48862619D02*
X123180952Y-49005476D01*
X123180952Y-49005476D02*
X123085714Y-49100714D01*
X123085714Y-49100714D02*
X122990476Y-49148333D01*
D11*
%TO.C,U501*%
X111817526Y-77177143D02*
X112845621Y-77177143D01*
X112845621Y-77177143D02*
X112966573Y-77116666D01*
X112966573Y-77116666D02*
X113027050Y-77056190D01*
X113027050Y-77056190D02*
X113087526Y-76935238D01*
X113087526Y-76935238D02*
X113087526Y-76693333D01*
X113087526Y-76693333D02*
X113027050Y-76572381D01*
X113027050Y-76572381D02*
X112966573Y-76511904D01*
X112966573Y-76511904D02*
X112845621Y-76451428D01*
X112845621Y-76451428D02*
X111817526Y-76451428D01*
X111817526Y-75241905D02*
X111817526Y-75846667D01*
X111817526Y-75846667D02*
X112422288Y-75907143D01*
X112422288Y-75907143D02*
X112361811Y-75846667D01*
X112361811Y-75846667D02*
X112301335Y-75725714D01*
X112301335Y-75725714D02*
X112301335Y-75423333D01*
X112301335Y-75423333D02*
X112361811Y-75302381D01*
X112361811Y-75302381D02*
X112422288Y-75241905D01*
X112422288Y-75241905D02*
X112543240Y-75181428D01*
X112543240Y-75181428D02*
X112845621Y-75181428D01*
X112845621Y-75181428D02*
X112966573Y-75241905D01*
X112966573Y-75241905D02*
X113027050Y-75302381D01*
X113027050Y-75302381D02*
X113087526Y-75423333D01*
X113087526Y-75423333D02*
X113087526Y-75725714D01*
X113087526Y-75725714D02*
X113027050Y-75846667D01*
X113027050Y-75846667D02*
X112966573Y-75907143D01*
X111817526Y-74395238D02*
X111817526Y-74274285D01*
X111817526Y-74274285D02*
X111878002Y-74153333D01*
X111878002Y-74153333D02*
X111938478Y-74092857D01*
X111938478Y-74092857D02*
X112059430Y-74032381D01*
X112059430Y-74032381D02*
X112301335Y-73971904D01*
X112301335Y-73971904D02*
X112603716Y-73971904D01*
X112603716Y-73971904D02*
X112845621Y-74032381D01*
X112845621Y-74032381D02*
X112966573Y-74092857D01*
X112966573Y-74092857D02*
X113027050Y-74153333D01*
X113027050Y-74153333D02*
X113087526Y-74274285D01*
X113087526Y-74274285D02*
X113087526Y-74395238D01*
X113087526Y-74395238D02*
X113027050Y-74516190D01*
X113027050Y-74516190D02*
X112966573Y-74576666D01*
X112966573Y-74576666D02*
X112845621Y-74637143D01*
X112845621Y-74637143D02*
X112603716Y-74697619D01*
X112603716Y-74697619D02*
X112301335Y-74697619D01*
X112301335Y-74697619D02*
X112059430Y-74637143D01*
X112059430Y-74637143D02*
X111938478Y-74576666D01*
X111938478Y-74576666D02*
X111878002Y-74516190D01*
X111878002Y-74516190D02*
X111817526Y-74395238D01*
X113087526Y-72762380D02*
X113087526Y-73488095D01*
X113087526Y-73125238D02*
X111817526Y-73125238D01*
X111817526Y-73125238D02*
X111998954Y-73246190D01*
X111998954Y-73246190D02*
X112119907Y-73367142D01*
X112119907Y-73367142D02*
X112180383Y-73488095D01*
D10*
%TO.C,U302*%
X115348714Y-60108619D02*
X115348714Y-60918142D01*
X115348714Y-60918142D02*
X115396333Y-61013380D01*
X115396333Y-61013380D02*
X115443952Y-61061000D01*
X115443952Y-61061000D02*
X115539190Y-61108619D01*
X115539190Y-61108619D02*
X115729666Y-61108619D01*
X115729666Y-61108619D02*
X115824904Y-61061000D01*
X115824904Y-61061000D02*
X115872523Y-61013380D01*
X115872523Y-61013380D02*
X115920142Y-60918142D01*
X115920142Y-60918142D02*
X115920142Y-60108619D01*
X116301095Y-60108619D02*
X116920142Y-60108619D01*
X116920142Y-60108619D02*
X116586809Y-60489571D01*
X116586809Y-60489571D02*
X116729666Y-60489571D01*
X116729666Y-60489571D02*
X116824904Y-60537190D01*
X116824904Y-60537190D02*
X116872523Y-60584809D01*
X116872523Y-60584809D02*
X116920142Y-60680047D01*
X116920142Y-60680047D02*
X116920142Y-60918142D01*
X116920142Y-60918142D02*
X116872523Y-61013380D01*
X116872523Y-61013380D02*
X116824904Y-61061000D01*
X116824904Y-61061000D02*
X116729666Y-61108619D01*
X116729666Y-61108619D02*
X116443952Y-61108619D01*
X116443952Y-61108619D02*
X116348714Y-61061000D01*
X116348714Y-61061000D02*
X116301095Y-61013380D01*
X117539190Y-60108619D02*
X117634428Y-60108619D01*
X117634428Y-60108619D02*
X117729666Y-60156238D01*
X117729666Y-60156238D02*
X117777285Y-60203857D01*
X117777285Y-60203857D02*
X117824904Y-60299095D01*
X117824904Y-60299095D02*
X117872523Y-60489571D01*
X117872523Y-60489571D02*
X117872523Y-60727666D01*
X117872523Y-60727666D02*
X117824904Y-60918142D01*
X117824904Y-60918142D02*
X117777285Y-61013380D01*
X117777285Y-61013380D02*
X117729666Y-61061000D01*
X117729666Y-61061000D02*
X117634428Y-61108619D01*
X117634428Y-61108619D02*
X117539190Y-61108619D01*
X117539190Y-61108619D02*
X117443952Y-61061000D01*
X117443952Y-61061000D02*
X117396333Y-61013380D01*
X117396333Y-61013380D02*
X117348714Y-60918142D01*
X117348714Y-60918142D02*
X117301095Y-60727666D01*
X117301095Y-60727666D02*
X117301095Y-60489571D01*
X117301095Y-60489571D02*
X117348714Y-60299095D01*
X117348714Y-60299095D02*
X117396333Y-60203857D01*
X117396333Y-60203857D02*
X117443952Y-60156238D01*
X117443952Y-60156238D02*
X117539190Y-60108619D01*
X118253476Y-60203857D02*
X118301095Y-60156238D01*
X118301095Y-60156238D02*
X118396333Y-60108619D01*
X118396333Y-60108619D02*
X118634428Y-60108619D01*
X118634428Y-60108619D02*
X118729666Y-60156238D01*
X118729666Y-60156238D02*
X118777285Y-60203857D01*
X118777285Y-60203857D02*
X118824904Y-60299095D01*
X118824904Y-60299095D02*
X118824904Y-60394333D01*
X118824904Y-60394333D02*
X118777285Y-60537190D01*
X118777285Y-60537190D02*
X118205857Y-61108619D01*
X118205857Y-61108619D02*
X118824904Y-61108619D01*
%TO.C,U301*%
X110436714Y-60670619D02*
X110436714Y-61480142D01*
X110436714Y-61480142D02*
X110484333Y-61575380D01*
X110484333Y-61575380D02*
X110531952Y-61623000D01*
X110531952Y-61623000D02*
X110627190Y-61670619D01*
X110627190Y-61670619D02*
X110817666Y-61670619D01*
X110817666Y-61670619D02*
X110912904Y-61623000D01*
X110912904Y-61623000D02*
X110960523Y-61575380D01*
X110960523Y-61575380D02*
X111008142Y-61480142D01*
X111008142Y-61480142D02*
X111008142Y-60670619D01*
X111389095Y-60670619D02*
X112008142Y-60670619D01*
X112008142Y-60670619D02*
X111674809Y-61051571D01*
X111674809Y-61051571D02*
X111817666Y-61051571D01*
X111817666Y-61051571D02*
X111912904Y-61099190D01*
X111912904Y-61099190D02*
X111960523Y-61146809D01*
X111960523Y-61146809D02*
X112008142Y-61242047D01*
X112008142Y-61242047D02*
X112008142Y-61480142D01*
X112008142Y-61480142D02*
X111960523Y-61575380D01*
X111960523Y-61575380D02*
X111912904Y-61623000D01*
X111912904Y-61623000D02*
X111817666Y-61670619D01*
X111817666Y-61670619D02*
X111531952Y-61670619D01*
X111531952Y-61670619D02*
X111436714Y-61623000D01*
X111436714Y-61623000D02*
X111389095Y-61575380D01*
X112627190Y-60670619D02*
X112722428Y-60670619D01*
X112722428Y-60670619D02*
X112817666Y-60718238D01*
X112817666Y-60718238D02*
X112865285Y-60765857D01*
X112865285Y-60765857D02*
X112912904Y-60861095D01*
X112912904Y-60861095D02*
X112960523Y-61051571D01*
X112960523Y-61051571D02*
X112960523Y-61289666D01*
X112960523Y-61289666D02*
X112912904Y-61480142D01*
X112912904Y-61480142D02*
X112865285Y-61575380D01*
X112865285Y-61575380D02*
X112817666Y-61623000D01*
X112817666Y-61623000D02*
X112722428Y-61670619D01*
X112722428Y-61670619D02*
X112627190Y-61670619D01*
X112627190Y-61670619D02*
X112531952Y-61623000D01*
X112531952Y-61623000D02*
X112484333Y-61575380D01*
X112484333Y-61575380D02*
X112436714Y-61480142D01*
X112436714Y-61480142D02*
X112389095Y-61289666D01*
X112389095Y-61289666D02*
X112389095Y-61051571D01*
X112389095Y-61051571D02*
X112436714Y-60861095D01*
X112436714Y-60861095D02*
X112484333Y-60765857D01*
X112484333Y-60765857D02*
X112531952Y-60718238D01*
X112531952Y-60718238D02*
X112627190Y-60670619D01*
X113912904Y-61670619D02*
X113341476Y-61670619D01*
X113627190Y-61670619D02*
X113627190Y-60670619D01*
X113627190Y-60670619D02*
X113531952Y-60813476D01*
X113531952Y-60813476D02*
X113436714Y-60908714D01*
X113436714Y-60908714D02*
X113341476Y-60956333D01*
D11*
%TO.C,PS201*%
X108461526Y-90089667D02*
X107191526Y-90089667D01*
X107191526Y-90089667D02*
X107191526Y-89605857D01*
X107191526Y-89605857D02*
X107252002Y-89484905D01*
X107252002Y-89484905D02*
X107312478Y-89424428D01*
X107312478Y-89424428D02*
X107433430Y-89363952D01*
X107433430Y-89363952D02*
X107614859Y-89363952D01*
X107614859Y-89363952D02*
X107735811Y-89424428D01*
X107735811Y-89424428D02*
X107796288Y-89484905D01*
X107796288Y-89484905D02*
X107856764Y-89605857D01*
X107856764Y-89605857D02*
X107856764Y-90089667D01*
X108401050Y-88880143D02*
X108461526Y-88698714D01*
X108461526Y-88698714D02*
X108461526Y-88396333D01*
X108461526Y-88396333D02*
X108401050Y-88275381D01*
X108401050Y-88275381D02*
X108340573Y-88214905D01*
X108340573Y-88214905D02*
X108219621Y-88154428D01*
X108219621Y-88154428D02*
X108098669Y-88154428D01*
X108098669Y-88154428D02*
X107977716Y-88214905D01*
X107977716Y-88214905D02*
X107917240Y-88275381D01*
X107917240Y-88275381D02*
X107856764Y-88396333D01*
X107856764Y-88396333D02*
X107796288Y-88638238D01*
X107796288Y-88638238D02*
X107735811Y-88759190D01*
X107735811Y-88759190D02*
X107675335Y-88819667D01*
X107675335Y-88819667D02*
X107554383Y-88880143D01*
X107554383Y-88880143D02*
X107433430Y-88880143D01*
X107433430Y-88880143D02*
X107312478Y-88819667D01*
X107312478Y-88819667D02*
X107252002Y-88759190D01*
X107252002Y-88759190D02*
X107191526Y-88638238D01*
X107191526Y-88638238D02*
X107191526Y-88335857D01*
X107191526Y-88335857D02*
X107252002Y-88154428D01*
X107312478Y-87670619D02*
X107252002Y-87610143D01*
X107252002Y-87610143D02*
X107191526Y-87489190D01*
X107191526Y-87489190D02*
X107191526Y-87186809D01*
X107191526Y-87186809D02*
X107252002Y-87065857D01*
X107252002Y-87065857D02*
X107312478Y-87005381D01*
X107312478Y-87005381D02*
X107433430Y-86944904D01*
X107433430Y-86944904D02*
X107554383Y-86944904D01*
X107554383Y-86944904D02*
X107735811Y-87005381D01*
X107735811Y-87005381D02*
X108461526Y-87731095D01*
X108461526Y-87731095D02*
X108461526Y-86944904D01*
X107191526Y-86158714D02*
X107191526Y-86037761D01*
X107191526Y-86037761D02*
X107252002Y-85916809D01*
X107252002Y-85916809D02*
X107312478Y-85856333D01*
X107312478Y-85856333D02*
X107433430Y-85795857D01*
X107433430Y-85795857D02*
X107675335Y-85735380D01*
X107675335Y-85735380D02*
X107977716Y-85735380D01*
X107977716Y-85735380D02*
X108219621Y-85795857D01*
X108219621Y-85795857D02*
X108340573Y-85856333D01*
X108340573Y-85856333D02*
X108401050Y-85916809D01*
X108401050Y-85916809D02*
X108461526Y-86037761D01*
X108461526Y-86037761D02*
X108461526Y-86158714D01*
X108461526Y-86158714D02*
X108401050Y-86279666D01*
X108401050Y-86279666D02*
X108340573Y-86340142D01*
X108340573Y-86340142D02*
X108219621Y-86400619D01*
X108219621Y-86400619D02*
X107977716Y-86461095D01*
X107977716Y-86461095D02*
X107675335Y-86461095D01*
X107675335Y-86461095D02*
X107433430Y-86400619D01*
X107433430Y-86400619D02*
X107312478Y-86340142D01*
X107312478Y-86340142D02*
X107252002Y-86279666D01*
X107252002Y-86279666D02*
X107191526Y-86158714D01*
X108461526Y-84525856D02*
X108461526Y-85251571D01*
X108461526Y-84888714D02*
X107191526Y-84888714D01*
X107191526Y-84888714D02*
X107372954Y-85009666D01*
X107372954Y-85009666D02*
X107493907Y-85130618D01*
X107493907Y-85130618D02*
X107554383Y-85251571D01*
D10*
%TO.C,J203*%
X116912619Y-90575714D02*
X117626904Y-90575714D01*
X117626904Y-90575714D02*
X117769761Y-90623333D01*
X117769761Y-90623333D02*
X117865000Y-90718571D01*
X117865000Y-90718571D02*
X117912619Y-90861428D01*
X117912619Y-90861428D02*
X117912619Y-90956666D01*
X117007857Y-90147142D02*
X116960238Y-90099523D01*
X116960238Y-90099523D02*
X116912619Y-90004285D01*
X116912619Y-90004285D02*
X116912619Y-89766190D01*
X116912619Y-89766190D02*
X116960238Y-89670952D01*
X116960238Y-89670952D02*
X117007857Y-89623333D01*
X117007857Y-89623333D02*
X117103095Y-89575714D01*
X117103095Y-89575714D02*
X117198333Y-89575714D01*
X117198333Y-89575714D02*
X117341190Y-89623333D01*
X117341190Y-89623333D02*
X117912619Y-90194761D01*
X117912619Y-90194761D02*
X117912619Y-89575714D01*
X116912619Y-88956666D02*
X116912619Y-88861428D01*
X116912619Y-88861428D02*
X116960238Y-88766190D01*
X116960238Y-88766190D02*
X117007857Y-88718571D01*
X117007857Y-88718571D02*
X117103095Y-88670952D01*
X117103095Y-88670952D02*
X117293571Y-88623333D01*
X117293571Y-88623333D02*
X117531666Y-88623333D01*
X117531666Y-88623333D02*
X117722142Y-88670952D01*
X117722142Y-88670952D02*
X117817380Y-88718571D01*
X117817380Y-88718571D02*
X117865000Y-88766190D01*
X117865000Y-88766190D02*
X117912619Y-88861428D01*
X117912619Y-88861428D02*
X117912619Y-88956666D01*
X117912619Y-88956666D02*
X117865000Y-89051904D01*
X117865000Y-89051904D02*
X117817380Y-89099523D01*
X117817380Y-89099523D02*
X117722142Y-89147142D01*
X117722142Y-89147142D02*
X117531666Y-89194761D01*
X117531666Y-89194761D02*
X117293571Y-89194761D01*
X117293571Y-89194761D02*
X117103095Y-89147142D01*
X117103095Y-89147142D02*
X117007857Y-89099523D01*
X117007857Y-89099523D02*
X116960238Y-89051904D01*
X116960238Y-89051904D02*
X116912619Y-88956666D01*
X116912619Y-88289999D02*
X116912619Y-87670952D01*
X116912619Y-87670952D02*
X117293571Y-88004285D01*
X117293571Y-88004285D02*
X117293571Y-87861428D01*
X117293571Y-87861428D02*
X117341190Y-87766190D01*
X117341190Y-87766190D02*
X117388809Y-87718571D01*
X117388809Y-87718571D02*
X117484047Y-87670952D01*
X117484047Y-87670952D02*
X117722142Y-87670952D01*
X117722142Y-87670952D02*
X117817380Y-87718571D01*
X117817380Y-87718571D02*
X117865000Y-87766190D01*
X117865000Y-87766190D02*
X117912619Y-87861428D01*
X117912619Y-87861428D02*
X117912619Y-88147142D01*
X117912619Y-88147142D02*
X117865000Y-88242380D01*
X117865000Y-88242380D02*
X117817380Y-88289999D01*
%TO.C,J202*%
X107012619Y-90535714D02*
X107726904Y-90535714D01*
X107726904Y-90535714D02*
X107869761Y-90583333D01*
X107869761Y-90583333D02*
X107965000Y-90678571D01*
X107965000Y-90678571D02*
X108012619Y-90821428D01*
X108012619Y-90821428D02*
X108012619Y-90916666D01*
X107107857Y-90107142D02*
X107060238Y-90059523D01*
X107060238Y-90059523D02*
X107012619Y-89964285D01*
X107012619Y-89964285D02*
X107012619Y-89726190D01*
X107012619Y-89726190D02*
X107060238Y-89630952D01*
X107060238Y-89630952D02*
X107107857Y-89583333D01*
X107107857Y-89583333D02*
X107203095Y-89535714D01*
X107203095Y-89535714D02*
X107298333Y-89535714D01*
X107298333Y-89535714D02*
X107441190Y-89583333D01*
X107441190Y-89583333D02*
X108012619Y-90154761D01*
X108012619Y-90154761D02*
X108012619Y-89535714D01*
X107012619Y-88916666D02*
X107012619Y-88821428D01*
X107012619Y-88821428D02*
X107060238Y-88726190D01*
X107060238Y-88726190D02*
X107107857Y-88678571D01*
X107107857Y-88678571D02*
X107203095Y-88630952D01*
X107203095Y-88630952D02*
X107393571Y-88583333D01*
X107393571Y-88583333D02*
X107631666Y-88583333D01*
X107631666Y-88583333D02*
X107822142Y-88630952D01*
X107822142Y-88630952D02*
X107917380Y-88678571D01*
X107917380Y-88678571D02*
X107965000Y-88726190D01*
X107965000Y-88726190D02*
X108012619Y-88821428D01*
X108012619Y-88821428D02*
X108012619Y-88916666D01*
X108012619Y-88916666D02*
X107965000Y-89011904D01*
X107965000Y-89011904D02*
X107917380Y-89059523D01*
X107917380Y-89059523D02*
X107822142Y-89107142D01*
X107822142Y-89107142D02*
X107631666Y-89154761D01*
X107631666Y-89154761D02*
X107393571Y-89154761D01*
X107393571Y-89154761D02*
X107203095Y-89107142D01*
X107203095Y-89107142D02*
X107107857Y-89059523D01*
X107107857Y-89059523D02*
X107060238Y-89011904D01*
X107060238Y-89011904D02*
X107012619Y-88916666D01*
X107107857Y-88202380D02*
X107060238Y-88154761D01*
X107060238Y-88154761D02*
X107012619Y-88059523D01*
X107012619Y-88059523D02*
X107012619Y-87821428D01*
X107012619Y-87821428D02*
X107060238Y-87726190D01*
X107060238Y-87726190D02*
X107107857Y-87678571D01*
X107107857Y-87678571D02*
X107203095Y-87630952D01*
X107203095Y-87630952D02*
X107298333Y-87630952D01*
X107298333Y-87630952D02*
X107441190Y-87678571D01*
X107441190Y-87678571D02*
X108012619Y-88249999D01*
X108012619Y-88249999D02*
X108012619Y-87630952D01*
%TO.C,J201*%
X113039285Y-60191837D02*
X113039285Y-60906122D01*
X113039285Y-60906122D02*
X112991666Y-61048979D01*
X112991666Y-61048979D02*
X112896428Y-61144218D01*
X112896428Y-61144218D02*
X112753571Y-61191837D01*
X112753571Y-61191837D02*
X112658333Y-61191837D01*
X113467857Y-60287075D02*
X113515476Y-60239456D01*
X113515476Y-60239456D02*
X113610714Y-60191837D01*
X113610714Y-60191837D02*
X113848809Y-60191837D01*
X113848809Y-60191837D02*
X113944047Y-60239456D01*
X113944047Y-60239456D02*
X113991666Y-60287075D01*
X113991666Y-60287075D02*
X114039285Y-60382313D01*
X114039285Y-60382313D02*
X114039285Y-60477551D01*
X114039285Y-60477551D02*
X113991666Y-60620408D01*
X113991666Y-60620408D02*
X113420238Y-61191837D01*
X113420238Y-61191837D02*
X114039285Y-61191837D01*
X114658333Y-60191837D02*
X114753571Y-60191837D01*
X114753571Y-60191837D02*
X114848809Y-60239456D01*
X114848809Y-60239456D02*
X114896428Y-60287075D01*
X114896428Y-60287075D02*
X114944047Y-60382313D01*
X114944047Y-60382313D02*
X114991666Y-60572789D01*
X114991666Y-60572789D02*
X114991666Y-60810884D01*
X114991666Y-60810884D02*
X114944047Y-61001360D01*
X114944047Y-61001360D02*
X114896428Y-61096598D01*
X114896428Y-61096598D02*
X114848809Y-61144218D01*
X114848809Y-61144218D02*
X114753571Y-61191837D01*
X114753571Y-61191837D02*
X114658333Y-61191837D01*
X114658333Y-61191837D02*
X114563095Y-61144218D01*
X114563095Y-61144218D02*
X114515476Y-61096598D01*
X114515476Y-61096598D02*
X114467857Y-61001360D01*
X114467857Y-61001360D02*
X114420238Y-60810884D01*
X114420238Y-60810884D02*
X114420238Y-60572789D01*
X114420238Y-60572789D02*
X114467857Y-60382313D01*
X114467857Y-60382313D02*
X114515476Y-60287075D01*
X114515476Y-60287075D02*
X114563095Y-60239456D01*
X114563095Y-60239456D02*
X114658333Y-60191837D01*
X115944047Y-61191837D02*
X115372619Y-61191837D01*
X115658333Y-61191837D02*
X115658333Y-60191837D01*
X115658333Y-60191837D02*
X115563095Y-60334694D01*
X115563095Y-60334694D02*
X115467857Y-60429932D01*
X115467857Y-60429932D02*
X115372619Y-60477551D01*
%TO.C,D501*%
X110809524Y-95768619D02*
X110809524Y-94768619D01*
X110809524Y-94768619D02*
X111047619Y-94768619D01*
X111047619Y-94768619D02*
X111190476Y-94816238D01*
X111190476Y-94816238D02*
X111285714Y-94911476D01*
X111285714Y-94911476D02*
X111333333Y-95006714D01*
X111333333Y-95006714D02*
X111380952Y-95197190D01*
X111380952Y-95197190D02*
X111380952Y-95340047D01*
X111380952Y-95340047D02*
X111333333Y-95530523D01*
X111333333Y-95530523D02*
X111285714Y-95625761D01*
X111285714Y-95625761D02*
X111190476Y-95721000D01*
X111190476Y-95721000D02*
X111047619Y-95768619D01*
X111047619Y-95768619D02*
X110809524Y-95768619D01*
X112285714Y-94768619D02*
X111809524Y-94768619D01*
X111809524Y-94768619D02*
X111761905Y-95244809D01*
X111761905Y-95244809D02*
X111809524Y-95197190D01*
X111809524Y-95197190D02*
X111904762Y-95149571D01*
X111904762Y-95149571D02*
X112142857Y-95149571D01*
X112142857Y-95149571D02*
X112238095Y-95197190D01*
X112238095Y-95197190D02*
X112285714Y-95244809D01*
X112285714Y-95244809D02*
X112333333Y-95340047D01*
X112333333Y-95340047D02*
X112333333Y-95578142D01*
X112333333Y-95578142D02*
X112285714Y-95673380D01*
X112285714Y-95673380D02*
X112238095Y-95721000D01*
X112238095Y-95721000D02*
X112142857Y-95768619D01*
X112142857Y-95768619D02*
X111904762Y-95768619D01*
X111904762Y-95768619D02*
X111809524Y-95721000D01*
X111809524Y-95721000D02*
X111761905Y-95673380D01*
X112952381Y-94768619D02*
X113047619Y-94768619D01*
X113047619Y-94768619D02*
X113142857Y-94816238D01*
X113142857Y-94816238D02*
X113190476Y-94863857D01*
X113190476Y-94863857D02*
X113238095Y-94959095D01*
X113238095Y-94959095D02*
X113285714Y-95149571D01*
X113285714Y-95149571D02*
X113285714Y-95387666D01*
X113285714Y-95387666D02*
X113238095Y-95578142D01*
X113238095Y-95578142D02*
X113190476Y-95673380D01*
X113190476Y-95673380D02*
X113142857Y-95721000D01*
X113142857Y-95721000D02*
X113047619Y-95768619D01*
X113047619Y-95768619D02*
X112952381Y-95768619D01*
X112952381Y-95768619D02*
X112857143Y-95721000D01*
X112857143Y-95721000D02*
X112809524Y-95673380D01*
X112809524Y-95673380D02*
X112761905Y-95578142D01*
X112761905Y-95578142D02*
X112714286Y-95387666D01*
X112714286Y-95387666D02*
X112714286Y-95149571D01*
X112714286Y-95149571D02*
X112761905Y-94959095D01*
X112761905Y-94959095D02*
X112809524Y-94863857D01*
X112809524Y-94863857D02*
X112857143Y-94816238D01*
X112857143Y-94816238D02*
X112952381Y-94768619D01*
X114238095Y-95768619D02*
X113666667Y-95768619D01*
X113952381Y-95768619D02*
X113952381Y-94768619D01*
X113952381Y-94768619D02*
X113857143Y-94911476D01*
X113857143Y-94911476D02*
X113761905Y-95006714D01*
X113761905Y-95006714D02*
X113666667Y-95054333D01*
%TO.C,D201*%
X110809524Y-94032619D02*
X110809524Y-93032619D01*
X110809524Y-93032619D02*
X111047619Y-93032619D01*
X111047619Y-93032619D02*
X111190476Y-93080238D01*
X111190476Y-93080238D02*
X111285714Y-93175476D01*
X111285714Y-93175476D02*
X111333333Y-93270714D01*
X111333333Y-93270714D02*
X111380952Y-93461190D01*
X111380952Y-93461190D02*
X111380952Y-93604047D01*
X111380952Y-93604047D02*
X111333333Y-93794523D01*
X111333333Y-93794523D02*
X111285714Y-93889761D01*
X111285714Y-93889761D02*
X111190476Y-93985000D01*
X111190476Y-93985000D02*
X111047619Y-94032619D01*
X111047619Y-94032619D02*
X110809524Y-94032619D01*
X111761905Y-93127857D02*
X111809524Y-93080238D01*
X111809524Y-93080238D02*
X111904762Y-93032619D01*
X111904762Y-93032619D02*
X112142857Y-93032619D01*
X112142857Y-93032619D02*
X112238095Y-93080238D01*
X112238095Y-93080238D02*
X112285714Y-93127857D01*
X112285714Y-93127857D02*
X112333333Y-93223095D01*
X112333333Y-93223095D02*
X112333333Y-93318333D01*
X112333333Y-93318333D02*
X112285714Y-93461190D01*
X112285714Y-93461190D02*
X111714286Y-94032619D01*
X111714286Y-94032619D02*
X112333333Y-94032619D01*
X112952381Y-93032619D02*
X113047619Y-93032619D01*
X113047619Y-93032619D02*
X113142857Y-93080238D01*
X113142857Y-93080238D02*
X113190476Y-93127857D01*
X113190476Y-93127857D02*
X113238095Y-93223095D01*
X113238095Y-93223095D02*
X113285714Y-93413571D01*
X113285714Y-93413571D02*
X113285714Y-93651666D01*
X113285714Y-93651666D02*
X113238095Y-93842142D01*
X113238095Y-93842142D02*
X113190476Y-93937380D01*
X113190476Y-93937380D02*
X113142857Y-93985000D01*
X113142857Y-93985000D02*
X113047619Y-94032619D01*
X113047619Y-94032619D02*
X112952381Y-94032619D01*
X112952381Y-94032619D02*
X112857143Y-93985000D01*
X112857143Y-93985000D02*
X112809524Y-93937380D01*
X112809524Y-93937380D02*
X112761905Y-93842142D01*
X112761905Y-93842142D02*
X112714286Y-93651666D01*
X112714286Y-93651666D02*
X112714286Y-93413571D01*
X112714286Y-93413571D02*
X112761905Y-93223095D01*
X112761905Y-93223095D02*
X112809524Y-93127857D01*
X112809524Y-93127857D02*
X112857143Y-93080238D01*
X112857143Y-93080238D02*
X112952381Y-93032619D01*
X114238095Y-94032619D02*
X113666667Y-94032619D01*
X113952381Y-94032619D02*
X113952381Y-93032619D01*
X113952381Y-93032619D02*
X113857143Y-93175476D01*
X113857143Y-93175476D02*
X113761905Y-93270714D01*
X113761905Y-93270714D02*
X113666667Y-93318333D01*
%TO.C,C408*%
X106557380Y-83377047D02*
X106605000Y-83424666D01*
X106605000Y-83424666D02*
X106652619Y-83567523D01*
X106652619Y-83567523D02*
X106652619Y-83662761D01*
X106652619Y-83662761D02*
X106605000Y-83805618D01*
X106605000Y-83805618D02*
X106509761Y-83900856D01*
X106509761Y-83900856D02*
X106414523Y-83948475D01*
X106414523Y-83948475D02*
X106224047Y-83996094D01*
X106224047Y-83996094D02*
X106081190Y-83996094D01*
X106081190Y-83996094D02*
X105890714Y-83948475D01*
X105890714Y-83948475D02*
X105795476Y-83900856D01*
X105795476Y-83900856D02*
X105700238Y-83805618D01*
X105700238Y-83805618D02*
X105652619Y-83662761D01*
X105652619Y-83662761D02*
X105652619Y-83567523D01*
X105652619Y-83567523D02*
X105700238Y-83424666D01*
X105700238Y-83424666D02*
X105747857Y-83377047D01*
X105985952Y-82519904D02*
X106652619Y-82519904D01*
X105605000Y-82757999D02*
X106319285Y-82996094D01*
X106319285Y-82996094D02*
X106319285Y-82377047D01*
X105652619Y-81805618D02*
X105652619Y-81710380D01*
X105652619Y-81710380D02*
X105700238Y-81615142D01*
X105700238Y-81615142D02*
X105747857Y-81567523D01*
X105747857Y-81567523D02*
X105843095Y-81519904D01*
X105843095Y-81519904D02*
X106033571Y-81472285D01*
X106033571Y-81472285D02*
X106271666Y-81472285D01*
X106271666Y-81472285D02*
X106462142Y-81519904D01*
X106462142Y-81519904D02*
X106557380Y-81567523D01*
X106557380Y-81567523D02*
X106605000Y-81615142D01*
X106605000Y-81615142D02*
X106652619Y-81710380D01*
X106652619Y-81710380D02*
X106652619Y-81805618D01*
X106652619Y-81805618D02*
X106605000Y-81900856D01*
X106605000Y-81900856D02*
X106557380Y-81948475D01*
X106557380Y-81948475D02*
X106462142Y-81996094D01*
X106462142Y-81996094D02*
X106271666Y-82043713D01*
X106271666Y-82043713D02*
X106033571Y-82043713D01*
X106033571Y-82043713D02*
X105843095Y-81996094D01*
X105843095Y-81996094D02*
X105747857Y-81948475D01*
X105747857Y-81948475D02*
X105700238Y-81900856D01*
X105700238Y-81900856D02*
X105652619Y-81805618D01*
X106081190Y-80900856D02*
X106033571Y-80996094D01*
X106033571Y-80996094D02*
X105985952Y-81043713D01*
X105985952Y-81043713D02*
X105890714Y-81091332D01*
X105890714Y-81091332D02*
X105843095Y-81091332D01*
X105843095Y-81091332D02*
X105747857Y-81043713D01*
X105747857Y-81043713D02*
X105700238Y-80996094D01*
X105700238Y-80996094D02*
X105652619Y-80900856D01*
X105652619Y-80900856D02*
X105652619Y-80710380D01*
X105652619Y-80710380D02*
X105700238Y-80615142D01*
X105700238Y-80615142D02*
X105747857Y-80567523D01*
X105747857Y-80567523D02*
X105843095Y-80519904D01*
X105843095Y-80519904D02*
X105890714Y-80519904D01*
X105890714Y-80519904D02*
X105985952Y-80567523D01*
X105985952Y-80567523D02*
X106033571Y-80615142D01*
X106033571Y-80615142D02*
X106081190Y-80710380D01*
X106081190Y-80710380D02*
X106081190Y-80900856D01*
X106081190Y-80900856D02*
X106128809Y-80996094D01*
X106128809Y-80996094D02*
X106176428Y-81043713D01*
X106176428Y-81043713D02*
X106271666Y-81091332D01*
X106271666Y-81091332D02*
X106462142Y-81091332D01*
X106462142Y-81091332D02*
X106557380Y-81043713D01*
X106557380Y-81043713D02*
X106605000Y-80996094D01*
X106605000Y-80996094D02*
X106652619Y-80900856D01*
X106652619Y-80900856D02*
X106652619Y-80710380D01*
X106652619Y-80710380D02*
X106605000Y-80615142D01*
X106605000Y-80615142D02*
X106557380Y-80567523D01*
X106557380Y-80567523D02*
X106462142Y-80519904D01*
X106462142Y-80519904D02*
X106271666Y-80519904D01*
X106271666Y-80519904D02*
X106176428Y-80567523D01*
X106176428Y-80567523D02*
X106128809Y-80615142D01*
X106128809Y-80615142D02*
X106081190Y-80710380D01*
%TO.C,C407*%
X115447380Y-83377047D02*
X115495000Y-83424666D01*
X115495000Y-83424666D02*
X115542619Y-83567523D01*
X115542619Y-83567523D02*
X115542619Y-83662761D01*
X115542619Y-83662761D02*
X115495000Y-83805618D01*
X115495000Y-83805618D02*
X115399761Y-83900856D01*
X115399761Y-83900856D02*
X115304523Y-83948475D01*
X115304523Y-83948475D02*
X115114047Y-83996094D01*
X115114047Y-83996094D02*
X114971190Y-83996094D01*
X114971190Y-83996094D02*
X114780714Y-83948475D01*
X114780714Y-83948475D02*
X114685476Y-83900856D01*
X114685476Y-83900856D02*
X114590238Y-83805618D01*
X114590238Y-83805618D02*
X114542619Y-83662761D01*
X114542619Y-83662761D02*
X114542619Y-83567523D01*
X114542619Y-83567523D02*
X114590238Y-83424666D01*
X114590238Y-83424666D02*
X114637857Y-83377047D01*
X114875952Y-82519904D02*
X115542619Y-82519904D01*
X114495000Y-82757999D02*
X115209285Y-82996094D01*
X115209285Y-82996094D02*
X115209285Y-82377047D01*
X114542619Y-81805618D02*
X114542619Y-81710380D01*
X114542619Y-81710380D02*
X114590238Y-81615142D01*
X114590238Y-81615142D02*
X114637857Y-81567523D01*
X114637857Y-81567523D02*
X114733095Y-81519904D01*
X114733095Y-81519904D02*
X114923571Y-81472285D01*
X114923571Y-81472285D02*
X115161666Y-81472285D01*
X115161666Y-81472285D02*
X115352142Y-81519904D01*
X115352142Y-81519904D02*
X115447380Y-81567523D01*
X115447380Y-81567523D02*
X115495000Y-81615142D01*
X115495000Y-81615142D02*
X115542619Y-81710380D01*
X115542619Y-81710380D02*
X115542619Y-81805618D01*
X115542619Y-81805618D02*
X115495000Y-81900856D01*
X115495000Y-81900856D02*
X115447380Y-81948475D01*
X115447380Y-81948475D02*
X115352142Y-81996094D01*
X115352142Y-81996094D02*
X115161666Y-82043713D01*
X115161666Y-82043713D02*
X114923571Y-82043713D01*
X114923571Y-82043713D02*
X114733095Y-81996094D01*
X114733095Y-81996094D02*
X114637857Y-81948475D01*
X114637857Y-81948475D02*
X114590238Y-81900856D01*
X114590238Y-81900856D02*
X114542619Y-81805618D01*
X114542619Y-81138951D02*
X114542619Y-80472285D01*
X114542619Y-80472285D02*
X115542619Y-80900856D01*
%TO.C,C405*%
X108335380Y-83377047D02*
X108383000Y-83424666D01*
X108383000Y-83424666D02*
X108430619Y-83567523D01*
X108430619Y-83567523D02*
X108430619Y-83662761D01*
X108430619Y-83662761D02*
X108383000Y-83805618D01*
X108383000Y-83805618D02*
X108287761Y-83900856D01*
X108287761Y-83900856D02*
X108192523Y-83948475D01*
X108192523Y-83948475D02*
X108002047Y-83996094D01*
X108002047Y-83996094D02*
X107859190Y-83996094D01*
X107859190Y-83996094D02*
X107668714Y-83948475D01*
X107668714Y-83948475D02*
X107573476Y-83900856D01*
X107573476Y-83900856D02*
X107478238Y-83805618D01*
X107478238Y-83805618D02*
X107430619Y-83662761D01*
X107430619Y-83662761D02*
X107430619Y-83567523D01*
X107430619Y-83567523D02*
X107478238Y-83424666D01*
X107478238Y-83424666D02*
X107525857Y-83377047D01*
X107763952Y-82519904D02*
X108430619Y-82519904D01*
X107383000Y-82757999D02*
X108097285Y-82996094D01*
X108097285Y-82996094D02*
X108097285Y-82377047D01*
X107430619Y-81805618D02*
X107430619Y-81710380D01*
X107430619Y-81710380D02*
X107478238Y-81615142D01*
X107478238Y-81615142D02*
X107525857Y-81567523D01*
X107525857Y-81567523D02*
X107621095Y-81519904D01*
X107621095Y-81519904D02*
X107811571Y-81472285D01*
X107811571Y-81472285D02*
X108049666Y-81472285D01*
X108049666Y-81472285D02*
X108240142Y-81519904D01*
X108240142Y-81519904D02*
X108335380Y-81567523D01*
X108335380Y-81567523D02*
X108383000Y-81615142D01*
X108383000Y-81615142D02*
X108430619Y-81710380D01*
X108430619Y-81710380D02*
X108430619Y-81805618D01*
X108430619Y-81805618D02*
X108383000Y-81900856D01*
X108383000Y-81900856D02*
X108335380Y-81948475D01*
X108335380Y-81948475D02*
X108240142Y-81996094D01*
X108240142Y-81996094D02*
X108049666Y-82043713D01*
X108049666Y-82043713D02*
X107811571Y-82043713D01*
X107811571Y-82043713D02*
X107621095Y-81996094D01*
X107621095Y-81996094D02*
X107525857Y-81948475D01*
X107525857Y-81948475D02*
X107478238Y-81900856D01*
X107478238Y-81900856D02*
X107430619Y-81805618D01*
X107430619Y-80567523D02*
X107430619Y-81043713D01*
X107430619Y-81043713D02*
X107906809Y-81091332D01*
X107906809Y-81091332D02*
X107859190Y-81043713D01*
X107859190Y-81043713D02*
X107811571Y-80948475D01*
X107811571Y-80948475D02*
X107811571Y-80710380D01*
X107811571Y-80710380D02*
X107859190Y-80615142D01*
X107859190Y-80615142D02*
X107906809Y-80567523D01*
X107906809Y-80567523D02*
X108002047Y-80519904D01*
X108002047Y-80519904D02*
X108240142Y-80519904D01*
X108240142Y-80519904D02*
X108335380Y-80567523D01*
X108335380Y-80567523D02*
X108383000Y-80615142D01*
X108383000Y-80615142D02*
X108430619Y-80710380D01*
X108430619Y-80710380D02*
X108430619Y-80948475D01*
X108430619Y-80948475D02*
X108383000Y-81043713D01*
X108383000Y-81043713D02*
X108335380Y-81091332D01*
%TO.C,C404*%
X111449380Y-68899047D02*
X111497000Y-68946666D01*
X111497000Y-68946666D02*
X111544619Y-69089523D01*
X111544619Y-69089523D02*
X111544619Y-69184761D01*
X111544619Y-69184761D02*
X111497000Y-69327618D01*
X111497000Y-69327618D02*
X111401761Y-69422856D01*
X111401761Y-69422856D02*
X111306523Y-69470475D01*
X111306523Y-69470475D02*
X111116047Y-69518094D01*
X111116047Y-69518094D02*
X110973190Y-69518094D01*
X110973190Y-69518094D02*
X110782714Y-69470475D01*
X110782714Y-69470475D02*
X110687476Y-69422856D01*
X110687476Y-69422856D02*
X110592238Y-69327618D01*
X110592238Y-69327618D02*
X110544619Y-69184761D01*
X110544619Y-69184761D02*
X110544619Y-69089523D01*
X110544619Y-69089523D02*
X110592238Y-68946666D01*
X110592238Y-68946666D02*
X110639857Y-68899047D01*
X110877952Y-68041904D02*
X111544619Y-68041904D01*
X110497000Y-68279999D02*
X111211285Y-68518094D01*
X111211285Y-68518094D02*
X111211285Y-67899047D01*
X110544619Y-67327618D02*
X110544619Y-67232380D01*
X110544619Y-67232380D02*
X110592238Y-67137142D01*
X110592238Y-67137142D02*
X110639857Y-67089523D01*
X110639857Y-67089523D02*
X110735095Y-67041904D01*
X110735095Y-67041904D02*
X110925571Y-66994285D01*
X110925571Y-66994285D02*
X111163666Y-66994285D01*
X111163666Y-66994285D02*
X111354142Y-67041904D01*
X111354142Y-67041904D02*
X111449380Y-67089523D01*
X111449380Y-67089523D02*
X111497000Y-67137142D01*
X111497000Y-67137142D02*
X111544619Y-67232380D01*
X111544619Y-67232380D02*
X111544619Y-67327618D01*
X111544619Y-67327618D02*
X111497000Y-67422856D01*
X111497000Y-67422856D02*
X111449380Y-67470475D01*
X111449380Y-67470475D02*
X111354142Y-67518094D01*
X111354142Y-67518094D02*
X111163666Y-67565713D01*
X111163666Y-67565713D02*
X110925571Y-67565713D01*
X110925571Y-67565713D02*
X110735095Y-67518094D01*
X110735095Y-67518094D02*
X110639857Y-67470475D01*
X110639857Y-67470475D02*
X110592238Y-67422856D01*
X110592238Y-67422856D02*
X110544619Y-67327618D01*
X110877952Y-66137142D02*
X111544619Y-66137142D01*
X110497000Y-66375237D02*
X111211285Y-66613332D01*
X111211285Y-66613332D02*
X111211285Y-65994285D01*
%TO.C,C403*%
X103960952Y-77131380D02*
X103913333Y-77179000D01*
X103913333Y-77179000D02*
X103770476Y-77226619D01*
X103770476Y-77226619D02*
X103675238Y-77226619D01*
X103675238Y-77226619D02*
X103532381Y-77179000D01*
X103532381Y-77179000D02*
X103437143Y-77083761D01*
X103437143Y-77083761D02*
X103389524Y-76988523D01*
X103389524Y-76988523D02*
X103341905Y-76798047D01*
X103341905Y-76798047D02*
X103341905Y-76655190D01*
X103341905Y-76655190D02*
X103389524Y-76464714D01*
X103389524Y-76464714D02*
X103437143Y-76369476D01*
X103437143Y-76369476D02*
X103532381Y-76274238D01*
X103532381Y-76274238D02*
X103675238Y-76226619D01*
X103675238Y-76226619D02*
X103770476Y-76226619D01*
X103770476Y-76226619D02*
X103913333Y-76274238D01*
X103913333Y-76274238D02*
X103960952Y-76321857D01*
X104818095Y-76559952D02*
X104818095Y-77226619D01*
X104580000Y-76179000D02*
X104341905Y-76893285D01*
X104341905Y-76893285D02*
X104960952Y-76893285D01*
X105532381Y-76226619D02*
X105627619Y-76226619D01*
X105627619Y-76226619D02*
X105722857Y-76274238D01*
X105722857Y-76274238D02*
X105770476Y-76321857D01*
X105770476Y-76321857D02*
X105818095Y-76417095D01*
X105818095Y-76417095D02*
X105865714Y-76607571D01*
X105865714Y-76607571D02*
X105865714Y-76845666D01*
X105865714Y-76845666D02*
X105818095Y-77036142D01*
X105818095Y-77036142D02*
X105770476Y-77131380D01*
X105770476Y-77131380D02*
X105722857Y-77179000D01*
X105722857Y-77179000D02*
X105627619Y-77226619D01*
X105627619Y-77226619D02*
X105532381Y-77226619D01*
X105532381Y-77226619D02*
X105437143Y-77179000D01*
X105437143Y-77179000D02*
X105389524Y-77131380D01*
X105389524Y-77131380D02*
X105341905Y-77036142D01*
X105341905Y-77036142D02*
X105294286Y-76845666D01*
X105294286Y-76845666D02*
X105294286Y-76607571D01*
X105294286Y-76607571D02*
X105341905Y-76417095D01*
X105341905Y-76417095D02*
X105389524Y-76321857D01*
X105389524Y-76321857D02*
X105437143Y-76274238D01*
X105437143Y-76274238D02*
X105532381Y-76226619D01*
X106199048Y-76226619D02*
X106818095Y-76226619D01*
X106818095Y-76226619D02*
X106484762Y-76607571D01*
X106484762Y-76607571D02*
X106627619Y-76607571D01*
X106627619Y-76607571D02*
X106722857Y-76655190D01*
X106722857Y-76655190D02*
X106770476Y-76702809D01*
X106770476Y-76702809D02*
X106818095Y-76798047D01*
X106818095Y-76798047D02*
X106818095Y-77036142D01*
X106818095Y-77036142D02*
X106770476Y-77131380D01*
X106770476Y-77131380D02*
X106722857Y-77179000D01*
X106722857Y-77179000D02*
X106627619Y-77226619D01*
X106627619Y-77226619D02*
X106341905Y-77226619D01*
X106341905Y-77226619D02*
X106246667Y-77179000D01*
X106246667Y-77179000D02*
X106199048Y-77131380D01*
%TO.C,C402*%
X112653380Y-83377047D02*
X112701000Y-83424666D01*
X112701000Y-83424666D02*
X112748619Y-83567523D01*
X112748619Y-83567523D02*
X112748619Y-83662761D01*
X112748619Y-83662761D02*
X112701000Y-83805618D01*
X112701000Y-83805618D02*
X112605761Y-83900856D01*
X112605761Y-83900856D02*
X112510523Y-83948475D01*
X112510523Y-83948475D02*
X112320047Y-83996094D01*
X112320047Y-83996094D02*
X112177190Y-83996094D01*
X112177190Y-83996094D02*
X111986714Y-83948475D01*
X111986714Y-83948475D02*
X111891476Y-83900856D01*
X111891476Y-83900856D02*
X111796238Y-83805618D01*
X111796238Y-83805618D02*
X111748619Y-83662761D01*
X111748619Y-83662761D02*
X111748619Y-83567523D01*
X111748619Y-83567523D02*
X111796238Y-83424666D01*
X111796238Y-83424666D02*
X111843857Y-83377047D01*
X112081952Y-82519904D02*
X112748619Y-82519904D01*
X111701000Y-82757999D02*
X112415285Y-82996094D01*
X112415285Y-82996094D02*
X112415285Y-82377047D01*
X111748619Y-81805618D02*
X111748619Y-81710380D01*
X111748619Y-81710380D02*
X111796238Y-81615142D01*
X111796238Y-81615142D02*
X111843857Y-81567523D01*
X111843857Y-81567523D02*
X111939095Y-81519904D01*
X111939095Y-81519904D02*
X112129571Y-81472285D01*
X112129571Y-81472285D02*
X112367666Y-81472285D01*
X112367666Y-81472285D02*
X112558142Y-81519904D01*
X112558142Y-81519904D02*
X112653380Y-81567523D01*
X112653380Y-81567523D02*
X112701000Y-81615142D01*
X112701000Y-81615142D02*
X112748619Y-81710380D01*
X112748619Y-81710380D02*
X112748619Y-81805618D01*
X112748619Y-81805618D02*
X112701000Y-81900856D01*
X112701000Y-81900856D02*
X112653380Y-81948475D01*
X112653380Y-81948475D02*
X112558142Y-81996094D01*
X112558142Y-81996094D02*
X112367666Y-82043713D01*
X112367666Y-82043713D02*
X112129571Y-82043713D01*
X112129571Y-82043713D02*
X111939095Y-81996094D01*
X111939095Y-81996094D02*
X111843857Y-81948475D01*
X111843857Y-81948475D02*
X111796238Y-81900856D01*
X111796238Y-81900856D02*
X111748619Y-81805618D01*
X111843857Y-81091332D02*
X111796238Y-81043713D01*
X111796238Y-81043713D02*
X111748619Y-80948475D01*
X111748619Y-80948475D02*
X111748619Y-80710380D01*
X111748619Y-80710380D02*
X111796238Y-80615142D01*
X111796238Y-80615142D02*
X111843857Y-80567523D01*
X111843857Y-80567523D02*
X111939095Y-80519904D01*
X111939095Y-80519904D02*
X112034333Y-80519904D01*
X112034333Y-80519904D02*
X112177190Y-80567523D01*
X112177190Y-80567523D02*
X112748619Y-81138951D01*
X112748619Y-81138951D02*
X112748619Y-80519904D01*
%TO.C,C401*%
X118692952Y-73895380D02*
X118645333Y-73943000D01*
X118645333Y-73943000D02*
X118502476Y-73990619D01*
X118502476Y-73990619D02*
X118407238Y-73990619D01*
X118407238Y-73990619D02*
X118264381Y-73943000D01*
X118264381Y-73943000D02*
X118169143Y-73847761D01*
X118169143Y-73847761D02*
X118121524Y-73752523D01*
X118121524Y-73752523D02*
X118073905Y-73562047D01*
X118073905Y-73562047D02*
X118073905Y-73419190D01*
X118073905Y-73419190D02*
X118121524Y-73228714D01*
X118121524Y-73228714D02*
X118169143Y-73133476D01*
X118169143Y-73133476D02*
X118264381Y-73038238D01*
X118264381Y-73038238D02*
X118407238Y-72990619D01*
X118407238Y-72990619D02*
X118502476Y-72990619D01*
X118502476Y-72990619D02*
X118645333Y-73038238D01*
X118645333Y-73038238D02*
X118692952Y-73085857D01*
X119550095Y-73323952D02*
X119550095Y-73990619D01*
X119312000Y-72943000D02*
X119073905Y-73657285D01*
X119073905Y-73657285D02*
X119692952Y-73657285D01*
X120264381Y-72990619D02*
X120359619Y-72990619D01*
X120359619Y-72990619D02*
X120454857Y-73038238D01*
X120454857Y-73038238D02*
X120502476Y-73085857D01*
X120502476Y-73085857D02*
X120550095Y-73181095D01*
X120550095Y-73181095D02*
X120597714Y-73371571D01*
X120597714Y-73371571D02*
X120597714Y-73609666D01*
X120597714Y-73609666D02*
X120550095Y-73800142D01*
X120550095Y-73800142D02*
X120502476Y-73895380D01*
X120502476Y-73895380D02*
X120454857Y-73943000D01*
X120454857Y-73943000D02*
X120359619Y-73990619D01*
X120359619Y-73990619D02*
X120264381Y-73990619D01*
X120264381Y-73990619D02*
X120169143Y-73943000D01*
X120169143Y-73943000D02*
X120121524Y-73895380D01*
X120121524Y-73895380D02*
X120073905Y-73800142D01*
X120073905Y-73800142D02*
X120026286Y-73609666D01*
X120026286Y-73609666D02*
X120026286Y-73371571D01*
X120026286Y-73371571D02*
X120073905Y-73181095D01*
X120073905Y-73181095D02*
X120121524Y-73085857D01*
X120121524Y-73085857D02*
X120169143Y-73038238D01*
X120169143Y-73038238D02*
X120264381Y-72990619D01*
X121550095Y-73990619D02*
X120978667Y-73990619D01*
X121264381Y-73990619D02*
X121264381Y-72990619D01*
X121264381Y-72990619D02*
X121169143Y-73133476D01*
X121169143Y-73133476D02*
X121073905Y-73228714D01*
X121073905Y-73228714D02*
X120978667Y-73276333D01*
D12*
%TO.C,U501*%
X109350000Y-78150000D02*
X109350000Y-71850000D01*
X115650000Y-78150000D02*
X109350000Y-78150000D01*
X109350000Y-71850000D02*
X115650000Y-71850000D01*
X115650000Y-71850000D02*
X115650000Y-78150000D01*
D13*
X109125000Y-79725000D02*
G75*
G03*
X109125000Y-79725000I-125000J0D01*
G01*
D12*
%TO.C,U302*%
X115797000Y-62159000D02*
G75*
G03*
X115797000Y-62159000I-100000J0D01*
G01*
D14*
%TO.C,U301*%
X113034000Y-64308000D02*
X113034000Y-63668000D01*
X112554000Y-64308000D02*
X113034000Y-64308000D01*
X110334000Y-64308000D02*
X110814000Y-64308000D01*
X110334000Y-64308000D02*
X110334000Y-63668000D01*
X110334000Y-62748000D02*
X110334000Y-62108000D01*
X113034000Y-62748000D02*
X113034000Y-62108000D01*
X112554000Y-62108000D02*
X113034000Y-62108000D01*
D12*
%TO.C,PS201*%
X108914000Y-89188000D02*
X108914000Y-88288000D01*
X108964000Y-87938000D02*
X108964000Y-86738000D01*
X111864000Y-87938000D02*
X108964000Y-87938000D01*
X108964000Y-86738000D02*
X111864000Y-86738000D01*
X111864000Y-86738000D02*
X111864000Y-87938000D01*
D15*
%TO.C,J203*%
X120800000Y-85490000D02*
X120800000Y-86240000D01*
X120800000Y-86240000D02*
X123750000Y-86240000D01*
X123750000Y-86240000D02*
X123750000Y-89290000D01*
X120800000Y-92340000D02*
X123750000Y-92340000D01*
X118550000Y-88790000D02*
X118550000Y-89790000D01*
X118550000Y-89790000D02*
X119300000Y-89790000D01*
X119300000Y-89790000D02*
X119300000Y-88790000D01*
X119300000Y-87290000D02*
X119300000Y-85490000D01*
X118550000Y-85490000D02*
X118550000Y-87290000D01*
X118250000Y-93390000D02*
X119500000Y-93390000D01*
X118540000Y-93100000D02*
X124510000Y-93100000D01*
X118550000Y-93090000D02*
X119300000Y-93090000D01*
X124510000Y-93100000D02*
X124510000Y-85480000D01*
X119300000Y-88790000D02*
X118550000Y-88790000D01*
X120800000Y-93090000D02*
X120800000Y-92340000D01*
X119300000Y-93090000D02*
X119300000Y-91290000D01*
X118250000Y-92140000D02*
X118250000Y-93390000D01*
X119300000Y-85490000D02*
X118550000Y-85490000D01*
X118550000Y-91290000D02*
X118550000Y-93090000D01*
X118540000Y-85480000D02*
X118540000Y-93100000D01*
X123750000Y-92340000D02*
X123750000Y-89290000D01*
X118550000Y-87290000D02*
X119300000Y-87290000D01*
X124510000Y-85480000D02*
X118540000Y-85480000D01*
X119300000Y-91290000D02*
X118550000Y-91290000D01*
%TO.C,J202*%
X105700000Y-87250000D02*
X106450000Y-87250000D01*
X100490000Y-93060000D02*
X106460000Y-93060000D01*
X106450000Y-91250000D02*
X105700000Y-91250000D01*
X101250000Y-86200000D02*
X101250000Y-89250000D01*
X106460000Y-93060000D02*
X106460000Y-85440000D01*
X106450000Y-87250000D02*
X106450000Y-85450000D01*
X105700000Y-93050000D02*
X106450000Y-93050000D01*
X106750000Y-86400000D02*
X106750000Y-85150000D01*
X105700000Y-85450000D02*
X105700000Y-87250000D01*
X104200000Y-85450000D02*
X104200000Y-86200000D01*
X105700000Y-89750000D02*
X106450000Y-89750000D01*
X100490000Y-85440000D02*
X100490000Y-93060000D01*
X106450000Y-85450000D02*
X105700000Y-85450000D01*
X106460000Y-85440000D02*
X100490000Y-85440000D01*
X106750000Y-85150000D02*
X105500000Y-85150000D01*
X106450000Y-93050000D02*
X106450000Y-91250000D01*
X105700000Y-91250000D02*
X105700000Y-93050000D01*
X105700000Y-88750000D02*
X105700000Y-89750000D01*
X106450000Y-88750000D02*
X105700000Y-88750000D01*
X106450000Y-89750000D02*
X106450000Y-88750000D01*
X104200000Y-86200000D02*
X101250000Y-86200000D01*
X101250000Y-92300000D02*
X101250000Y-89250000D01*
X104200000Y-92300000D02*
X101250000Y-92300000D01*
X104200000Y-93050000D02*
X104200000Y-92300000D01*
D12*
%TO.C,J201*%
X117290000Y-55244218D02*
X117290000Y-53994218D01*
X117290000Y-51274218D02*
X117290000Y-49994218D01*
X117290000Y-49994218D02*
X107710000Y-49994218D01*
X107710000Y-55244218D02*
X107710000Y-53994218D01*
X107710000Y-49994218D02*
X107710000Y-51274218D01*
D15*
%TO.C,D501*%
X110840000Y-96001000D02*
X110840000Y-97471000D01*
X110840000Y-97471000D02*
X113300000Y-97471000D01*
X113300000Y-96001000D02*
X110840000Y-96001000D01*
%TO.C,D201*%
X113300000Y-94265000D02*
X110840000Y-94265000D01*
X110840000Y-95735000D02*
X113300000Y-95735000D01*
X110840000Y-94265000D02*
X110840000Y-95735000D01*
%TO.C,C408*%
X108130000Y-82404267D02*
X108130000Y-82111733D01*
X107110000Y-82404267D02*
X107110000Y-82111733D01*
%TO.C,C407*%
X117020000Y-82404267D02*
X117020000Y-82111733D01*
X116000000Y-82404267D02*
X116000000Y-82111733D01*
%TO.C,C405*%
X108888000Y-82404267D02*
X108888000Y-82111733D01*
X109908000Y-82404267D02*
X109908000Y-82111733D01*
%TO.C,C404*%
X110162000Y-67633733D02*
X110162000Y-67926267D01*
X109142000Y-67633733D02*
X109142000Y-67926267D01*
%TO.C,C403*%
X104933733Y-77684000D02*
X105226267Y-77684000D01*
X104933733Y-78704000D02*
X105226267Y-78704000D01*
%TO.C,C402*%
X113206000Y-82404267D02*
X113206000Y-82111733D01*
X114226000Y-82404267D02*
X114226000Y-82111733D01*
%TO.C,C401*%
X119958267Y-71588000D02*
X119665733Y-71588000D01*
X119958267Y-72608000D02*
X119665733Y-72608000D01*
%TD*%
D16*
X103200000Y-96800000D03*
X121800000Y-96800000D03*
X103200000Y-53200000D03*
X121800000Y-53200000D03*
X121000000Y-90540000D03*
X121000000Y-88040000D03*
X104000000Y-90500000D03*
X104000000Y-88000000D03*
X115390000Y-56274218D03*
X109610000Y-56274218D03*
D17*
X116820000Y-56774218D03*
D18*
X116820000Y-52594218D03*
X108180000Y-52594218D03*
D17*
X108180000Y-56774218D03*
M02*
